<svg xmlns="http://www.w3.org/2000/svg" viewBox="0 0 40 40" width="40" height="40"><defs></defs><g>
<g>
	<g>
		<g>
			<path d="M0.918114,15.440937C0.918114,15.440937 0.918114,17.132202 0.918114,17.132202 C0.918114,17.132202 1.06518,18.529334 1.06518,18.529334 C1.06518,18.529334 1.359313,19.632334 1.359313,19.632334 C1.359313,19.632334 1.432847,20.808866 1.432847,20.808866 C1.432847,20.808866 1.50638,21.911865 1.50638,21.911865 C1.50638,21.911865 1.653447,23.235464 1.653447,23.235464 C1.653447,23.235464 1.72698,24.632597 1.72698,24.632597 C1.72698,24.632597 1.72698,26.250329 1.72698,26.250329 C1.72698,26.250329 1.72698,27.353328 1.72698,27.353328 C1.72698,27.353328 1.800513,27.426861 1.800513,27.426861 C1.800513,27.426861 1.94758,28.382794 1.94758,28.382794 C1.94758,28.382794 2.021113,29.485793 2.021113,29.485793 C2.021113,29.485793 2.021113,30.441726 2.021113,30.441726 C2.021113,30.441726 2.021113,31.544725 2.021113,31.544725 C2.021113,31.544725 2.021113,32.574191 2.021113,32.574191 C2.021113,32.574191 2.021113,33.309524 2.021113,33.309524 C2.021113,33.309524 2.021113,33.971323 2.021113,33.971323 C2.021113,33.971323 2.021113,34.633123 2.021113,34.633123 C2.021113,34.633123 2.16818,35.221389 2.16818,35.221389 C2.16818,35.221389 2.388779,35.809655 2.388779,35.809655 C2.388779,35.809655 2.535846,36.692055 2.535846,36.692055 C2.535846,36.692055 2.903512,37.280321 2.903512,37.280321 C2.903512,37.280321 3.344712,37.795054 3.344712,37.795054 C3.344712,37.795054 4.447711,38.60392 4.447711,38.60392 C4.447711,38.60392 4.815378,38.82452 4.815378,38.82452 C4.815378,38.82452 5.477177,38.898053 5.477177,38.898053 C5.477177,38.898053 6.506643,38.971586 6.506643,38.971586 C6.506643,38.971586 7.241976,38.971586 7.241976,38.971586 C7.241976,38.971586 7.315509,38.971586 7.315509,38.971586 C7.315509,38.971586 8.859708,39.192186 8.859708,39.192186 C8.859708,39.192186 10.403907,39.339253 10.403907,39.339253 C10.403907,39.339253 11.35984,39.339253 11.35984,39.339253 C11.35984,39.339253 12.242239,39.339253 12.242239,39.339253 C12.242239,39.339253 12.977572,39.339253 12.977572,39.339253 C12.977572,39.339253 13.933504,39.265719 13.933504,39.265719 C13.933504,39.265719 14.889437,39.265719 14.889437,39.265719 C14.889437,39.265719 15.84537,39.265719 15.84537,39.265719 C15.84537,39.265719 16.654236,39.265719 16.654236,39.265719 C16.654236,39.265719 16.948369,39.265719 16.948369,39.265719 C16.948369,39.265719 18.271968,39.559853 18.271968,39.559853 C18.271968,39.559853 20.1103,39.706919 20.1103,39.706919 C20.1103,39.706919 21.507432,39.559853 21.507432,39.559853 C21.507432,39.559853 22.463365,39.486319 22.463365,39.486319 C22.463365,39.486319 23.419298,39.412786 23.419298,39.412786 C23.419298,39.412786 24.301697,39.412786 24.301697,39.412786 C24.301697,39.412786 25.331163,39.412786 25.331163,39.412786 C25.331163,39.412786 26.507695,39.412786 26.507695,39.412786 C26.507695,39.412786 27.463628,39.412786 27.463628,39.412786 C27.463628,39.412786 28.272494,39.339253 28.272494,39.339253 C28.272494,39.339253 28.934294,39.192186 28.934294,39.192186 C28.934294,39.192186 29.963759,38.971586 29.963759,38.971586 C29.963759,38.971586 30.699092,38.750986 30.699092,38.750986 C30.699092,38.750986 31.360892,38.677453 31.360892,38.677453 C31.360892,38.677453 32.243291,38.60392 32.243291,38.60392 C32.243291,38.60392 33.125691,38.456853 33.125691,38.456853 C33.125691,38.456853 33.934557,38.456853 33.934557,38.456853 C33.934557,38.456853 34.00809,38.38332 34.00809,38.38332 C34.00809,38.38332 35.037556,37.574454 35.037556,37.574454 C35.037556,37.574454 36.067022,36.397922 36.067022,36.397922 C36.067022,36.397922 36.875888,35.294922 36.875888,35.294922 C36.875888,35.294922 37.537687,33.824257 37.537687,33.824257 C37.537687,33.824257 37.83182,32.647724 37.83182,32.647724 C37.83182,32.647724 38.199487,31.471192 38.199487,31.471192 C38.199487,31.471192 38.199487,31.250592 38.199487,31.250592 C38.199487,31.250592 38.199487,31.103525 38.199487,31.103525 C38.199487,31.103525 37.905354,29.265193 37.905354,29.265193 C37.905354,29.265193 37.905354,27.794528 37.905354,27.794528 C37.905354,27.794528 37.905354,26.765062 37.905354,26.765062 C37.905354,26.765062 37.978887,25.662063 37.978887,25.662063 C37.978887,25.662063 38.125954,24.632597 38.125954,24.632597 C38.125954,24.632597 38.420087,23.603131 38.420087,23.603131 C38.420087,23.603131 38.49362,22.941331 38.49362,22.941331 C38.49362,22.941331 38.567153,21.911865 38.567153,21.911865 C38.567153,21.911865 38.640687,20.882399 38.640687,20.882399 C38.640687,20.882399 38.640687,20.735333 38.640687,20.735333 C38.640687,20.735333 38.640687,20.588266 38.640687,20.588266 C38.640687,20.588266 38.640687,19.5588 38.640687,19.5588 C38.640687,19.5588 38.71422,18.161668 38.71422,18.161668 C38.71422,18.161668 38.787753,17.058669 38.787753,17.058669 C38.787753,17.058669 38.861286,15.95567 38.861286,15.95567 C38.861286,15.95567 38.861286,14.632071 38.861286,14.632071 C38.861286,14.632071 38.93482,12.940805 38.93482,12.940805 C38.93482,12.940805 39.008353,11.911339 39.008353,11.911339 C39.008353,11.911339 39.081886,11.102473 39.081886,11.102473 C39.081886,11.102473 39.081886,10.36714 39.081886,10.36714 C39.081886,10.36714 39.081886,9.778874 39.081886,9.778874 C39.081886,9.778874 39.081886,9.631807 39.081886,9.631807 C39.081886,9.631807 39.008353,9.558274 39.008353,9.558274 C39.008353,9.558274 38.787753,7.499342 38.787753,7.499342 C38.787753,7.499342 38.640687,6.028677 38.640687,6.028677 C38.640687,6.028677 38.567153,4.852144 38.567153,4.852144 C38.567153,4.852144 38.346553,4.116811 38.346553,4.116811 C38.346553,4.116811 38.199487,3.455012 38.199487,3.455012 C38.199487,3.455012 38.125954,3.160879 38.125954,3.160879 C38.125954,3.160879 38.05242,3.160879 38.05242,3.160879 C38.05242,3.160879 37.611221,2.940279 37.611221,2.940279 C37.611221,2.940279 36.802355,2.572613 36.802355,2.572613 C36.802355,2.572613 35.625822,2.05788 35.625822,2.05788 C35.625822,2.05788 34.522823,1.690213 34.522823,1.690213 C34.522823,1.690213 33.125691,1.322547 33.125691,1.322547 C33.125691,1.322547 31.802091,1.028414 31.802091,1.028414 C31.802091,1.028414 30.552026,1.028414 30.552026,1.028414 C30.552026,1.028414 29.74316,1.028414 29.74316,1.028414 C29.74316,1.028414 29.669626,1.028414 29.669626,1.028414 C29.669626,1.028414 27.243028,0.660747 27.243028,0.660747 C27.243028,0.660747 24.448763,0.587214 24.448763,0.587214 C24.448763,0.587214 22.978098,0.366614 22.978098,0.366614 C22.978098,0.366614 22.095698,0.293081 22.095698,0.293081 C22.095698,0.293081 21.286832,0.293081 21.286832,0.293081 C21.286832,0.293081 20.183833,0.293081 20.183833,0.293081 C20.183833,0.293081 18.419034,0.293081 18.419034,0.293081 C18.419034,0.293081 17.168969,0.293081 17.168969,0.293081 C17.168969,0.293081 16.06597,0.293081 16.06597,0.293081 C16.06597,0.293081 14.227637,0.293081 14.227637,0.293081 C14.227637,0.293081 12.830505,0.293081 12.830505,0.293081 C12.830505,0.293081 11.727506,0.366614 11.727506,0.366614 C11.727506,0.366614 10.550973,0.587214 10.550973,0.587214 C10.550973,0.587214 9.521508,0.881347 9.521508,0.881347 C9.521508,0.881347 8.344975,1.028414 8.344975,1.028414 C8.344975,1.028414 7.609642,1.249014 7.609642,1.249014 C7.609642,1.249014 6.947843,1.543147 6.947843,1.543147 C6.947843,1.543147 6.359577,1.763746 6.359577,1.763746 C6.359577,1.763746 5.77131,1.910813 5.77131,1.910813 C5.77131,1.910813 5.256577,2.131413 5.256577,2.131413 C5.256577,2.131413 5.035977,2.131413 5.035977,2.131413 C5.035977,2.131413 4.962444,2.204946 4.962444,2.204946 C4.962444,2.204946 4.741844,2.352013 4.741844,2.352013 C4.741844,2.352013 3.859445,3.234412 3.859445,3.234412 C3.859445,3.234412 3.197645,4.190345 3.197645,4.190345 C3.197645,4.190345 2.756446,4.999211 2.756446,4.999211 C2.756446,4.999211 2.388779,5.734544 2.388779,5.734544 C2.388779,5.734544 2.094646,6.469876 2.094646,6.469876 C2.094646,6.469876 1.72698,7.205209 1.72698,7.205209 C1.72698,7.205209 1.432847,8.014075 1.432847,8.014075 C1.432847,8.014075 1.432847,8.455275 1.432847,8.455275 C1.432847,8.455275 1.432847,8.749408 1.432847,8.749408 C1.432847,8.749408 1.432847,9.337674 1.432847,9.337674 C1.432847,9.337674 1.359313,9.999474 1.359313,9.999474 C1.359313,9.999474 1.359313,10.955407 1.359313,10.955407 C1.359313,10.955407 1.359313,11.764273 1.359313,11.764273 C1.359313,11.764273 1.359313,12.131939 1.359313,12.131939 C1.359313,12.131939 1.359313,12.352539 1.359313,12.352539 C1.359313,12.352539 1.359313,12.646672 1.359313,12.646672 C1.359313,12.646672 1.359313,12.720205 1.359313,12.720205 C1.359313,12.720205 1.359313,12.793739 1.359313,12.793739 C1.359313,12.793739 1.359313,12.940805 1.359313,12.940805 C1.359313,12.940805 1.359313,13.014338 1.359313,13.014338 C1.359313,13.014338 1.359313,13.161405 1.359313,13.161405 C1.359313,13.161405 1.359313,13.382005 1.359313,13.382005 C1.359313,13.382005 1.359313,13.455538 1.359313,13.455538 C1.359313,13.455538 1.359313,13.529071 1.359313,13.529071 C1.359313,13.529071 1.359313,13.602605 1.359313,13.602605 C1.359313,13.602605 1.359313,13.676138 1.359313,13.676138 C1.359313,13.676138 1.359313,13.749671 1.359313,13.749671 C1.359313,13.749671 1.359313,13.823204 1.359313,13.823204 C1.359313,13.823204 0.918114,15.440937 0.918114,15.440937 L 0.918114,15.440937 ZM19.8,5.52C19.8,5.52 20.92,5.56 20.92,5.56 C20.92,5.56 20.96,5.56 20.96,5.56 C20.96,5.56 21.04,5.56 21.04,5.56 C21.04,5.56 21.4,5.56 21.4,5.56 C21.4,5.56 21.72,5.56 21.72,5.56 C21.72,5.56 21.8,5.56 21.8,5.56 C21.8,5.56 22.4,5.56 22.4,5.56 C22.4,5.56 23.16,5.52 23.16,5.52 C23.16,5.52 23.8,5.6 23.8,5.6 C23.8,5.6 24.2,5.64 24.2,5.64 C24.2,5.64 24.52,5.64 24.52,5.64 C24.52,5.64 24.84,5.68 24.84,5.68 C24.84,5.68 25.04,5.68 25.04,5.68 C25.04,5.68 25.08,5.68 25.08,5.68 C25.08,5.68 25.72,5.72 25.72,5.72 C25.72,5.72 26.36,5.72 26.36,5.72 C26.36,5.72 26.88,5.76 26.88,5.76 C26.88,5.76 27.28,5.84 27.28,5.84 C27.28,5.84 27.72,5.88 27.72,5.88 C27.72,5.88 28.08,5.88 28.08,5.88 C28.08,5.88 28.44,5.88 28.44,5.88 C28.44,5.88 28.76,5.88 28.76,5.88 C28.76,5.88 29.04,5.88 29.04,5.88 C29.04,5.88 29.36,5.92 29.36,5.92 C29.36,5.92 29.76,6.04 29.76,6.04 C29.76,6.04 30.12,6.12 30.12,6.12 C30.12,6.12 30.44,6.24 30.44,6.24 C30.44,6.24 30.76,6.36 30.76,6.36 C30.76,6.36 31.04,6.48 31.04,6.48 C31.04,6.48 31.16,6.52 31.16,6.52 C31.16,6.52 31.16,6.56 31.16,6.56 C31.16,6.56 31.24,6.6 31.24,6.6 C31.24,6.6 31.48,6.8 31.48,6.8 C31.48,6.8 31.76,7.04 31.76,7.04 C31.76,7.04 31.96,7.36 31.96,7.36 C31.96,7.36 32.12,7.64 32.12,7.64 C32.12,7.64 32.28,7.88 32.28,7.88 C32.28,7.88 32.36,8 32.36,8 C32.36,8 32.44,8.12 32.44,8.12 C32.44,8.12 32.56,8.32 32.56,8.32 C32.56,8.32 32.6,8.52 32.6,8.52 C32.6,8.52 32.6,8.6 32.6,8.6 C32.6,8.6 32.64,8.72 32.64,8.72 C32.64,8.72 32.76,9.08 32.76,9.08 C32.76,9.08 32.88,9.52 32.88,9.52 C32.88,9.52 32.92,9.96 32.92,9.96 C32.92,9.96 33,10.4 33,10.4 C33,10.4 33.08,10.72 33.08,10.72 C33.08,10.72 33.08,10.92 33.08,10.92 C33.08,10.92 33.12,11.16 33.12,11.16 C33.12,11.16 33.16,11.44 33.16,11.44 C33.16,11.44 33.2,11.8 33.2,11.8 C33.2,11.8 33.24,12.12 33.24,12.12 C33.24,12.12 33.28,12.4 33.28,12.4 C33.28,12.4 33.32,12.76 33.32,12.76 C33.32,12.76 33.4,13.08 33.4,13.08 C33.4,13.08 33.4,13.2 33.4,13.2 C33.4,13.2 33.4,13.32 33.4,13.32 C33.4,13.32 33.48,13.84 33.48,13.84 C33.48,13.84 33.52,14.36 33.52,14.36 C33.52,14.36 33.52,14.8 33.52,14.8 C33.52,14.8 33.56,15.24 33.56,15.24 C33.56,15.24 33.56,15.56 33.56,15.56 C33.56,15.56 33.56,15.84 33.56,15.84 C33.56,15.84 33.6,16.2 33.6,16.2 C33.6,16.2 33.64,16.48 33.64,16.48 C33.64,16.48 33.68,16.88 33.68,16.88 C33.68,16.88 33.72,17.2 33.72,17.2 C33.72,17.2 33.76,17.48 33.76,17.48 C33.76,17.48 33.8,17.72 33.8,17.72 C33.8,17.72 33.8,18 33.8,18 C33.8,18 33.8,18.28 33.8,18.28 C33.8,18.28 33.8,18.72 33.8,18.72 C33.8,18.72 33.8,19.12 33.8,19.12 C33.8,19.12 33.8,19.44 33.8,19.44 C33.8,19.44 33.8,19.84 33.8,19.84 C33.8,19.84 33.76,20.12 33.76,20.12 C33.76,20.12 33.76,20.4 33.76,20.4 C33.76,20.4 33.72,20.72 33.72,20.72 C33.72,20.72 33.72,20.84 33.72,20.84 C33.72,20.84 33.68,20.92 33.68,20.92 C33.68,20.92 33.6,21.32 33.6,21.32 C33.6,21.32 33.6,21.76 33.6,21.76 C33.6,21.76 33.48,22.28 33.48,22.28 C33.48,22.28 33.44,22.76 33.44,22.76 C33.44,22.76 33.4,23.12 33.4,23.12 C33.4,23.12 33.4,23.48 33.4,23.48 C33.4,23.48 33.32,23.88 33.32,23.88 C33.32,23.88 33.32,24.2 33.32,24.2 C33.32,24.2 33.32,24.6 33.32,24.6 C33.32,24.6 33.32,25 33.32,25 C33.32,25 33.28,25.36 33.28,25.36 C33.28,25.36 33.24,25.8 33.24,25.8 C33.24,25.8 33.16,26.2 33.16,26.2 C33.16,26.2 33.12,26.56 33.12,26.56 C33.12,26.56 33,26.92 33,26.92 C33,26.92 32.92,27.28 32.92,27.28 C32.92,27.28 32.84,27.64 32.84,27.64 C32.84,27.64 32.8,28 32.8,28 C32.8,28 32.72,28.44 32.72,28.44 C32.72,28.44 32.68,28.72 32.68,28.72 C32.68,28.72 32.64,29 32.64,29 C32.64,29 32.56,29.32 32.56,29.32 C32.56,29.32 32.52,29.6 32.52,29.6 C32.52,29.6 32.44,29.88 32.44,29.88 C32.44,29.88 32.36,30.2 32.36,30.2 C32.36,30.2 32.24,30.48 32.24,30.48 C32.24,30.48 32.16,30.68 32.16,30.68 C32.16,30.68 31.96,30.92 31.96,30.92 C31.96,30.92 31.84,31.12 31.84,31.12 C31.84,31.12 31.68,31.36 31.68,31.36 C31.68,31.36 31.44,31.6 31.44,31.6 C31.44,31.6 31.28,31.88 31.28,31.88 C31.28,31.88 31.08,32.08 31.08,32.08 C31.08,32.08 30.92,32.24 30.92,32.24 C30.92,32.24 30.72,32.44 30.72,32.44 C30.72,32.44 30.56,32.64 30.56,32.64 C30.56,32.64 30.36,32.8 30.36,32.8 C30.36,32.8 30.12,32.96 30.12,32.96 C30.12,32.96 29.84,33.12 29.84,33.12 C29.84,33.12 29.64,33.32 29.64,33.32 C29.64,33.32 29.4,33.48 29.4,33.48 C29.4,33.48 29.2,33.6 29.2,33.6 C29.2,33.6 29.04,33.72 29.04,33.72 C29.04,33.72 28.84,33.8 28.84,33.8 C28.84,33.8 28.76,33.76 28.76,33.76 C28.76,33.76 28.72,33.76 28.72,33.76 C28.72,33.76 28.6,33.8 28.6,33.8 C28.6,33.8 28.36,33.88 28.36,33.88 C28.36,33.88 28.08,33.96 28.08,33.96 C28.08,33.96 27.72,34.04 27.72,34.04 C27.72,34.04 27.4,34.08 27.4,34.08 C27.4,34.08 27.04,34.12 27.04,34.12 C27.04,34.12 26.8,34.12 26.8,34.12 C26.8,34.12 26.48,34.16 26.48,34.16 C26.48,34.16 26.24,34.16 26.24,34.16 C26.24,34.16 26.08,34.16 26.08,34.16 C26.08,34.16 25.8,34.2 25.8,34.2 C25.8,34.2 25.56,34.2 25.56,34.2 C25.56,34.2 25.4,34.2 25.4,34.2 C25.4,34.2 25.16,34.24 25.16,34.24 C25.16,34.24 24.84,34.32 24.84,34.32 C24.84,34.32 24.2,34.4 24.2,34.4 C24.2,34.4 23.84,34.44 23.84,34.44 C23.84,34.44 23.56,34.48 23.56,34.48 C23.56,34.48 23.32,34.52 23.32,34.52 C23.32,34.52 22.8,34.56 22.8,34.56 C22.8,34.56 22.52,34.56 22.52,34.56 C22.52,34.56 22.24,34.56 22.24,34.56 C22.24,34.56 22.08,34.6 22.08,34.6 C22.08,34.6 21.92,34.6 21.92,34.6 C21.92,34.6 21.72,34.64 21.72,34.64 C21.72,34.64 21.6,34.68 21.6,34.68 C21.6,34.68 21.56,34.68 21.56,34.68 C21.56,34.68 21.24,34.68 21.24,34.68 C21.24,34.68 20.72,34.68 20.72,34.68 C20.72,34.68 20.24,34.68 20.24,34.68 C20.24,34.68 19.72,34.68 19.72,34.68 C19.72,34.68 19.32,34.68 19.32,34.68 C19.32,34.68 18.96,34.68 18.96,34.68 C18.96,34.68 18.68,34.68 18.68,34.68 C18.68,34.68 18.4,34.68 18.4,34.68 C18.4,34.68 18.2,34.76 18.2,34.76 C18.2,34.76 17.96,34.76 17.96,34.76 C17.96,34.76 17.68,34.8 17.68,34.8 C17.68,34.8 17.36,34.8 17.36,34.8 C17.36,34.8 17.08,34.8 17.08,34.8 C17.08,34.8 16.6,34.8 16.6,34.8 C16.6,34.8 16.08,34.8 16.08,34.8 C16.08,34.8 15.56,34.84 15.56,34.84 C15.56,34.84 15.24,34.84 15.24,34.84 C15.24,34.84 14.96,34.84 14.96,34.84 C14.96,34.84 14.6,34.84 14.6,34.84 C14.6,34.84 14.16,34.76 14.16,34.76 C14.16,34.76 13.84,34.68 13.84,34.68 C13.84,34.68 13.52,34.56 13.52,34.56 C13.52,34.56 13.12,34.44 13.12,34.44 C13.12,34.44 12.72,34.28 12.72,34.28 C12.72,34.28 12.44,34.2 12.44,34.2 C12.44,34.2 12.2,34.2 12.2,34.2 C12.2,34.2 12.04,34.08 12.04,34.08 C12.04,34.08 11.6,33.88 11.6,33.88 C11.6,33.88 11.24,33.68 11.24,33.68 C11.24,33.68 10.96,33.52 10.96,33.52 C10.96,33.52 10.64,33.36 10.64,33.36 C10.64,33.36 10.32,33.2 10.32,33.2 C10.32,33.2 10.04,33 10.04,33 C10.04,33 9.76,32.88 9.76,32.88 C9.76,32.88 9.44,32.68 9.44,32.68 C9.44,32.68 9.16,32.4 9.16,32.4 C9.16,32.4 8.92,32.12 8.92,32.12 C8.92,32.12 8.8,31.92 8.8,31.92 C8.8,31.92 8.76,31.64 8.76,31.64 C8.76,31.64 8.68,31.48 8.68,31.48 C8.68,31.48 8.64,31.32 8.64,31.32 C8.64,31.32 8.52,31.08 8.52,31.08 C8.52,31.08 8.4,30.8 8.4,30.8 C8.4,30.8 8.24,30.36 8.24,30.36 C8.24,30.36 8.08,29.96 8.08,29.96 C8.08,29.96 7.92,29.64 7.92,29.64 C7.92,29.64 7.76,29.36 7.76,29.36 C7.76,29.36 7.76,29.32 7.76,29.32 C7.76,29.32 7.64,28.96 7.64,28.96 C7.64,28.96 7.36,28.28 7.36,28.28 C7.36,28.28 7.24,27.76 7.24,27.76 C7.24,27.76 7.08,27.48 7.08,27.48 C7.08,27.48 7.04,27.2 7.04,27.2 C7.04,27.2 7,26.96 7,26.96 C7,26.96 6.96,26.64 6.96,26.64 C6.96,26.64 6.92,26.36 6.92,26.36 C6.92,26.36 6.92,26 6.92,26 C6.92,26 6.88,25.56 6.88,25.56 C6.88,25.56 6.88,25.2 6.88,25.2 C6.88,25.2 6.88,24.76 6.88,24.76 C6.88,24.76 6.8,24.2 6.8,24.2 C6.8,24.2 6.76,23.68 6.76,23.68 C6.76,23.68 6.76,23.56 6.76,23.56 C6.76,23.56 6.76,23.52 6.76,23.52 C6.76,23.52 6.68,22.64 6.68,22.64 C6.68,22.64 6.6,22.2 6.6,22.2 C6.6,22.2 6.56,21.68 6.56,21.68 C6.56,21.68 6.52,21.24 6.52,21.24 C6.52,21.24 6.48,20.72 6.48,20.72 C6.48,20.72 6.44,20.28 6.44,20.28 C6.44,20.28 6.44,19.84 6.44,19.84 C6.44,19.84 6.44,19.44 6.44,19.44 C6.44,19.44 6.44,18.96 6.44,18.96 C6.44,18.96 6.44,18.68 6.44,18.68 C6.44,18.68 6.44,18.24 6.44,18.24 C6.44,18.24 6.44,17.84 6.44,17.84 C6.44,17.84 6.44,17.6 6.44,17.6 C6.44,17.6 6.36,17.48 6.36,17.48 C6.36,17.48 6.28,16.92 6.28,16.92 C6.28,16.92 6.24,16.12 6.24,16.12 C6.24,16.12 6.2,15.48 6.2,15.48 C6.2,15.48 6.2,15.04 6.2,15.04 C6.2,15.04 6.2,14.72 6.2,14.72 C6.2,14.72 6.2,14.28 6.2,14.28 C6.2,14.28 6.2,13.84 6.2,13.84 C6.2,13.84 6.2,13.12 6.2,13.12 C6.2,13.12 6.24,12.44 6.24,12.44 C6.24,12.44 6.28,11.92 6.28,11.92 C6.28,11.92 6.32,11.36 6.32,11.36 C6.32,11.36 6.36,11.04 6.36,11.04 C6.36,11.04 6.4,10.76 6.4,10.76 C6.4,10.76 6.4,10.56 6.4,10.56 C6.4,10.56 6.44,10.32 6.44,10.32 C6.44,10.32 6.56,9.92 6.56,9.92 C6.56,9.92 6.72,9.4 6.72,9.4 C6.72,9.4 6.88,8.96 6.88,8.96 C6.88,8.96 7.08,8.52 7.08,8.52 C7.08,8.52 7.2,8.36 7.2,8.36 C7.2,8.36 7.24,8.32 7.24,8.32 C7.24,8.32 7.44,8.04 7.44,8.04 C7.44,8.04 7.64,7.68 7.64,7.68 C7.64,7.68 7.76,7.52 7.76,7.52 C7.76,7.52 7.92,7.4 7.92,7.4 C7.92,7.4 8.16,7.24 8.16,7.24 C8.16,7.24 8.6,7.08 8.6,7.08 C8.6,7.08 9,6.88 9,6.88 C9,6.88 9.36,6.8 9.36,6.8 C9.36,6.8 9.52,6.76 9.52,6.76 C9.52,6.76 9.76,6.64 9.76,6.64 C9.76,6.64 10.08,6.52 10.08,6.52 C10.08,6.52 10.44,6.4 10.44,6.4 C10.44,6.4 10.84,6.4 10.84,6.4 C10.84,6.4 10.88,6.4 10.88,6.4 C10.88,6.4 10.96,6.36 10.96,6.36 C10.96,6.36 11.64,6.28 11.64,6.28 C11.64,6.28 12.28,6.2 12.28,6.2 C12.28,6.2 12.84,6.12 12.84,6.12 C12.84,6.12 13.32,6.04 13.32,6.04 C13.32,6.04 13.76,5.92 13.76,5.92 C13.76,5.92 14.16,5.76 14.16,5.76 C14.16,5.76 14.64,5.64 14.64,5.64 C14.64,5.64 15.12,5.56 15.12,5.56 C15.12,5.56 15.56,5.52 15.56,5.52 C15.56,5.52 16.04,5.44 16.04,5.44 C16.04,5.44 16.44,5.44 16.44,5.44 C16.44,5.44 16.84,5.4 16.84,5.4 C16.84,5.4 17.16,5.36 17.16,5.36 C17.16,5.36 17.48,5.32 17.48,5.32 C17.48,5.32 17.76,5.32 17.76,5.32 C17.76,5.32 18.08,5.28 18.08,5.28 C18.08,5.28 18.4,5.28 18.4,5.28 C18.4,5.28 18.64,5.24 18.64,5.24 C18.64,5.24 18.84,5.24 18.84,5.24 C18.84,5.24 18.96,5.24 18.96,5.24 C18.96,5.24 19.08,5.24 19.08,5.24 C19.08,5.24 19.2,5.24 19.2,5.24 C19.2,5.24 19.32,5.24 19.32,5.24 C19.32,5.24 19.48,5.24 19.48,5.24 C19.48,5.24 19.52,5.24 19.52,5.24 C19.52,5.24 19.56,5.24 19.56,5.24 C19.56,5.24 19.6,5.28 19.6,5.28 C19.6,5.28 19.64,5.28 19.64,5.28 C19.64,5.28 19.68,5.28 19.68,5.28 C19.68,5.28 19.76,5.36 19.76,5.36 C19.76,5.36 19.8,5.36 19.8,5.36 C19.8,5.36 19.8,5.4 19.8,5.4 C19.8,5.4 19.88,5.44 19.88,5.44 C19.88,5.44 19.88,5.48 19.88,5.48 C19.88,5.48 19.8,5.52 19.8,5.52 L 19.8,5.52 Z" fill="#000000"/>
		</g>
		<g>
			<path d="M20.714283,16.776685C20.714283,16.776685 20.798062,16.776685 20.798062,16.776685 C20.798062,16.776685 20.829479,16.776685 20.829479,16.776685 C20.829479,16.776685 20.829479,16.793964 20.829479,16.793964 C20.829479,16.793964 20.92373,16.808102 20.92373,16.808102 C20.92373,16.808102 20.892313,16.808102 20.892313,16.808102 C20.892313,16.808102 20.860896,16.808102 20.860896,16.808102 C20.860896,16.808102 20.829479,16.808102 20.829479,16.808102 C20.829479,16.808102 20.829479,16.793964 20.829479,16.793964 C20.829479,16.793964 20.714283,16.776685 20.714283,16.776685 C20.714283,16.776685 20.29539,16.713851 20.29539,16.713851 C20.29539,16.713851 20.483892,16.745268 20.483892,16.745268 C20.483892,16.745268 20.672394,16.776685 20.672394,16.776685 C20.672394,16.776685 20.714283,16.776685 20.714283,16.776685 L 20.714283,16.776685 ZM19.81523,6.585723C19.81523,6.585723 19.889138,6.548769 19.889138,6.548769 C19.889138,6.548769 19.889138,6.511815 19.889138,6.511815 C19.889138,6.511815 19.81523,6.474861 19.81523,6.474861 C19.81523,6.474861 19.81523,6.437907 19.81523,6.437907 C19.81523,6.437907 19.778276,6.437907 19.778276,6.437907 C19.778276,6.437907 19.704369,6.364 19.704369,6.364 C19.704369,6.364 19.667415,6.364 19.667415,6.364 C19.667415,6.364 19.630461,6.364 19.630461,6.364 C19.630461,6.364 19.593507,6.327046 19.593507,6.327046 C19.593507,6.327046 19.556553,6.327046 19.556553,6.327046 C19.556553,6.327046 19.519599,6.327046 19.519599,6.327046 C19.519599,6.327046 19.371783,6.327046 19.371783,6.327046 C19.371783,6.327046 19.260921,6.327046 19.260921,6.327046 C19.260921,6.327046 19.15006,6.327046 19.15006,6.327046 C19.15006,6.327046 19.039198,6.327046 19.039198,6.327046 C19.039198,6.327046 18.928336,6.327046 18.928336,6.327046 C18.928336,6.327046 18.743566,6.327046 18.743566,6.327046 C18.743566,6.327046 18.521843,6.364 18.521843,6.364 C18.521843,6.364 18.226211,6.364 18.226211,6.364 C18.226211,6.364 17.93058,6.400954 17.93058,6.400954 C17.93058,6.400954 17.671902,6.400954 17.671902,6.400954 C17.671902,6.400954 17.376271,6.437907 17.376271,6.437907 C17.376271,6.437907 17.080639,6.474861 17.080639,6.474861 C17.080639,6.474861 16.7111,6.511815 16.7111,6.511815 C16.7111,6.511815 16.341561,6.511815 16.341561,6.511815 C16.341561,6.511815 15.898114,6.585723 15.898114,6.585723 C15.898114,6.585723 15.49162,6.622677 15.49162,6.622677 C15.49162,6.622677 15.048173,6.696585 15.048173,6.696585 C15.048173,6.696585 14.604726,6.807447 14.604726,6.807447 C14.604726,6.807447 14.235187,6.955263 14.235187,6.955263 C14.235187,6.955263 13.828694,7.066124 13.828694,7.066124 C13.828694,7.066124 13.385246,7.140032 13.385246,7.140032 C13.385246,7.140032 12.867891,7.21394 12.867891,7.21394 C12.867891,7.21394 12.276629,7.287848 12.276629,7.287848 C12.276629,7.287848 11.648412,7.361756 11.648412,7.361756 C11.648412,7.361756 11.574504,7.39871 11.574504,7.39871 C11.574504,7.39871 11.53755,7.39871 11.53755,7.39871 C11.53755,7.39871 11.168011,7.39871 11.168011,7.39871 C11.168011,7.39871 10.835425,7.509571 10.835425,7.509571 C10.835425,7.509571 10.539794,7.620433 10.539794,7.620433 C10.539794,7.620433 10.31807,7.731295 10.31807,7.731295 C10.31807,7.731295 10.170254,7.768249 10.170254,7.768249 C10.170254,7.768249 9.837669,7.842157 9.837669,7.842157 C9.837669,7.842157 9.46813,8.026926 9.46813,8.026926 C9.46813,8.026926 9.061637,8.174742 9.061637,8.174742 C9.061637,8.174742 8.839913,8.322558 8.839913,8.322558 C8.839913,8.322558 8.692097,8.43342 8.692097,8.43342 C8.692097,8.43342 8.581235,8.581235 8.581235,8.581235 C8.581235,8.581235 8.396466,8.913821 8.396466,8.913821 C8.396466,8.913821 8.211696,9.172498 8.211696,9.172498 C8.211696,9.172498 8.174742,9.209452 8.174742,9.209452 C8.174742,9.209452 8.06388,9.357268 8.06388,9.357268 C8.06388,9.357268 7.879111,9.763761 7.879111,9.763761 C7.879111,9.763761 7.731295,10.170254 7.731295,10.170254 C7.731295,10.170254 7.583479,10.650656 7.583479,10.650656 C7.583479,10.650656 7.472618,11.020195 7.472618,11.020195 C7.472618,11.020195 7.435664,11.241918 7.435664,11.241918 C7.435664,11.241918 7.435664,11.426688 7.435664,11.426688 C7.435664,11.426688 7.39871,11.685366 7.39871,11.685366 C7.39871,11.685366 7.361756,11.980997 7.361756,11.980997 C7.361756,11.980997 7.324802,12.498352 7.324802,12.498352 C7.324802,12.498352 7.287848,12.978753 7.287848,12.978753 C7.287848,12.978753 7.250894,13.60697 7.250894,13.60697 C7.250894,13.60697 7.250894,14.272141 7.250894,14.272141 C7.250894,14.272141 7.250894,14.678634 7.250894,14.678634 C7.250894,14.678634 7.250894,15.085127 7.250894,15.085127 C7.250894,15.085127 7.250894,15.380759 7.250894,15.380759 C7.250894,15.380759 7.250894,15.787252 7.250894,15.787252 C7.250894,15.787252 7.287848,16.378515 7.287848,16.378515 C7.287848,16.378515 7.324802,17.117593 7.324802,17.117593 C7.324802,17.117593 7.39871,17.634948 7.39871,17.634948 C7.39871,17.634948 7.472618,17.74581 7.472618,17.74581 C7.472618,17.74581 7.472618,17.967534 7.472618,17.967534 C7.472618,17.967534 7.472618,18.337073 7.472618,18.337073 C7.472618,18.337073 7.472618,18.743566 7.472618,18.743566 C7.472618,18.743566 7.472618,19.002244 7.472618,19.002244 C7.472618,19.002244 7.472618,19.445691 7.472618,19.445691 C7.472618,19.445691 7.472618,19.81523 7.472618,19.81523 C7.472618,19.81523 7.472618,20.221724 7.472618,20.221724 C7.472618,20.221724 7.509571,20.628217 7.509571,20.628217 C7.509571,20.628217 7.546525,21.108618 7.546525,21.108618 C7.546525,21.108618 7.583479,21.515111 7.583479,21.515111 C7.583479,21.515111 7.620433,21.995512 7.620433,21.995512 C7.620433,21.995512 7.694341,22.402005 7.694341,22.402005 C7.694341,22.402005 7.768249,23.214992 7.768249,23.214992 C7.768249,23.214992 7.768249,23.251946 7.768249,23.251946 C7.768249,23.251946 7.768249,23.362808 7.768249,23.362808 C7.768249,23.362808 7.805203,23.843209 7.805203,23.843209 C7.805203,23.843209 7.879111,24.360564 7.879111,24.360564 C7.879111,24.360564 7.879111,24.767057 7.879111,24.767057 C7.879111,24.767057 7.879111,25.099642 7.879111,25.099642 C7.879111,25.099642 7.916065,25.506136 7.916065,25.506136 C7.916065,25.506136 7.916065,25.838721 7.916065,25.838721 C7.916065,25.838721 7.953019,26.097399 7.953019,26.097399 C7.953019,26.097399 7.989973,26.39303 7.989973,26.39303 C7.989973,26.39303 8.026926,26.614754 8.026926,26.614754 C8.026926,26.614754 8.06388,26.873431 8.06388,26.873431 C8.06388,26.873431 8.211696,27.132109 8.211696,27.132109 C8.211696,27.132109 8.322558,27.61251 8.322558,27.61251 C8.322558,27.61251 8.581235,28.240727 8.581235,28.240727 C8.581235,28.240727 8.692097,28.573312 8.692097,28.573312 C8.692097,28.573312 8.692097,28.610266 8.692097,28.610266 C8.692097,28.610266 8.839913,28.868943 8.839913,28.868943 C8.839913,28.868943 8.987729,29.164575 8.987729,29.164575 C8.987729,29.164575 9.135544,29.534114 9.135544,29.534114 C9.135544,29.534114 9.28336,29.940607 9.28336,29.940607 C9.28336,29.940607 9.394222,30.199285 9.394222,30.199285 C9.394222,30.199285 9.505084,30.421008 9.505084,30.421008 C9.505084,30.421008 9.542038,30.568824 9.542038,30.568824 C9.542038,30.568824 9.615946,30.71664 9.615946,30.71664 C9.615946,30.71664 9.652899,30.975317 9.652899,30.975317 C9.652899,30.975317 9.763761,31.160087 9.763761,31.160087 C9.763761,31.160087 9.985485,31.418765 9.985485,31.418765 C9.985485,31.418765 10.244162,31.677442 10.244162,31.677442 C10.244162,31.677442 10.539794,31.862212 10.539794,31.862212 C10.539794,31.862212 10.798471,31.973074 10.798471,31.973074 C10.798471,31.973074 11.057149,32.157843 11.057149,32.157843 C11.057149,32.157843 11.35278,32.305659 11.35278,32.305659 C11.35278,32.305659 11.648412,32.453475 11.648412,32.453475 C11.648412,32.453475 11.907089,32.60129 11.907089,32.60129 C11.907089,32.60129 12.239675,32.78606 12.239675,32.78606 C12.239675,32.78606 12.646168,32.97083 12.646168,32.97083 C12.646168,32.97083 12.793984,33.081691 12.793984,33.081691 C12.793984,33.081691 13.015707,33.081691 13.015707,33.081691 C13.015707,33.081691 13.274385,33.155599 13.274385,33.155599 C13.274385,33.155599 13.643924,33.303415 13.643924,33.303415 C13.643924,33.303415 14.013463,33.414277 14.013463,33.414277 C14.013463,33.414277 14.309095,33.525139 14.309095,33.525139 C14.309095,33.525139 14.604726,33.599046 14.604726,33.599046 C14.604726,33.599046 15.011219,33.672954 15.011219,33.672954 C15.011219,33.672954 15.343805,33.672954 15.343805,33.672954 C15.343805,33.672954 15.602482,33.672954 15.602482,33.672954 C15.602482,33.672954 15.898114,33.672954 15.898114,33.672954 C15.898114,33.672954 16.378515,33.636 16.378515,33.636 C16.378515,33.636 16.858916,33.636 16.858916,33.636 C16.858916,33.636 17.302363,33.636 17.302363,33.636 C17.302363,33.636 17.561041,33.636 17.561041,33.636 C17.561041,33.636 17.856672,33.636 17.856672,33.636 C17.856672,33.636 18.11535,33.599046 18.11535,33.599046 C18.11535,33.599046 18.337073,33.599046 18.337073,33.599046 C18.337073,33.599046 18.521843,33.525139 18.521843,33.525139 C18.521843,33.525139 18.78052,33.525139 18.78052,33.525139 C18.78052,33.525139 19.039198,33.525139 19.039198,33.525139 C19.039198,33.525139 19.371783,33.525139 19.371783,33.525139 C19.371783,33.525139 19.741322,33.525139 19.741322,33.525139 C19.741322,33.525139 20.221724,33.525139 20.221724,33.525139 C20.221724,33.525139 20.665171,33.525139 20.665171,33.525139 C20.665171,33.525139 21.145572,33.525139 21.145572,33.525139 C21.145572,33.525139 21.441203,33.525139 21.441203,33.525139 C21.441203,33.525139 21.478157,33.525139 21.478157,33.525139 C21.478157,33.525139 21.589019,33.488185 21.589019,33.488185 C21.589019,33.488185 21.773789,33.451231 21.773789,33.451231 C21.773789,33.451231 21.921604,33.451231 21.921604,33.451231 C21.921604,33.451231 22.06942,33.414277 22.06942,33.414277 C22.06942,33.414277 22.328098,33.414277 22.328098,33.414277 C22.328098,33.414277 22.586775,33.414277 22.586775,33.414277 C22.586775,33.414277 23.067176,33.377323 23.067176,33.377323 C23.067176,33.377323 23.2889,33.340369 23.2889,33.340369 C23.2889,33.340369 23.547577,33.303415 23.547577,33.303415 C23.547577,33.303415 23.880163,33.266461 23.880163,33.266461 C23.880163,33.266461 24.471426,33.192553 24.471426,33.192553 C24.471426,33.192553 24.767057,33.118645 24.767057,33.118645 C24.767057,33.118645 24.988781,33.081691 24.988781,33.081691 C24.988781,33.081691 25.136596,33.081691 25.136596,33.081691 C25.136596,33.081691 25.35832,33.081691 25.35832,33.081691 C25.35832,33.081691 25.616997,33.044737 25.616997,33.044737 C25.616997,33.044737 25.764813,33.044737 25.764813,33.044737 C25.764813,33.044737 25.986537,33.044737 25.986537,33.044737 C25.986537,33.044737 26.282168,33.007784 26.282168,33.007784 C26.282168,33.007784 26.503892,33.007784 26.503892,33.007784 C26.503892,33.007784 26.836477,32.97083 26.836477,32.97083 C26.836477,32.97083 27.132109,32.933876 27.132109,32.933876 C27.132109,32.933876 27.464694,32.859968 27.464694,32.859968 C27.464694,32.859968 27.723371,32.78606 27.723371,32.78606 C27.723371,32.78606 27.945095,32.712152 27.945095,32.712152 C27.945095,32.712152 28.055957,32.675198 28.055957,32.675198 C28.055957,32.675198 28.092911,32.675198 28.092911,32.675198 C28.092911,32.675198 28.166819,32.712152 28.166819,32.712152 C28.166819,32.712152 28.351588,32.638244 28.351588,32.638244 C28.351588,32.638244 28.499404,32.527382 28.499404,32.527382 C28.499404,32.527382 28.684174,32.416521 28.684174,32.416521 C28.684174,32.416521 28.905897,32.268705 28.905897,32.268705 C28.905897,32.268705 29.090667,32.083935 29.090667,32.083935 C29.090667,32.083935 29.349344,31.93612 29.349344,31.93612 C29.349344,31.93612 29.571068,31.788304 29.571068,31.788304 C29.571068,31.788304 29.755838,31.640488 29.755838,31.640488 C29.755838,31.640488 29.903653,31.455718 29.903653,31.455718 C29.903653,31.455718 30.088423,31.270949 30.088423,31.270949 C30.088423,31.270949 30.236239,31.123133 30.236239,31.123133 C30.236239,31.123133 30.421008,30.938363 30.421008,30.938363 C30.421008,30.938363 30.568824,30.679686 30.568824,30.679686 C30.568824,30.679686 30.790548,30.457962 30.790548,30.457962 C30.790548,30.457962 30.938363,30.236239 30.938363,30.236239 C30.938363,30.236239 31.049225,30.051469 31.049225,30.051469 C31.049225,30.051469 31.233995,29.829746 31.233995,29.829746 C31.233995,29.829746 31.307903,29.644976 31.307903,29.644976 C31.307903,29.644976 31.418765,29.386298 31.418765,29.386298 C31.418765,29.386298 31.492672,29.090667 31.492672,29.090667 C31.492672,29.090667 31.56658,28.831989 31.56658,28.831989 C31.56658,28.831989 31.603534,28.573312 31.603534,28.573312 C31.603534,28.573312 31.677442,28.27768 31.677442,28.27768 C31.677442,28.27768 31.714396,28.019003 31.714396,28.019003 C31.714396,28.019003 31.75135,27.760325 31.75135,27.760325 C31.75135,27.760325 31.825258,27.353832 31.825258,27.353832 C31.825258,27.353832 31.862212,27.021247 31.862212,27.021247 C31.862212,27.021247 31.93612,26.688661 31.93612,26.688661 C31.93612,26.688661 32.010027,26.356076 32.010027,26.356076 C32.010027,26.356076 32.120889,26.023491 32.120889,26.023491 C32.120889,26.023491 32.157843,25.690905 32.157843,25.690905 C32.157843,25.690905 32.231751,25.321366 32.231751,25.321366 C32.231751,25.321366 32.268705,24.914873 32.268705,24.914873 C32.268705,24.914873 32.305659,24.582287 32.305659,24.582287 C32.305659,24.582287 32.305659,24.212748 32.305659,24.212748 C32.305659,24.212748 32.305659,23.843209 32.305659,23.843209 C32.305659,23.843209 32.305659,23.547577 32.305659,23.547577 C32.305659,23.547577 32.379567,23.178038 32.379567,23.178038 C32.379567,23.178038 32.379567,22.845453 32.379567,22.845453 C32.379567,22.845453 32.416521,22.512867 32.416521,22.512867 C32.416521,22.512867 32.453475,22.06942 32.453475,22.06942 C32.453475,22.06942 32.564336,21.589019 32.564336,21.589019 C32.564336,21.589019 32.564336,21.182526 32.564336,21.182526 C32.564336,21.182526 32.638244,20.812986 32.638244,20.812986 C32.638244,20.812986 32.675198,20.739079 32.675198,20.739079 C32.675198,20.739079 32.675198,20.628217 32.675198,20.628217 C32.675198,20.628217 32.712152,20.332585 32.712152,20.332585 C32.712152,20.332585 32.712152,20.073908 32.712152,20.073908 C32.712152,20.073908 32.749106,19.81523 32.749106,19.81523 C32.749106,19.81523 32.749106,19.445691 32.749106,19.445691 C32.749106,19.445691 32.749106,19.15006 32.749106,19.15006 C32.749106,19.15006 32.749106,18.78052 32.749106,18.78052 C32.749106,18.78052 32.749106,18.374027 32.749106,18.374027 C32.749106,18.374027 32.749106,18.11535 32.749106,18.11535 C32.749106,18.11535 32.749106,17.856672 32.749106,17.856672 C32.749106,17.856672 32.712152,17.634948 32.712152,17.634948 C32.712152,17.634948 32.675198,17.376271 32.675198,17.376271 C32.675198,17.376271 32.638244,17.080639 32.638244,17.080639 C32.638244,17.080639 32.60129,16.7111 32.60129,16.7111 C32.60129,16.7111 32.564336,16.452423 32.564336,16.452423 C32.564336,16.452423 32.527382,16.119837 32.527382,16.119837 C32.527382,16.119837 32.527382,15.86116 32.527382,15.86116 C32.527382,15.86116 32.527382,15.565528 32.527382,15.565528 C32.527382,15.565528 32.490429,15.159035 32.490429,15.159035 C32.490429,15.159035 32.490429,14.752542 32.490429,14.752542 C32.490429,14.752542 32.453475,14.272141 32.453475,14.272141 C32.453475,14.272141 32.379567,13.79174 32.379567,13.79174 C32.379567,13.79174 32.379567,13.680878 32.379567,13.680878 C32.379567,13.680878 32.379567,13.570016 32.379567,13.570016 C32.379567,13.570016 32.305659,13.274385 32.305659,13.274385 C32.305659,13.274385 32.268705,12.941799 32.268705,12.941799 C32.268705,12.941799 32.231751,12.683122 32.231751,12.683122 C32.231751,12.683122 32.194797,12.38749 32.194797,12.38749 C32.194797,12.38749 32.157843,12.054905 32.157843,12.054905 C32.157843,12.054905 32.120889,11.796227 32.120889,11.796227 C32.120889,11.796227 32.083935,11.574504 32.083935,11.574504 C32.083935,11.574504 32.083935,11.389734 32.083935,11.389734 C32.083935,11.389734 32.010027,11.094103 32.010027,11.094103 C32.010027,11.094103 31.93612,10.687609 31.93612,10.687609 C31.93612,10.687609 31.899166,10.281116 31.899166,10.281116 C31.899166,10.281116 31.788304,9.874623 31.788304,9.874623 C31.788304,9.874623 31.677442,9.542038 31.677442,9.542038 C31.677442,9.542038 31.640488,9.431176 31.640488,9.431176 C31.640488,9.431176 31.640488,9.357268 31.640488,9.357268 C31.640488,9.357268 31.603534,9.172498 31.603534,9.172498 C31.603534,9.172498 31.492672,8.987729 31.492672,8.987729 C31.492672,8.987729 31.418765,8.876867 31.418765,8.876867 C31.418765,8.876867 31.344857,8.766005 31.344857,8.766005 C31.344857,8.766005 31.197041,8.544282 31.197041,8.544282 C31.197041,8.544282 31.049225,8.285604 31.049225,8.285604 C31.049225,8.285604 30.864456,7.989973 30.864456,7.989973 C30.864456,7.989973 30.605778,7.768249 30.605778,7.768249 C30.605778,7.768249 30.384054,7.583479 30.384054,7.583479 C30.384054,7.583479 30.310147,7.546525 30.310147,7.546525 C30.310147,7.546525 30.310147,7.509571 30.310147,7.509571 C30.310147,7.509571 30.199285,7.472618 30.199285,7.472618 C30.199285,7.472618 29.940607,7.361756 29.940607,7.361756 C29.940607,7.361756 29.644976,7.250894 29.644976,7.250894 C29.644976,7.250894 29.349344,7.140032 29.349344,7.140032 C29.349344,7.140032 29.016759,7.066124 29.016759,7.066124 C29.016759,7.066124 28.64722,6.955263 28.64722,6.955263 C28.64722,6.955263 28.351588,6.918309 28.351588,6.918309 C28.351588,6.918309 28.092911,6.918309 28.092911,6.918309 C28.092911,6.918309 27.797279,6.918309 27.797279,6.918309 C27.797279,6.918309 27.464694,6.918309 27.464694,6.918309 C27.464694,6.918309 27.132109,6.918309 27.132109,6.918309 C27.132109,6.918309 26.725615,6.881355 26.725615,6.881355 C26.725615,6.881355 26.356076,6.807447 26.356076,6.807447 C26.356076,6.807447 25.875675,6.770493 25.875675,6.770493 C25.875675,6.770493 25.284412,6.770493 25.284412,6.770493 C25.284412,6.770493 24.693149,6.733539 24.693149,6.733539 C24.693149,6.733539 24.656195,6.733539 24.656195,6.733539 C24.656195,6.733539 24.471426,6.733539 24.471426,6.733539 C24.471426,6.733539 24.175794,6.696585 24.175794,6.696585 C24.175794,6.696585 23.880163,6.696585 23.880163,6.696585 C23.880163,6.696585 23.510623,6.659631 23.510623,6.659631 C23.510623,6.659631 22.919361,6.585723 22.919361,6.585723 C22.919361,6.585723 22.217236,6.622677 22.217236,6.622677 C22.217236,6.622677 21.662927,6.622677 21.662927,6.622677 C21.662927,6.622677 21.589019,6.622677 21.589019,6.622677 C21.589019,6.622677 21.293388,6.622677 21.293388,6.622677 C21.293388,6.622677 20.960802,6.622677 20.960802,6.622677 C20.960802,6.622677 20.886894,6.622677 20.886894,6.622677 C20.886894,6.622677 20.84994,6.622677 20.84994,6.622677 C20.84994,6.622677 19.81523,6.585723 19.81523,6.585723 L 19.81523,6.585723 ZM28.164099,11.089367C28.164099,11.089367 27.890419,13.23319 27.890419,13.23319 C27.890419,13.23319 26.886927,13.666516 26.886927,13.666516 C26.886927,13.666516 25.929049,13.37003 25.929049,13.37003 C25.929049,13.37003 25.222043,12.777058 25.222043,12.777058 C25.222043,12.777058 25.10801,11.978826 25.10801,11.978826 C25.10801,11.978826 25.222043,11.2034 25.222043,11.2034 C25.222043,11.2034 25.51853,10.792881 25.51853,10.792881 C25.51853,10.792881 26.522021,10.564815 26.522021,10.564815 C26.522021,10.564815 27.41148,10.405168 27.41148,10.405168 C27.41148,10.405168 27.936032,10.313942 27.936032,10.313942 C27.936032,10.313942 28.232518,10.336748 28.232518,10.336748 C28.232518,10.336748 28.300938,10.542008 28.300938,10.542008 C28.300938,10.542008 28.278132,10.678848 28.278132,10.678848 C28.278132,10.678848 28.232518,10.770074 28.232518,10.770074 C28.232518,10.770074 28.209712,10.838494 28.209712,10.838494 C28.209712,10.838494 28.209712,10.861301 28.209712,10.861301 C28.209712,10.861301 28.164099,11.089367 28.164099,11.089367 L 28.164099,11.089367 ZM20.892313,16.776685C20.892313,16.776685 21.269317,16.839519 21.269317,16.839519 C21.269317,16.839519 21.709155,16.996604 21.709155,16.996604 C21.709155,16.996604 22.148994,17.090855 22.148994,17.090855 C22.148994,17.090855 22.525998,17.342191 22.525998,17.342191 C22.525998,17.342191 22.997253,17.687778 22.997253,17.687778 C22.997253,17.687778 23.594176,18.127616 23.594176,18.127616 C23.594176,18.127616 23.876929,18.50462 23.876929,18.50462 C23.876929,18.50462 24.128265,18.81879 24.128265,18.81879 C24.128265,18.81879 24.379602,19.164377 24.379602,19.164377 C24.379602,19.164377 24.662355,19.66705 24.662355,19.66705 C24.662355,19.66705 24.788023,19.949803 24.788023,19.949803 C24.788023,19.949803 25.070776,20.829479 25.070776,20.829479 C25.070776,20.829479 25.13361,21.112232 25.13361,21.112232 C25.13361,21.112232 25.165027,21.363568 25.165027,21.363568 C25.165027,21.363568 25.165027,21.614904 25.165027,21.614904 C25.165027,21.614904 25.165027,21.803406 25.165027,21.803406 C25.165027,21.803406 25.165027,22.054743 25.165027,22.054743 C25.165027,22.054743 25.165027,22.337496 25.165027,22.337496 C25.165027,22.337496 25.13361,22.651666 25.13361,22.651666 C25.13361,22.651666 25.102193,22.997253 25.102193,22.997253 C25.102193,22.997253 25.070776,23.374257 25.070776,23.374257 C25.070776,23.374257 25.039359,23.625593 25.039359,23.625593 C25.039359,23.625593 24.976525,23.908346 24.976525,23.908346 C24.976525,23.908346 24.882274,24.159682 24.882274,24.159682 C24.882274,24.159682 24.756606,24.379602 24.756606,24.379602 C24.756606,24.379602 24.662355,24.630938 24.662355,24.630938 C24.662355,24.630938 24.568104,24.788023 24.568104,24.788023 C24.568104,24.788023 24.536687,24.850857 24.536687,24.850857 C24.536687,24.850857 24.379602,25.102193 24.379602,25.102193 C24.379602,25.102193 24.191099,25.44778 24.191099,25.44778 C24.191099,25.44778 23.97118,25.824784 23.97118,25.824784 C23.97118,25.824784 23.814095,26.07612 23.814095,26.07612 C23.814095,26.07612 23.594176,26.327456 23.594176,26.327456 C23.594176,26.327456 23.374257,26.484541 23.374257,26.484541 C23.374257,26.484541 23.122921,26.70446 23.122921,26.70446 C23.122921,26.70446 22.745917,26.892962 22.745917,26.892962 C22.745917,26.892962 22.274662,27.018631 22.274662,27.018631 C22.274662,27.018631 21.709155,27.175716 21.709155,27.175716 C21.709155,27.175716 21.269317,27.301384 21.269317,27.301384 C21.269317,27.301384 20.955147,27.427052 20.955147,27.427052 C20.955147,27.427052 20.672394,27.55272 20.672394,27.55272 C20.672394,27.55272 20.421058,27.646971 20.421058,27.646971 C20.421058,27.646971 20.106888,27.772639 20.106888,27.772639 C20.106888,27.772639 19.761301,27.929724 19.761301,27.929724 C19.761301,27.929724 19.070126,28.086809 19.070126,28.086809 C19.070126,28.086809 18.693122,28.149643 18.693122,28.149643 C18.693122,28.149643 18.378952,28.212477 18.378952,28.212477 C18.378952,28.212477 18.001948,28.243894 18.001948,28.243894 C18.001948,28.243894 17.719195,28.243894 17.719195,28.243894 C17.719195,28.243894 17.436442,28.212477 17.436442,28.212477 C17.436442,28.212477 17.153689,28.212477 17.153689,28.212477 C17.153689,28.212477 17.122272,28.212477 17.122272,28.212477 C17.122272,28.212477 17.059438,28.149643 17.059438,28.149643 C17.059438,28.149643 16.839519,27.929724 16.839519,27.929724 C16.839519,27.929724 16.588182,27.709805 16.588182,27.709805 C16.588182,27.709805 16.336846,27.55272 16.336846,27.55272 C16.336846,27.55272 16.116927,27.427052 16.116927,27.427052 C16.116927,27.427052 15.991259,27.269967 15.991259,27.269967 C15.991259,27.269967 15.77134,27.050048 15.77134,27.050048 C15.77134,27.050048 15.677089,26.955797 15.677089,26.955797 C15.677089,26.955797 15.520004,26.830128 15.520004,26.830128 C15.520004,26.830128 15.331502,26.578792 15.331502,26.578792 C15.331502,26.578792 15.111583,26.358873 15.111583,26.358873 C15.111583,26.358873 14.923081,26.138954 14.923081,26.138954 C14.923081,26.138954 14.734579,25.950452 14.734579,25.950452 C14.734579,25.950452 14.546077,25.667699 14.546077,25.667699 C14.546077,25.667699 14.357575,25.353529 14.357575,25.353529 C14.357575,25.353529 14.231907,25.039359 14.231907,25.039359 C14.231907,25.039359 14.137656,24.850857 14.137656,24.850857 C14.137656,24.850857 14.106238,24.662355 14.106238,24.662355 C14.106238,24.662355 14.106238,24.599521 14.106238,24.599521 C14.106238,24.599521 14.074821,24.28535 14.074821,24.28535 C14.074821,24.28535 14.043404,23.939763 14.043404,23.939763 C14.043404,23.939763 14.011987,23.625593 14.011987,23.625593 C14.011987,23.625593 13.98057,23.405674 13.98057,23.405674 C13.98057,23.405674 13.98057,23.185755 13.98057,23.185755 C13.98057,23.185755 13.98057,22.965836 13.98057,22.965836 C13.98057,22.965836 13.98057,22.7145 13.98057,22.7145 C13.98057,22.7145 13.949153,22.40033 13.949153,22.40033 C13.949153,22.40033 13.949153,21.929075 13.949153,21.929075 C13.949153,21.929075 13.98057,21.489236 13.98057,21.489236 C13.98057,21.489236 14.011987,21.206483 14.011987,21.206483 C14.011987,21.206483 14.074821,20.955147 14.074821,20.955147 C14.074821,20.955147 14.20049,20.640977 14.20049,20.640977 C14.20049,20.640977 14.326158,20.29539 14.326158,20.29539 C14.326158,20.29539 14.420409,19.98122 14.420409,19.98122 C14.420409,19.98122 14.640328,19.761301 14.640328,19.761301 C14.640328,19.761301 14.797413,19.541382 14.797413,19.541382 C14.797413,19.541382 14.954498,19.290046 14.954498,19.290046 C14.954498,19.290046 15.143,19.038709 15.143,19.038709 C15.143,19.038709 15.331502,18.787373 15.331502,18.787373 C15.331502,18.787373 15.520004,18.567454 15.520004,18.567454 C15.520004,18.567454 15.645672,18.347535 15.645672,18.347535 C15.645672,18.347535 15.865591,18.19045 15.865591,18.19045 C15.865591,18.19045 16.054093,17.970531 16.054093,17.970531 C16.054093,17.970531 16.305429,17.750612 16.305429,17.750612 C16.305429,17.750612 16.588182,17.499276 16.588182,17.499276 C16.588182,17.499276 16.902353,17.279357 16.902353,17.279357 C16.902353,17.279357 17.216523,17.059438 17.216523,17.059438 C17.216523,17.059438 17.436442,16.965187 17.436442,16.965187 C17.436442,16.965187 17.656361,16.839519 17.656361,16.839519 C17.656361,16.839519 17.844863,16.745268 17.844863,16.745268 C17.844863,16.745268 18.064782,16.682433 18.064782,16.682433 C18.064782,16.682433 18.253284,16.651016 18.253284,16.651016 C18.253284,16.651016 18.378952,16.619599 18.378952,16.619599 C18.378952,16.619599 18.567454,16.619599 18.567454,16.619599 C18.567454,16.619599 18.724539,16.588182 18.724539,16.588182 C18.724539,16.588182 18.850207,16.556765 18.850207,16.556765 C18.850207,16.556765 19.007292,16.525348 19.007292,16.525348 C19.007292,16.525348 19.195794,16.462514 19.195794,16.462514 C19.195794,16.462514 19.35288,16.462514 19.35288,16.462514 C19.35288,16.462514 19.447131,16.462514 19.447131,16.462514 C19.447131,16.462514 19.572799,16.462514 19.572799,16.462514 C19.572799,16.462514 19.635633,16.462514 19.635633,16.462514 C19.635633,16.462514 19.698467,16.462514 19.698467,16.462514 C19.698467,16.462514 19.729884,16.462514 19.729884,16.462514 C19.729884,16.462514 19.761301,16.462514 19.761301,16.462514 C19.761301,16.462514 19.792718,16.431097 19.792718,16.431097 C19.792718,16.431097 19.855552,16.431097 19.855552,16.431097 C19.855552,16.431097 19.98122,16.493931 19.98122,16.493931 C19.98122,16.493931 20.075471,16.493931 20.075471,16.493931 C20.075471,16.493931 20.106888,16.493931 20.106888,16.493931 C20.106888,16.493931 20.138305,16.525348 20.138305,16.525348 C20.138305,16.525348 20.169722,16.556765 20.169722,16.556765 C20.169722,16.556765 20.201139,16.556765 20.201139,16.556765 C20.201139,16.556765 20.232556,16.556765 20.232556,16.556765 C20.232556,16.556765 20.263973,16.556765 20.263973,16.556765 C20.263973,16.556765 20.29539,16.556765 20.29539,16.556765 C20.29539,16.556765 20.326807,16.556765 20.326807,16.556765 C20.326807,16.556765 20.326807,16.588182 20.326807,16.588182 C20.326807,16.588182 20.358224,16.619599 20.358224,16.619599 C20.358224,16.619599 20.421058,16.619599 20.421058,16.619599 C20.421058,16.619599 20.452475,16.651016 20.452475,16.651016 C20.452475,16.651016 20.892313,16.776685 20.892313,16.776685 L 20.892313,16.776685 Z" fill="#000000"/>
		</g>
		<g>
			<path d="M20.892313,16.776685L 21.269317,16.839519 L 21.709155,16.996604 L 22.148994,17.090855 L 22.525998,17.342191 L 22.997253,17.687778 L 23.594176,18.127616 L 23.876929,18.50462 L 24.128265,18.81879 L 24.379601,19.164377 L 24.662355,19.66705 L 24.788023,19.949803 L 25.070776,20.829479 L 25.13361,21.112232 L 25.165027,21.363568 L 25.165027,21.614904 L 25.165027,21.803406 L 25.165027,22.054743 L 25.165027,22.337496 L 25.13361,22.651666 L 25.102193,22.997253 L 25.070776,23.374257 L 25.039359,23.625593 L 24.976525,23.908346 L 24.882274,24.159682 L 24.756606,24.379601 L 24.662355,24.630938 L 24.568104,24.788023 L 24.536687,24.850857 L 24.379601,25.102193 L 24.191099,25.44778 L 23.97118,25.824784 L 23.814095,26.07612 L 23.594176,26.327456 L 23.374257,26.484541 L 23.122921,26.70446 L 22.745917,26.892962 L 22.274662,27.018631 L 21.709155,27.175716 L 21.269317,27.301384 L 20.955147,27.427052 L 20.672394,27.55272 L 20.421058,27.646971 L 20.106888,27.772639 L 19.761301,27.929724 L 19.070126,28.086809 L 18.693122,28.149643 L 18.378952,28.212477 L 18.001948,28.243894 L 17.719195,28.243894 L 17.436442,28.212477 L 17.153689,28.212477 L 17.122272,28.212477 L 17.059438,28.149643 L 16.839519,27.929724 L 16.588182,27.709805 L 16.336846,27.55272 L 16.116927,27.427052 L 15.991259,27.269967 L 15.77134,27.050048 L 15.677089,26.955797 L 15.520004,26.830128 L 15.331502,26.578792 L 15.111583,26.358873 L 14.923081,26.138954 L 14.734579,25.950452 L 14.546077,25.667699 L 14.357575,25.353529 L 14.231907,25.039359 L 14.137656,24.850857 L 14.106238,24.662355 L 14.106238,24.599521 L 14.074821,24.28535 L 14.043404,23.939763 L 14.011987,23.625593 L 13.98057,23.405674 L 13.98057,23.185755 L 13.98057,22.965836 L 13.98057,22.7145 L 13.949153,22.40033 L 13.949153,21.929075 L 13.98057,21.489236 L 14.011987,21.206483 L 14.074821,20.955147 L 14.20049,20.640977 L 14.326158,20.29539 L 14.420409,19.98122 L 14.640328,19.761301 L 14.797413,19.541382 L 14.954498,19.290046 L 15.143,19.038709 L 15.331502,18.787373 L 15.520004,18.567454 L 15.645672,18.347535 L 15.865591,18.19045 L 16.054093,17.970531 L 16.305429,17.750612 L 16.588182,17.499276 L 16.902353,17.279357 L 17.216523,17.059438 L 17.436442,16.965187 L 17.656361,16.839519 L 17.844863,16.745268 L 18.064782,16.682433 L 18.253284,16.651016 L 18.378952,16.619599 L 18.567454,16.619599 L 18.724539,16.588182 L 18.850207,16.556765 L 19.007292,16.525348 L 19.195794,16.462514 L 19.35288,16.462514 L 19.447131,16.462514 L 19.572799,16.462514 L 19.635633,16.462514 L 19.698467,16.462514 L 19.729884,16.462514 L 19.761301,16.462514 L 19.792718,16.431097 L 19.855552,16.431097 L 19.98122,16.493931 L 20.075471,16.493931 L 20.106888,16.493931 L 20.138305,16.525348 L 20.169722,16.556765 L 20.201139,16.556765 L 20.232556,16.556765 L 20.263973,16.556765 L 20.29539,16.556765 L 20.326807,16.556765 L 20.326807,16.588182 L 20.358224,16.619599 L 20.421058,16.619599 L 20.452475,16.651016 M20.29539,16.713851L 20.483892,16.745268 L 20.672394,16.776685 L 20.798062,16.776685 L 20.829479,16.776685 L 20.829479,16.808102 L 20.860896,16.808102 L 20.892313,16.808102 L 20.92373,16.808102 " transform="matrix(0.82465457,0,0,0.82465457,3.429246374,3.916777786)" fill="#000000"/>
		</g>
	</g>
</g></g></svg>