<svg xmlns="http://www.w3.org/2000/svg" viewBox="0 0 40 40" width="40" height="40"><defs></defs><g>
<g>
	<g>
		<g transform="matrix(0.047191335,0,0,0.047191335,-5.353467889,-5.356840701)">
			<path d="M217.772981,186.218533C217.772981,186.218533 223.097571,175.497883 223.097571,175.497883 C223.097571,175.497883 220.435276,172.81772 220.435276,172.81772 C220.435276,172.81772 217.772981,172.81772 217.772981,172.81772 C217.772981,172.81772 215.110686,172.81772 215.110686,172.81772 C215.110686,172.81772 212.448391,172.81772 212.448391,172.81772 C212.448391,172.81772 209.786096,172.81772 209.786096,172.81772 C209.786096,172.81772 207.123802,172.81772 207.123802,172.81772 C207.123802,172.81772 204.461507,172.81772 204.461507,172.81772 C204.461507,172.81772 199.136917,172.81772 199.136917,172.81772 C199.136917,172.81772 196.474622,172.81772 196.474622,172.81772 C196.474622,172.81772 193.812327,172.81772 193.812327,172.81772 C193.812327,172.81772 188.487737,172.81772 188.487737,172.81772 C188.487737,172.81772 183.163148,172.81772 183.163148,172.81772 C183.163148,172.81772 177.838558,172.81772 177.838558,172.81772 C177.838558,172.81772 172.513968,172.81772 172.513968,172.81772 C172.513968,172.81772 167.189378,178.178045 167.189378,178.178045 C167.189378,178.178045 164.527084,183.53837 164.527084,183.53837 C164.527084,183.53837 159.202494,183.53837 159.202494,183.53837 C159.202494,183.53837 153.877904,183.53837 153.877904,183.53837 C153.877904,183.53837 148.553314,183.53837 148.553314,183.53837 C148.553314,183.53837 143.228724,183.53837 143.228724,183.53837 C143.228724,183.53837 140.56643,183.53837 140.56643,183.53837 C140.56643,183.53837 135.24184,183.53837 135.24184,183.53837 C135.24184,183.53837 132.579545,183.53837 132.579545,183.53837 C132.579545,183.53837 129.91725,183.53837 129.91725,183.53837 C129.91725,183.53837 129.91725,188.898696 129.91725,188.898696 C129.91725,188.898696 129.91725,194.259021 129.91725,194.259021 C129.91725,194.259021 129.91725,196.939184 129.91725,196.939184 C129.91725,196.939184 129.91725,204.979671 129.91725,204.979671 C129.91725,204.979671 129.91725,210.339997 129.91725,210.339997 C129.91725,210.339997 129.91725,223.74081 129.91725,223.74081 C129.91725,223.74081 129.91725,253.222599 129.91725,253.222599 C129.91725,253.222599 127.254955,296.105201 127.254955,296.105201 C127.254955,296.105201 127.254955,336.30764 127.254955,336.30764 C127.254955,336.30764 127.254955,371.149754 127.254955,371.149754 C127.254955,371.149754 127.254955,405.991869 127.254955,405.991869 C127.254955,405.991869 127.254955,435.473657 127.254955,435.473657 C127.254955,435.473657 127.254955,456.914959 127.254955,456.914959 C127.254955,456.914959 127.254955,475.676097 127.254955,475.676097 C127.254955,475.676097 127.254955,513.198374 127.254955,513.198374 C127.254955,513.198374 127.254955,545.360325 127.254955,545.360325 C127.254955,545.360325 129.91725,580.202439 129.91725,580.202439 C129.91725,580.202439 132.579545,617.724716 132.579545,617.724716 C132.579545,617.724716 135.24184,644.526343 135.24184,644.526343 C135.24184,644.526343 135.24184,655.246993 135.24184,655.246993 C135.24184,655.246993 137.904135,655.246993 137.904135,655.246993 C137.904135,655.246993 143.228724,684.728782 143.228724,684.728782 C143.228724,684.728782 143.228724,716.890733 143.228724,716.890733 C143.228724,716.890733 143.228724,735.651872 143.228724,735.651872 C143.228724,735.651872 143.228724,754.41301 143.228724,754.41301 C143.228724,754.41301 143.228724,770.493986 143.228724,770.493986 C143.228724,770.493986 143.228724,778.534474 143.228724,778.534474 C143.228724,778.534474 143.228724,810.696425 143.228724,810.696425 C143.228724,810.696425 148.553314,861.619515 148.553314,861.619515 C148.553314,861.619515 153.877904,917.902931 153.877904,917.902931 C153.877904,917.902931 156.540199,933.983906 156.540199,933.983906 C156.540199,933.983906 161.864789,933.983906 161.864789,933.983906 C161.864789,933.983906 172.513968,931.303744 172.513968,931.303744 C172.513968,931.303744 183.163148,925.943418 183.163148,925.943418 C183.163148,925.943418 188.487737,925.943418 188.487737,925.943418 C188.487737,925.943418 191.150032,925.943418 191.150032,925.943418 C191.150032,925.943418 196.474622,925.943418 196.474622,925.943418 C196.474622,925.943418 209.786096,925.943418 209.786096,925.943418 C209.786096,925.943418 228.422161,925.943418 228.422161,925.943418 C228.422161,925.943418 241.733635,925.943418 241.733635,925.943418 C241.733635,925.943418 257.707404,925.943418 257.707404,925.943418 C257.707404,925.943418 279.005763,925.943418 279.005763,925.943418 C279.005763,925.943418 302.966417,925.943418 302.966417,925.943418 C302.966417,925.943418 324.264776,925.943418 324.264776,925.943418 C324.264776,925.943418 345.563135,925.943418 345.563135,925.943418 C345.563135,925.943418 374.848379,928.623581 374.848379,928.623581 C374.848379,928.623581 414.782802,931.303744 414.782802,931.303744 C414.782802,931.303744 444.068046,931.303744 444.068046,931.303744 C444.068046,931.303744 462.70411,931.303744 462.70411,931.303744 C462.70411,931.303744 499.976238,931.303744 499.976238,931.303744 C499.976238,931.303744 529.261482,931.303744 529.261482,931.303744 C529.261482,931.303744 582.507379,936.664069 582.507379,936.664069 C582.507379,936.664069 630.428687,939.344232 630.428687,939.344232 C630.428687,939.344232 681.01229,939.344232 681.01229,939.344232 C681.01229,939.344232 744.907367,942.024394 744.907367,942.024394 C744.907367,942.024394 776.854905,942.024394 776.854905,942.024394 C776.854905,942.024394 854.061457,936.664069 854.061457,936.664069 C854.061457,936.664069 909.969649,925.943418 909.969649,925.943418 C909.969649,925.943418 936.592598,925.943418 936.592598,925.943418 C936.592598,925.943418 947.241778,923.263256 947.241778,923.263256 C947.241778,923.263256 947.241778,920.583093 947.241778,920.583093 C947.241778,920.583093 944.579483,915.222768 944.579483,915.222768 C944.579483,915.222768 941.917188,901.821955 941.917188,901.821955 C941.917188,901.821955 941.917188,883.060816 941.917188,883.060816 C941.917188,883.060816 941.917188,875.020329 941.917188,875.020329 C941.917188,875.020329 941.917188,869.660003 941.917188,869.660003 C941.917188,869.660003 941.917188,864.299678 941.917188,864.299678 C941.917188,864.299678 941.917188,848.218702 941.917188,848.218702 C941.917188,848.218702 941.917188,832.137726 941.917188,832.137726 C941.917188,832.137726 941.917188,824.097239 941.917188,824.097239 C941.917188,824.097239 941.917188,818.736913 941.917188,818.736913 C941.917188,818.736913 941.917188,808.016263 941.917188,808.016263 C941.917188,808.016263 936.592598,789.255124 936.592598,789.255124 C936.592598,789.255124 936.592598,770.493986 936.592598,770.493986 C936.592598,770.493986 933.930303,746.372522 933.930303,746.372522 C933.930303,746.372522 928.605713,714.210571 928.605713,714.210571 C928.605713,714.210571 923.281124,679.368457 923.281124,679.368457 C923.281124,679.368457 923.281124,660.607318 923.281124,660.607318 C923.281124,660.607318 923.281124,641.84618 923.281124,641.84618 C923.281124,641.84618 923.281124,628.445367 923.281124,628.445367 C923.281124,628.445367 923.281124,612.364391 923.281124,612.364391 C923.281124,612.364391 923.281124,604.323903 923.281124,604.323903 C923.281124,604.323903 923.281124,598.963578 923.281124,598.963578 C923.281124,598.963578 923.281124,585.562765 923.281124,585.562765 C923.281124,585.562765 923.281124,545.360325 923.281124,545.360325 C923.281124,545.360325 920.618829,499.797561 920.618829,499.797561 C920.618829,499.797561 925.943418,454.234796 925.943418,454.234796 C925.943418,454.234796 931.268008,446.194308 931.268008,446.194308 C931.268008,446.194308 928.605713,438.15382 928.605713,438.15382 C928.605713,438.15382 923.281124,416.712519 923.281124,416.712519 C923.281124,416.712519 912.631944,379.190242 912.631944,379.190242 C912.631944,379.190242 901.982765,328.267152 901.982765,328.267152 C901.982765,328.267152 891.333585,282.704388 891.333585,282.704388 C891.333585,282.704388 883.3467,258.582924 883.3467,258.582924 C883.3467,258.582924 878.022111,231.781298 878.022111,231.781298 C878.022111,231.781298 872.697521,207.659834 872.697521,207.659834 C872.697521,207.659834 864.710636,186.218533 864.710636,186.218533 C864.710636,186.218533 864.710636,170.137557 864.710636,170.137557 C864.710636,170.137557 862.048341,159.416907 862.048341,159.416907 C862.048341,159.416907 854.061457,154.056582 854.061457,154.056582 C854.061457,154.056582 840.749982,146.016094 840.749982,146.016094 C840.749982,146.016094 827.438508,143.335931 827.438508,143.335931 C827.438508,143.335931 806.140149,140.655768 806.140149,140.655768 C806.140149,140.655768 784.84179,137.975606 784.84179,137.975606 C784.84179,137.975606 752.894251,137.975606 752.894251,137.975606 C752.894251,137.975606 710.297533,140.655768 710.297533,140.655768 C710.297533,140.655768 675.6877,143.335931 675.6877,143.335931 C675.6877,143.335931 625.104097,143.335931 625.104097,143.335931 C625.104097,143.335931 563.871315,143.335931 563.871315,143.335931 C563.871315,143.335931 502.638533,148.696256 502.638533,148.696256 C502.638533,148.696256 497.313943,148.696256 497.313943,148.696256 C497.313943,148.696256 473.353289,148.696256 473.353289,148.696256 C473.353289,148.696256 441.405751,151.376419 441.405751,151.376419 C441.405751,151.376419 398.809033,156.736744 398.809033,156.736744 C398.809033,156.736744 350.887725,164.777232 350.887725,164.777232 C350.887725,164.777232 217.772981,186.218533 217.772981,186.218533 L 217.772981,186.218533 ZM321.566746,253.182257C321.566746,253.182257 357.723421,254.758178 357.723421,254.758178 C357.723421,254.758178 376.634481,273.669238 376.634481,273.669238 C376.634481,273.669238 392.393698,297.308063 392.393698,297.308063 C392.393698,297.308063 392.393698,327.250575 392.393698,327.250575 C392.393698,327.250575 379.786324,358.769008 379.786324,358.769008 C379.786324,358.769008 356.980222,388.71152 356.980222,388.71152 C356.980222,388.71152 321.566746,401.318893 321.566746,401.318893 C321.566746,401.318893 289.958789,401.318893 289.958789,401.318893 C289.958789,401.318893 267.895886,401.318893 267.895886,401.318893 C267.895886,401.318893 231.781298,385.559677 231.781298,385.559677 C231.781298,385.559677 215.890471,361.920852 215.890471,361.920852 C215.890471,361.920852 215.890471,327.250575 215.890471,327.250575 C215.890471,327.250575 215.890471,294.15622 215.890471,294.15622 C215.890471,294.15622 224.400448,274.614791 224.400448,274.614791 C224.400448,274.614791 237.63819,259.485943 237.63819,259.485943 C237.63819,259.485943 264.113674,246.248201 264.113674,246.248201 C264.113674,246.248201 293.110633,246.248201 293.110633,246.248201 C293.110633,246.248201 321.566746,253.182257 321.566746,253.182257 L 321.566746,253.182257 ZM237.141623,464.955446C237.141623,464.955446 231.781298,454.234796 231.781298,454.234796 C231.781298,454.234796 234.46146,454.234796 234.46146,454.234796 C234.46146,454.234796 237.141623,454.234796 237.141623,454.234796 C237.141623,454.234796 242.501948,454.234796 242.501948,454.234796 C242.501948,454.234796 250.542436,454.234796 250.542436,454.234796 C250.542436,454.234796 253.222599,454.234796 253.222599,454.234796 C253.222599,454.234796 255.902761,454.234796 255.902761,454.234796 C255.902761,454.234796 258.582924,454.234796 258.582924,454.234796 C258.582924,454.234796 261.263087,454.234796 261.263087,454.234796 C261.263087,454.234796 266.623412,454.234796 266.623412,454.234796 C266.623412,454.234796 282.704388,454.234796 282.704388,454.234796 C282.704388,454.234796 298.785363,454.234796 298.785363,454.234796 C298.785363,454.234796 306.825851,454.234796 306.825851,454.234796 C306.825851,454.234796 312.186177,454.234796 312.186177,454.234796 C312.186177,454.234796 320.226664,454.234796 320.226664,454.234796 C320.226664,454.234796 330.947315,459.595121 330.947315,459.595121 C330.947315,459.595121 347.028291,462.275284 347.028291,462.275284 C347.028291,462.275284 357.748941,470.315772 357.748941,470.315772 C357.748941,470.315772 365.789429,475.676097 365.789429,475.676097 C365.789429,475.676097 379.190242,481.036422 379.190242,481.036422 C379.190242,481.036422 392.591055,486.396747 392.591055,486.396747 C392.591055,486.396747 392.591055,489.07691 392.591055,489.07691 C392.591055,489.07691 397.951381,491.757073 397.951381,491.757073 C397.951381,491.757073 397.951381,494.437235 397.951381,494.437235 C397.951381,494.437235 397.951381,499.797561 397.951381,499.797561 C397.951381,499.797561 400.631543,515.878536 400.631543,515.878536 C400.631543,515.878536 400.631543,531.959512 400.631543,531.959512 C400.631543,531.959512 405.991869,542.680163 405.991869,542.680163 C405.991869,542.680163 405.991869,548.040488 405.991869,548.040488 C405.991869,548.040488 405.991869,558.761138 405.991869,558.761138 C405.991869,558.761138 411.352194,574.842114 411.352194,574.842114 C411.352194,574.842114 411.352194,590.92309 411.352194,590.92309 C411.352194,590.92309 411.352194,598.963578 411.352194,598.963578 C411.352194,598.963578 411.352194,620.404879 411.352194,620.404879 C411.352194,620.404879 411.352194,631.125529 411.352194,631.125529 C411.352194,631.125529 411.352194,639.166017 411.352194,639.166017 C411.352194,639.166017 411.352194,660.607318 411.352194,660.607318 C411.352194,660.607318 411.352194,676.688294 411.352194,676.688294 C411.352194,676.688294 411.352194,692.76927 411.352194,692.76927 C411.352194,692.76927 405.991869,719.570896 405.991869,719.570896 C405.991869,719.570896 405.991869,732.971709 405.991869,732.971709 C405.991869,732.971709 405.991869,749.052685 405.991869,749.052685 C405.991869,749.052685 403.311706,759.773336 403.311706,759.773336 C403.311706,759.773336 403.311706,789.255124 403.311706,789.255124 C403.311706,789.255124 400.631543,824.097239 400.631543,824.097239 C400.631543,824.097239 400.631543,837.498052 400.631543,837.498052 C400.631543,837.498052 400.631543,845.53854 400.631543,845.53854 C400.631543,845.53854 397.951381,845.53854 397.951381,845.53854 C397.951381,845.53854 392.591055,845.53854 392.591055,845.53854 C392.591055,845.53854 373.829917,845.53854 373.829917,845.53854 C373.829917,845.53854 360.429104,845.53854 360.429104,845.53854 C360.429104,845.53854 344.348128,845.53854 344.348128,845.53854 C344.348128,845.53854 333.627478,845.53854 333.627478,845.53854 C333.627478,845.53854 317.546502,845.53854 317.546502,845.53854 C317.546502,845.53854 301.465526,845.53854 301.465526,845.53854 C301.465526,845.53854 285.38455,845.53854 285.38455,845.53854 C285.38455,845.53854 271.983737,845.53854 271.983737,845.53854 C271.983737,845.53854 261.263087,845.53854 261.263087,845.53854 C261.263087,845.53854 255.902761,845.53854 255.902761,845.53854 C255.902761,845.53854 255.902761,842.858377 255.902761,842.858377 C255.902761,842.858377 255.902761,834.817889 255.902761,834.817889 C255.902761,834.817889 255.902761,824.097239 255.902761,824.097239 C255.902761,824.097239 255.902761,802.655938 255.902761,802.655938 C255.902761,802.655938 255.902761,789.255124 255.902761,789.255124 C255.902761,789.255124 255.902761,770.493986 255.902761,770.493986 C255.902761,770.493986 255.902761,746.372522 255.902761,746.372522 C255.902761,746.372522 255.902761,716.890733 255.902761,716.890733 C255.902761,716.890733 255.902761,695.449432 255.902761,695.449432 C255.902761,695.449432 253.222599,665.967644 253.222599,665.967644 C253.222599,665.967644 245.182111,639.166017 245.182111,639.166017 C245.182111,639.166017 239.821786,620.404879 239.821786,620.404879 C239.821786,620.404879 237.141623,593.603253 237.141623,593.603253 C237.141623,593.603253 237.141623,577.522277 237.141623,577.522277 C237.141623,577.522277 237.141623,561.441301 237.141623,561.441301 C237.141623,561.441301 237.141623,531.959512 237.141623,531.959512 C237.141623,531.959512 237.141623,507.838048 237.141623,507.838048 C237.141623,507.838048 237.141623,464.955446 237.141623,464.955446 L 237.141623,464.955446 ZM475.676097,483.716585C475.676097,483.716585 481.036422,489.07691 481.036422,489.07691 C481.036422,489.07691 481.036422,486.396747 481.036422,486.396747 C481.036422,486.396747 481.036422,483.716585 481.036422,483.716585 C481.036422,483.716585 481.036422,481.036422 481.036422,481.036422 C481.036422,481.036422 481.036422,478.35626 481.036422,478.35626 C481.036422,478.35626 481.036422,475.676097 481.036422,475.676097 C481.036422,475.676097 481.036422,472.995934 481.036422,472.995934 C481.036422,472.995934 481.036422,470.315772 481.036422,470.315772 C481.036422,470.315772 481.036422,462.275284 481.036422,462.275284 C481.036422,462.275284 481.036422,459.595121 481.036422,459.595121 C481.036422,459.595121 481.036422,456.914959 481.036422,456.914959 C481.036422,456.914959 483.716585,454.234796 483.716585,454.234796 C483.716585,454.234796 483.716585,451.554633 483.716585,451.554633 C483.716585,451.554633 489.07691,448.874471 489.07691,448.874471 C489.07691,448.874471 497.117398,443.514145 497.117398,443.514145 C497.117398,443.514145 505.157886,438.15382 505.157886,438.15382 C505.157886,438.15382 507.838048,438.15382 507.838048,438.15382 C507.838048,438.15382 513.198374,438.15382 513.198374,438.15382 C513.198374,438.15382 521.238862,438.15382 521.238862,438.15382 C521.238862,438.15382 550.720651,451.554633 550.720651,451.554633 C550.720651,451.554633 561.441301,462.275284 561.441301,462.275284 C561.441301,462.275284 566.801626,464.955446 566.801626,464.955446 C566.801626,464.955446 566.801626,470.315772 566.801626,470.315772 C566.801626,470.315772 566.801626,475.676097 566.801626,475.676097 C566.801626,475.676097 566.801626,483.716585 566.801626,483.716585 C566.801626,483.716585 569.481789,489.07691 569.481789,489.07691 C569.481789,489.07691 572.161952,502.477723 572.161952,502.477723 C572.161952,502.477723 572.161952,505.157886 572.161952,505.157886 C572.161952,505.157886 574.842114,505.157886 574.842114,505.157886 C574.842114,505.157886 574.842114,502.477723 574.842114,502.477723 C574.842114,502.477723 577.522277,497.117398 577.522277,497.117398 C577.522277,497.117398 580.202439,494.437235 580.202439,494.437235 C580.202439,494.437235 582.882602,491.757073 582.882602,491.757073 C582.882602,491.757073 585.562765,486.396747 585.562765,486.396747 C585.562765,486.396747 588.242927,483.716585 588.242927,483.716585 C588.242927,483.716585 590.92309,481.036422 590.92309,481.036422 C590.92309,481.036422 590.92309,478.35626 590.92309,478.35626 C590.92309,478.35626 593.603253,478.35626 593.603253,478.35626 C593.603253,478.35626 596.283415,475.676097 596.283415,475.676097 C596.283415,475.676097 607.004066,472.995934 607.004066,472.995934 C607.004066,472.995934 620.404879,467.635609 620.404879,467.635609 C620.404879,467.635609 641.84618,462.275284 641.84618,462.275284 C641.84618,462.275284 671.327969,454.234796 671.327969,454.234796 C671.327969,454.234796 695.449432,454.234796 695.449432,454.234796 C695.449432,454.234796 714.210571,454.234796 714.210571,454.234796 C714.210571,454.234796 730.291547,459.595121 730.291547,459.595121 C730.291547,459.595121 757.093173,470.315772 757.093173,470.315772 C757.093173,470.315772 791.935287,483.716585 791.935287,483.716585 C791.935287,483.716585 816.056751,497.117398 816.056751,497.117398 C816.056751,497.117398 826.777401,502.477723 826.777401,502.477723 C826.777401,502.477723 834.817889,510.518211 834.817889,510.518211 C834.817889,510.518211 837.498052,510.518211 837.498052,510.518211 C837.498052,510.518211 837.498052,513.198374 837.498052,513.198374 C837.498052,513.198374 837.498052,518.558699 837.498052,518.558699 C837.498052,518.558699 840.178214,531.959512 840.178214,531.959512 C840.178214,531.959512 840.178214,542.680163 840.178214,542.680163 C840.178214,542.680163 840.178214,548.040488 840.178214,548.040488 C840.178214,548.040488 840.178214,556.080976 840.178214,556.080976 C840.178214,556.080976 842.858377,572.161952 842.858377,572.161952 C842.858377,572.161952 842.858377,609.684228 842.858377,609.684228 C842.858377,609.684228 842.858377,633.805692 842.858377,633.805692 C842.858377,633.805692 842.858377,655.246993 842.858377,655.246993 C842.858377,655.246993 842.858377,671.327969 842.858377,671.327969 C842.858377,671.327969 842.858377,692.76927 842.858377,692.76927 C842.858377,692.76927 842.858377,716.890733 842.858377,716.890733 C842.858377,716.890733 842.858377,741.012197 842.858377,741.012197 C842.858377,741.012197 845.53854,759.773336 845.53854,759.773336 C845.53854,759.773336 848.218702,775.854311 848.218702,775.854311 C848.218702,775.854311 850.898865,789.255124 850.898865,789.255124 C850.898865,789.255124 850.898865,805.3361 850.898865,805.3361 C850.898865,805.3361 853.579028,821.417076 853.579028,821.417076 C853.579028,821.417076 853.579028,834.817889 853.579028,834.817889 C853.579028,834.817889 853.579028,837.498052 853.579028,837.498052 C853.579028,837.498052 845.53854,834.817889 845.53854,834.817889 C845.53854,834.817889 829.457564,834.817889 829.457564,834.817889 C829.457564,834.817889 810.696425,829.457564 810.696425,829.457564 C810.696425,829.457564 799.975775,829.457564 799.975775,829.457564 C799.975775,829.457564 786.574962,829.457564 786.574962,829.457564 C786.574962,829.457564 783.894799,829.457564 783.894799,829.457564 C783.894799,829.457564 781.214637,829.457564 781.214637,829.457564 C781.214637,829.457564 781.214637,826.777401 781.214637,826.777401 C781.214637,826.777401 781.214637,821.417076 781.214637,821.417076 C781.214637,821.417076 781.214637,810.696425 781.214637,810.696425 C781.214637,810.696425 781.214637,786.574962 781.214637,786.574962 C781.214637,786.574962 770.493986,730.291547 770.493986,730.291547 C770.493986,730.291547 762.453498,703.48992 762.453498,703.48992 C762.453498,703.48992 754.41301,674.008131 754.41301,674.008131 C754.41301,674.008131 743.69236,652.56683 743.69236,652.56683 C743.69236,652.56683 727.611384,625.765204 727.611384,625.765204 C727.611384,625.765204 708.850246,596.283415 708.850246,596.283415 C708.850246,596.283415 692.76927,577.522277 692.76927,577.522277 C692.76927,577.522277 679.368457,564.121464 679.368457,564.121464 C679.368457,564.121464 665.967644,550.720651 665.967644,550.720651 C665.967644,550.720651 647.206505,540 647.206505,540 C647.206505,540 631.125529,537.319837 631.125529,537.319837 C631.125529,537.319837 615.044554,537.319837 615.044554,537.319837 C615.044554,537.319837 609.684228,540 609.684228,540 C609.684228,540 601.64374,548.040488 601.64374,548.040488 C601.64374,548.040488 593.603253,561.441301 593.603253,561.441301 C593.603253,561.441301 588.242927,574.842114 588.242927,574.842114 C588.242927,574.842114 585.562765,590.92309 585.562765,590.92309 C585.562765,590.92309 580.202439,612.364391 580.202439,612.364391 C580.202439,612.364391 580.202439,628.445367 580.202439,628.445367 C580.202439,628.445367 577.522277,652.56683 577.522277,652.56683 C577.522277,652.56683 574.842114,674.008131 574.842114,674.008131 C574.842114,674.008131 572.161952,690.089107 572.161952,690.089107 C572.161952,690.089107 572.161952,700.809758 572.161952,700.809758 C572.161952,700.809758 572.161952,708.850246 572.161952,708.850246 C572.161952,708.850246 572.161952,722.251059 572.161952,722.251059 C572.161952,722.251059 572.161952,738.332035 572.161952,738.332035 C572.161952,738.332035 572.161952,762.453498 572.161952,762.453498 C572.161952,762.453498 574.842114,781.214637 574.842114,781.214637 C574.842114,781.214637 574.842114,789.255124 574.842114,789.255124 C574.842114,789.255124 577.522277,794.61545 577.522277,794.61545 C577.522277,794.61545 577.522277,802.655938 577.522277,802.655938 C577.522277,802.655938 577.522277,808.016263 577.522277,808.016263 C577.522277,808.016263 577.522277,816.056751 577.522277,816.056751 C577.522277,816.056751 577.522277,826.777401 577.522277,826.777401 C577.522277,826.777401 574.842114,837.498052 574.842114,837.498052 C574.842114,837.498052 574.842114,842.858377 574.842114,842.858377 C574.842114,842.858377 572.161952,842.858377 572.161952,842.858377 C572.161952,842.858377 566.801626,842.858377 566.801626,842.858377 C566.801626,842.858377 558.761138,842.858377 558.761138,842.858377 C558.761138,842.858377 542.680163,842.858377 542.680163,842.858377 C542.680163,842.858377 531.959512,842.858377 531.959512,842.858377 C531.959512,842.858377 518.558699,842.858377 518.558699,842.858377 C518.558699,842.858377 515.878536,842.858377 515.878536,842.858377 C515.878536,842.858377 513.198374,842.858377 513.198374,842.858377 C513.198374,842.858377 513.198374,840.178214 513.198374,840.178214 C513.198374,840.178214 513.198374,837.498052 513.198374,837.498052 C513.198374,837.498052 513.198374,826.777401 513.198374,826.777401 C513.198374,826.777401 513.198374,805.3361 513.198374,805.3361 C513.198374,805.3361 510.518211,773.174149 510.518211,773.174149 C510.518211,773.174149 507.838048,743.69236 507.838048,743.69236 C507.838048,743.69236 505.157886,714.210571 505.157886,714.210571 C505.157886,714.210571 499.797561,687.408945 499.797561,687.408945 C499.797561,687.408945 497.117398,660.607318 497.117398,660.607318 C497.117398,660.607318 489.07691,633.805692 489.07691,633.805692 C489.07691,633.805692 486.396747,604.323903 486.396747,604.323903 C486.396747,604.323903 481.036422,577.522277 481.036422,577.522277 C481.036422,577.522277 481.036422,545.360325 481.036422,545.360325 C481.036422,545.360325 478.35626,518.558699 478.35626,518.558699 C478.35626,518.558699 478.35626,499.797561 478.35626,499.797561 C478.35626,499.797561 475.676097,483.716585 475.676097,483.716585 L 475.676097,483.716585 Z" fill="none" stroke="#000000" stroke-width="20"/>
		</g>
	</g>
</g></g></svg>