<svg xmlns="http://www.w3.org/2000/svg" viewBox="0 0 1000 1000" width="1000" height="1000"><defs></defs><g>
<g>
	<g>
		<g>
			<path d="M172,816L 180,816 L 188,816 L 198,816 L 210,816 L 236,816 L 260,818 L 282,818 L 304,818 L 330,818 L 346,818 L 372,818 L 388,818 L 408,818 L 428,818 L 448,816 L 466,814 L 488,810 L 504,810 L 524,808 L 542,806 L 558,804 L 572,802 L 590,802 L 606,802 L 622,802 L 632,800 L 646,798 L 660,798 L 672,798 L 682,798 L 692,798 L 700,798 L 710,796 L 720,796 L 732,794 L 748,792 L 758,790 L 764,790 L 772,790 L 778,790 L 784,788 L 790,788 L 794,786 L 800,784 L 810,782 L 820,778 L 826,776 L 830,770 L 836,766 L 840,760 L 846,752 L 852,744 L 858,736 L 860,730 L 860,726 L 860,714 L 860,698 L 860,680 L 860,664 L 860,652 L 860,638 L 860,624 L 862,608 L 862,592 L 864,580 L 864,566 L 864,556 L 864,540 L 864,530 L 864,514 L 864,500 L 864,490 L 862,474 L 860,458 L 858,448 L 858,436 L 856,426 L 856,416 L 854,400 L 852,390 L 850,376 L 850,366 L 848,360 L 846,354 L 844,346 L 842,334 L 840,324 L 838,312 L 836,306 L 834,296 L 834,290 L 832,282 L 830,274 L 830,268 L 826,260 L 824,256 L 822,252 L 820,250 L 818,248 L 818,246 L 814,244 L 810,240 L 802,236 L 792,234 L 784,230 L 780,228 L 774,226 L 768,226 L 762,224 L 756,224 L 752,224 L 746,224 L 744,224 L 742,224 L 738,224 L 736,224 L 730,224 L 724,224 L 720,224 L 710,220 L 702,220 L 692,220 L 680,220 L 668,218 L 656,218 L 642,216 L 628,216 L 616,216 L 604,216 L 588,216 L 580,216 L 564,214 L 554,212 L 546,212 L 536,212 L 528,212 L 520,212 L 506,212 L 494,212 L 486,212 L 474,212 L 460,212 L 448,212 L 434,210 L 420,210 L 408,210 L 394,210 L 382,210 L 370,212 L 362,212 L 350,212 L 340,212 L 330,212 L 318,212 L 306,212 L 296,212 L 280,212 L 268,212 L 256,210 L 242,208 L 236,206 L 224,206 L 218,206 L 212,206 L 208,206 L 200,206 L 196,206 L 192,208 L 188,210 L 186,212 L 180,220 L 176,226 L 174,230 L 170,238 L 164,248 L 162,254 L 160,264 L 156,272 L 154,280 L 152,288 L 148,296 L 144,304 L 142,314 L 140,320 L 136,330 L 134,338 L 134,346 L 134,354 L 134,366 L 134,372 L 134,376 L 136,376 L 136,378 L 138,388 L 138,400 L 138,412 L 140,422 L 140,432 L 142,444 L 142,454 L 142,464 L 144,474 L 144,486 L 144,498 L 144,508 L 144,520 L 144,532 L 144,548 L 144,560 L 146,570 L 146,580 L 146,592 L 146,606 L 146,616 L 146,628 L 148,644 L 148,656 L 148,664 L 148,678 L 148,684 L 148,690 L 148,694 L 148,698 L 148,704 L 148,710 L 146,716 L 146,724 L 146,732 L 146,738 L 146,744 L 146,750 L 146,754 L 146,758 L 146,762 L 146,764 L 146,766 L 146,768 L 146,770 L 146,772 L 146,774 L 146,776 L 146,778 L 146,780 L 146,782 L 146,784 L 148,786 L 148,788 L 150,790 L 152,792 L 152,796 L 152,798 L 154,798 L 154,800 L 156,804 L 156,806 L 158,808 L 158,810 L 158,812 L 158,814 L 158,816 L 160,816 L 162,816 L 162,814 L 164,814 L 166,812 L 166,810 L 168,810 " transform="matrix(1.271898932,0,0,1.271898932,-134.677567257,-151.212253378)" fill="none" stroke="#000000" stroke-width="25"/>
		</g>
		<g>
			<path d="M184.615385,204.048583L 186.234818,207.287449 L 192.712551,215.384615 L 197.57085,223.481781 L 202.42915,231.578947 L 207.287449,241.295547 L 210.526316,247.773279 L 217.004049,257.489879 L 221.862348,267.206478 L 226.720648,280.161943 L 231.578947,291.497976 L 236.437247,299.595142 L 242.91498,310.931174 L 247.773279,319.02834 L 254.251012,330.364372 L 262.348178,344.939271 L 268.825911,356.275304 L 276.923077,367.611336 L 283.40081,378.947368 L 289.878543,387.044534 L 299.595142,398.380567 L 306.072874,406.477733 L 312.550607,414.574899 L 319.02834,422.672065 L 327.125506,432.388664 L 333.603239,442.105263 L 338.461538,450.202429 L 344.939271,456.680162 L 349.797571,461.538462 L 361.133603,474.493927 L 367.611336,482.591093 L 372.469636,487.449393 L 375.708502,490.688259 L 378.947368,495.546559 L 383.805668,500.404858 L 388.663968,505.263158 L 393.522267,510.121457 L 396.761134,513.360324 L 400,516.59919 L 403.238866,519.838057 L 408.097166,524.696356 L 412.955466,527.935223 L 416.194332,531.174089 L 421.052632,534.412955 L 424.291498,536.032389 L 427.530364,537.651822 L 432.388664,539.271255 L 437.246964,542.510121 L 440.48583,544.129555 L 445.34413,545.748988 L 446.963563,547.368421 L 450.202429,548.987854 L 453.441296,550.607287 L 455.060729,550.607287 L 456.680162,550.607287 L 458.299595,550.607287 L 463.157895,550.607287 L 466.396761,550.607287 L 471.255061,550.607287 L 476.11336,548.987854 L 480.97166,547.368421 L 487.449393,544.129555 L 492.307692,542.510121 L 500.404858,540.890688 L 505.263158,539.271255 L 510.121457,536.032389 L 518.218623,532.793522 L 524.696356,529.554656 L 531.174089,526.315789 L 537.651822,523.076923 L 544.129555,519.838057 L 553.846154,514.979757 L 563.562753,510.121457 L 570.040486,506.882591 L 574.898785,503.643725 L 579.757085,500.404858 L 584.615385,497.165992 L 591.093117,492.307692 L 597.57085,487.449393 L 604.048583,484.210526 L 610.526316,480.97166 L 615.384615,476.11336 L 621.862348,469.635628 L 626.720648,463.157895 L 634.817814,456.680162 L 644.534413,450.202429 L 655.870445,437.246964 L 665.587045,424.291498 L 675.303644,412.955466 L 685.020243,401.619433 L 706.072874,383.805668 L 714.17004,375.708502 L 722.267206,365.991903 L 730.364372,357.894737 L 740.080972,346.558704 L 746.558704,340.080972 L 751.417004,333.603239 L 759.51417,323.88664 L 764.37247,319.02834 L 769.230769,312.550607 L 774.089069,306.072874 L 780.566802,297.975709 L 783.805668,289.878543 L 787.044534,283.40081 L 791.902834,275.303644 L 793.522267,272.064777 L 795.1417,268.825911 L 796.761134,265.587045 L 798.380567,262.348178 L 800,260.728745 L 801.619433,257.489879 L 804.8583,255.870445 L 804.8583,254.251012 L 806.477733,252.631579 L 806.477733,251.012146 L 808.097166,251.012146 L 809.716599,247.773279 L 811.336032,246.153846 L 811.336032,244.534413 " transform="matrix(1.271898932,0,0,1.271898932,-134.677567257,-151.212253378)" fill="none" stroke="#000000" stroke-width="25"/>
		</g>
		<g>
			<path d="M156.234743,787.032516L 160.140611,783.126648 L 164.04648,777.267845 L 169.905283,771.409042 L 175.764086,763.597305 L 181.622888,757.738502 L 189.434626,751.879699 L 195.293428,742.115028 L 201.152231,732.350356 L 208.963968,720.632751 L 216.775705,706.962211 L 234.352114,681.574065 L 244.116785,665.950591 L 251.928523,654.232985 L 259.74026,644.468314 L 267.551997,634.703642 L 277.316668,624.938971 L 283.175471,615.174299 L 290.987208,603.456694 L 296.846011,593.692022 L 300.75188,587.833219 L 308.563617,580.021482 L 314.42242,570.256811 L 318.328288,564.398008 L 320.281223,556.586271 L 324.187091,550.727468 L 328.09296,548.774534 L 330.045894,542.915731 L 333.951763,537.056928 L 339.810565,527.292257 L 345.669368,519.480519 L 347.622303,513.621717 L 351.528171,509.715848 L 355.43404,503.857045 L 357.386974,497.998242 L 359.339908,492.13944 L 361.292842,488.233571 L 363.245777,486.280637 L 363.245777,482.374768 L 365.198711,480.421834 " transform="matrix(1.271898932,0,0,1.271898932,-134.677567257,-151.212253378)" fill="none" stroke="#000000" stroke-width="25"/>
		</g>
		<g>
			<path d="M624.938971,466.751294L 626.891905,470.657162 L 630.797774,478.4689 L 636.656577,482.374768 L 640.562445,488.233571 L 646.421248,496.045308 L 652.280051,503.857045 L 660.091788,515.574651 L 675.715262,535.103994 L 687.432868,550.727468 L 699.150474,566.350942 L 701.103408,570.256811 L 701.103408,572.209745 L 705.009276,578.068548 L 710.868079,589.786154 L 722.585685,605.409628 L 732.350356,619.080168 L 742.115028,632.750708 L 747.973831,640.562445 L 755.785568,652.280051 L 761.644371,662.044722 L 767.503174,669.856459 L 773.361976,681.574065 L 781.173714,691.338736 L 787.032516,703.056342 L 794.844253,714.773948 L 800.703056,724.538619 L 808.514793,736.256225 L 810.467728,742.115028 L 814.373596,746.020896 L 814.373596,747.973831 L 816.326531,747.973831 L 820.232399,749.926765 L 822.185333,751.879699 L 824.138268,753.832634 L 826.091202,753.832634 L 826.091202,755.785568 L 828.044136,755.785568 L 828.044136,757.738502 L 831.950005,759.691436 L 833.902939,761.644371 L 835.855873,763.597305 L 837.808808,765.550239 L 839.761742,767.503174 " transform="matrix(1.271898932,0,0,1.271898932,-134.677567257,-151.212253378)" fill="none" stroke="#000000" stroke-width="25"/>
		</g>
	</g>
</g></g></svg>