<svg xmlns="http://www.w3.org/2000/svg" viewBox="0 0 1000 1000" width="1000" height="1000"><defs></defs><g>
<g>
	<g>
		<g>
			<path d="M103.505517,146.470071L 97.646714,152.328874 L 87.882043,165.999414 L 78.117371,183.575823 L 72.258568,195.293428 L 68.3527,208.963968 L 64.446831,222.634508 L 60.540963,230.446245 L 60.540963,234.352114 L 58.588029,242.163851 L 56.635094,251.928523 L 56.635094,255.834391 L 56.635094,263.646128 L 56.635094,267.551997 L 54.68216,279.269603 L 52.729226,289.034274 L 52.729226,292.940143 L 52.729226,296.846011 L 52.729226,302.704814 L 52.729226,312.469485 L 52.729226,320.281223 L 52.729226,326.140025 L 52.729226,328.09296 L 52.729226,331.998828 L 52.729226,335.904697 L 52.729226,341.7635 L 52.729226,347.622303 L 52.729226,351.528171 L 52.729226,357.386974 L 52.729226,369.10458 L 52.729226,380.822185 L 52.729226,388.633922 L 52.729226,392.539791 L 52.729226,394.492725 L 52.729226,400.351528 L 52.729226,408.163265 L 52.729226,410.1162 L 52.729226,412.069134 L 60.540963,443.316082 L 60.540963,460.892491 L 62.493897,470.657162 L 62.493897,478.4689 L 62.493897,488.233571 L 62.493897,494.092374 L 62.493897,497.998242 L 62.493897,507.762914 L 62.493897,513.621717 L 62.493897,521.433454 L 62.493897,529.245191 L 64.446831,535.103994 L 64.446831,539.009862 L 64.446831,544.868665 L 64.446831,550.727468 L 64.446831,558.539205 L 64.446831,564.398008 L 64.446831,568.303877 L 64.446831,578.068548 L 66.399766,587.833219 L 66.399766,597.597891 L 66.399766,607.362562 L 66.399766,617.127234 L 66.399766,626.891905 L 66.399766,632.750708 L 66.399766,642.515379 L 66.399766,660.091788 L 66.399766,673.762328 L 66.399766,683.526999 L 66.399766,691.338736 L 66.399766,699.150474 L 66.399766,708.915145 L 66.399766,712.821014 L 66.399766,720.632751 L 66.399766,730.397422 L 66.399766,740.162094 L 66.399766,747.973831 L 66.399766,757.738502 L 68.3527,767.503174 L 70.305634,779.220779 L 70.305634,787.032516 L 70.305634,790.938385 L 70.305634,794.844253 L 70.305634,798.750122 L 70.305634,800.703056 L 70.305634,804.608925 L 70.305634,806.561859 L 70.305634,808.514793 L 70.305634,810.467728 L 70.305634,814.373596 L 70.305634,816.326531 L 70.305634,818.279465 L 70.305634,816.326531 L 76.164437,808.514793 L 80.070306,800.703056 L 82.02324,798.750122 L 83.976174,796.797188 L 83.976174,792.891319 L 87.882043,788.985451 L 89.834977,787.032516 L 91.787911,783.126648 L 93.740846,779.220779 L 97.646714,771.409042 L 101.552583,765.550239 L 103.505517,761.644371 L 105.458451,759.691436 L 107.411386,757.738502 L 109.36432,753.832634 L 119.128991,738.209159 L 124.987794,732.350356 L 128.893663,728.444488 L 132.799531,724.538619 L 134.752466,722.585685 L 136.7054,720.632751 L 136.7054,718.679816 L 138.658334,712.821014 L 142.564203,706.962211 L 146.470071,701.103408 L 150.37594,695.244605 L 156.234743,687.432868 L 158.187677,681.574065 L 162.093546,679.621131 L 164.04648,675.715262 L 173.811151,665.950591 L 183.575823,656.185919 L 193.340494,644.468314 L 197.246363,636.656577 L 201.152231,630.797774 L 210.916903,617.127234 L 220.681574,599.550825 L 226.540377,589.786154 L 228.493311,583.927351 L 236.305048,572.209745 L 244.116785,562.445074 L 249.975588,554.633337 L 253.881457,550.727468 L 259.74026,540.962797 L 265.599063,535.103994 L 273.4108,525.339322 L 277.316668,517.527585 L 281.222537,513.621717 L 287.08134,501.904111 L 294.893077,492.13944 L 300.75188,482.374768 L 304.657748,472.610097 L 308.563617,468.704228 L 308.563617,466.751294 L 306.610683,462.845425 L 287.08134,441.363148 L 273.4108,423.78674 L 265.599063,415.975002 L 259.74026,410.1162 L 255.834391,402.304462 L 249.975588,396.44566 L 244.116785,388.633922 L 236.305048,382.77512 L 230.446245,376.916317 L 226.540377,369.10458 L 222.634508,363.245777 L 218.72864,357.386974 L 214.822771,353.481105 L 212.869837,349.575237 L 208.963968,345.669368 L 208.963968,343.716434 L 207.011034,339.810565 L 205.0581,335.904697 L 193.340494,312.469485 L 185.528757,298.798945 L 181.622888,294.893077 L 179.669954,290.987208 L 175.764086,287.08134 L 171.858217,283.175471 L 169.905283,281.222537 L 169.905283,277.316668 L 165.999414,273.4108 L 162.093546,271.457865 L 160.140611,265.599063 L 156.234743,259.74026 L 152.328874,251.928523 L 148.423006,244.116785 L 144.517137,238.257983 L 140.611268,232.39918 L 136.7054,226.540377 L 134.752466,220.681574 L 130.846597,210.916903 L 126.940728,205.0581 L 123.03486,199.199297 L 119.128991,191.38756 L 117.176057,189.434626 L 115.223123,183.575823 L 111.317254,177.71702 L 109.36432,169.905283 L 109.36432,165.999414 L 109.36432,162.093546 L 109.36432,160.140611 L 109.36432,158.187677 L 109.36432,156.234743 L 107.411386,156.234743 L 105.458451,154.281808 " fill="#000000" stroke="#000000" stroke-width="2"/>
		</g>
		<g>
			<path d="M109.36432,169.905283C109.36432,169.905283 103.505517,146.470071 103.505517,146.470071 " fill="none" stroke="#000000" stroke-width="2"/>
		</g>
		<g>
			<path d="M135.000001,130.500001L 142.500001,141.000001 L 145.500001,147.000001 L 151.500002,153.000002 L 154.500002,160.500002 L 157.500002,165.000002 L 157.500002,166.500002 L 165.000002,184.500002 L 169.500002,195.000002 L 174.000002,201.000002 L 177.000002,207.000002 L 180.000002,213.000002 L 183.000002,219.000002 L 186.000002,225.000002 L 189.000002,234.000002 L 192.000002,240.000002 L 195.000002,246.000002 L 198.000002,252.000003 L 201.000002,259.500003 L 204.000002,262.500003 L 207.000002,265.500003 L 207.000002,268.500003 L 208.500002,268.500003 L 210.000002,271.500003 L 220.500002,289.500003 L 226.500002,300.000003 L 228.000002,306.000003 L 231.000002,312.000003 L 235.500002,318.000003 L 238.500002,322.500003 L 241.500002,327.000003 L 246.000002,333.000003 L 249.000002,336.000003 L 253.500003,340.500003 L 258.000003,346.500003 L 264.000003,351.000004 L 267.000003,355.500004 L 270.000003,360.000004 L 273.000003,363.000004 L 276.000003,367.500004 L 280.500003,370.500004 L 282.000003,373.500004 L 286.500003,379.500004 L 288.000003,384.000004 L 291.000003,388.500004 L 295.500003,393.000004 L 298.500003,396.000004 L 298.500003,397.500004 L 310.500003,411.000004 L 316.500003,418.500004 L 321.000003,424.500004 L 324.000003,427.500004 L 327.000003,432.000004 L 328.500003,432.000004 L 330.000003,433.500004 L 331.500003,435.000004 L 334.500003,438.000004 L 336.000003,438.000004 L 337.500003,438.000004 L 340.500003,441.000004 L 343.500003,444.000004 L 348.000003,447.000004 L 352.500004,451.500005 L 354.000004,453.000005 L 357.000004,456.000005 L 358.500004,457.500005 L 358.500004,459.000005 L 361.500004,462.000005 L 364.500004,466.500005 L 367.500004,469.500005 L 370.500004,471.000005 L 373.500004,477.000005 L 376.500004,480.000005 L 378.000004,483.000005 L 381.000004,486.000005 L 388.500004,490.500005 L 393.000004,493.500005 L 394.500004,495.000005 L 397.500004,496.500005 L 399.000004,496.500005 L 402.000004,499.500005 L 408.000004,502.500005 L 414.000004,505.500005 L 418.500004,507.000005 L 424.500004,510.000005 L 426.000004,510.000005 L 430.500004,511.500005 L 433.500004,513.000005 L 439.500004,516.000005 L 444.000004,519.000005 L 445.500004,520.500005 L 447.000004,520.500005 L 448.500004,520.500005 L 450.000004,520.500005 L 460.500005,520.500005 L 466.500005,520.500005 L 469.500005,520.500005 L 471.000005,520.500005 L 472.500005,520.500005 L 477.000005,520.500005 L 480.000005,520.500005 L 483.000005,520.500005 L 484.500005,520.500005 L 486.000005,520.500005 L 489.000005,519.000005 L 513.000005,510.000005 L 528.000005,505.500005 L 535.500005,501.000005 L 541.500005,498.000005 L 546.000005,493.500005 L 553.500006,490.500005 L 559.500006,487.500005 L 564.000006,484.500005 L 571.500006,480.000005 L 580.500006,475.500005 L 586.500006,472.500005 L 591.000006,469.500005 L 597.000006,463.500005 L 603.000006,460.500005 L 607.500006,457.500005 L 612.000006,454.500005 L 616.500006,450.000005 L 619.500006,447.000004 L 625.500006,441.000004 L 631.500006,435.000004 L 637.500006,429.000004 L 642.000006,424.500004 L 645.000006,423.000004 L 648.000006,420.000004 L 651.000007,417.000004 L 655.500007,414.000004 L 658.500007,409.500004 L 663.000007,408.000004 L 666.000007,405.000004 L 669.000007,402.000004 L 670.500007,400.500004 L 688.500007,385.500004 L 702.000007,378.000004 L 708.000007,372.000004 L 714.000007,367.500004 L 715.500007,364.500004 L 720.000007,361.500004 L 726.000007,355.500004 L 732.000007,348.000003 L 735.000007,343.500003 L 738.000007,339.000003 L 742.500007,334.500003 L 748.500007,327.000003 L 753.000008,322.500003 L 756.000008,318.000003 L 759.000008,315.000003 L 760.500008,312.000003 L 766.500008,306.000003 L 772.500008,300.000003 L 777.000008,295.500003 L 778.500008,292.500003 L 783.000008,288.000003 L 787.500008,280.500003 L 793.500008,273.000003 L 798.000008,268.500003 L 801.000008,265.500003 L 801.000008,264.000003 L 804.000008,258.000003 L 808.500008,252.000003 L 814.500008,243.000002 L 816.000008,238.500002 L 819.000008,235.500002 L 822.000008,234.000002 L 822.000008,231.000002 L 829.500008,222.000002 L 835.500008,214.500002 L 838.500008,207.000002 L 841.500008,202.500002 L 844.500008,199.500002 L 846.000008,196.500002 L 850.500009,190.500002 L 855.000009,186.000002 L 858.000009,183.000002 L 859.500009,180.000002 L 861.000009,178.500002 L 861.000009,177.000002 L 864.000009,171.000002 L 867.000009,163.500002 L 870.000009,157.500002 L 873.000009,153.000002 L 874.500009,150.000001 L 871.500009,148.500001 L 858.000009,147.000001 L 843.000008,147.000001 L 831.000008,147.000001 L 820.500008,147.000001 L 808.500008,147.000001 L 801.000008,145.500001 L 795.000008,145.500001 L 786.000008,145.500001 L 775.500008,145.500001 L 766.500008,145.500001 L 754.500008,142.500001 L 744.000007,141.000001 L 733.500007,141.000001 L 727.500007,141.000001 L 714.000007,139.500001 L 702.000007,139.500001 L 693.000007,139.500001 L 687.000007,139.500001 L 682.500007,139.500001 L 655.500007,139.500001 L 639.000006,139.500001 L 627.000006,139.500001 L 618.000006,139.500001 L 604.500006,139.500001 L 594.000006,139.500001 L 583.500006,139.500001 L 576.000006,139.500001 L 568.500006,139.500001 L 558.000006,139.500001 L 549.000005,139.500001 L 540.000005,139.500001 L 529.500005,141.000001 L 520.500005,141.000001 L 510.000005,141.000001 L 499.500005,142.500001 L 487.500005,142.500001 L 468.000005,144.000001 L 454.500005,144.000001 L 442.500004,144.000001 L 435.000004,144.000001 L 429.000004,144.000001 L 423.000004,144.000001 L 412.500004,144.000001 L 403.500004,144.000001 L 396.000004,144.000001 L 388.500004,144.000001 L 381.000004,144.000001 L 379.500004,144.000001 L 378.000004,144.000001 L 334.500003,144.000001 L 312.000003,144.000001 L 297.000003,144.000001 L 285.000003,142.500001 L 276.000003,142.500001 L 264.000003,141.000001 L 250.500003,136.500001 L 241.500002,136.500001 L 231.000002,135.000001 L 225.000002,133.500001 L 216.000002,132.000001 L 211.500002,132.000001 L 201.000002,132.000001 L 193.500002,130.500001 L 187.500002,130.500001 L 183.000002,130.500001 L 178.500002,130.500001 L 172.500002,129.000001 L 165.000002,129.000001 L 160.500002,129.000001 L 157.500002,129.000001 L 154.500002,129.000001 L 147.000001,127.500001 L 142.500001,127.500001 L 139.500001,127.500001 L 138.000001,127.500001 " fill="#000000" stroke="#000000" stroke-width="2"/>
		</g>
		<g>
			<path d="M76.58034,863.269284L 79.365079,854.915065 L 82.149819,852.130326 L 86.326928,849.345586 L 89.111668,845.168477 L 91.896408,842.383737 L 96.073517,838.206628 L 97.465887,836.814258 L 108.604845,822.89056 L 112.781955,817.32108 L 115.566695,814.536341 L 118.351434,811.751601 L 121.136174,808.966862 L 123.920913,804.789752 L 126.705653,802.005013 L 129.490393,796.435533 L 133.667502,793.650794 L 139.236981,786.688945 L 140.629351,783.904205 L 143.414091,781.119465 L 146.19883,779.727096 L 150.37594,775.549986 L 155.945419,768.588137 L 158.730159,765.803397 L 160.122529,764.411028 L 160.122529,763.018658 L 167.084378,746.31022 L 174.046227,732.386522 L 179.615706,722.639933 L 183.792815,717.070454 L 186.577555,711.500975 L 189.362295,707.323865 L 192.147034,701.754386 L 194.931774,696.184907 L 196.324144,693.400167 L 199.108883,690.615427 L 200.501253,687.830688 L 201.893623,686.438318 L 203.285993,683.653578 L 207.463102,678.084099 L 211.640212,671.12225 L 218.602061,662.768031 L 222.77917,655.806182 L 225.56391,651.629073 L 228.348649,647.451963 L 231.133389,643.274854 L 233.918129,640.490114 L 235.310498,637.705375 L 238.095238,632.135895 L 240.879978,627.958786 L 243.664717,625.174046 L 247.841827,622.389307 L 253.411306,616.819827 L 257.588415,614.035088 L 260.373155,611.250348 L 263.157895,608.465608 L 264.550265,607.073239 L 268.727374,602.896129 L 272.904483,595.93428 L 275.689223,593.149541 L 277.081593,591.757171 L 278.473963,591.757171 L 279.866332,586.187691 L 284.043442,579.225842 L 286.828182,573.656363 L 288.220551,568.086884 L 291.005291,563.909774 L 291.005291,562.517405 L 291.005291,561.125035 L 293.790031,558.340295 L 296.57477,555.555556 L 302.14425,549.986076 L 306.321359,545.808967 L 309.106099,543.024227 L 311.890838,538.847118 L 316.067948,530.492899 L 320.245057,522.13868 L 323.029797,516.569201 L 325.814536,510.999722 L 327.206906,508.214982 L 327.206906,506.822612 L 328.599276,504.037872 L 329.991646,501.253133 L 331.384016,498.468393 L 334.168755,495.683654 L 334.168755,494.291284 L 336.953495,492.898914 L 336.953495,491.506544 L 338.345865,491.506544 L 339.738234,491.506544 L 342.522974,492.898914 L 345.307714,495.683654 L 346.700084,498.468393 L 349.484823,501.253133 L 349.484823,504.037872 L 349.484823,505.430242 L 349.484823,506.822612 L 350.877193,509.607352 L 352.269563,510.999722 L 355.054302,513.784461 L 357.839042,516.569201 L 360.623782,519.35394 L 363.408521,522.13868 L 366.193261,524.92342 L 368.978001,529.100529 L 371.76274,531.885269 L 374.54748,533.277639 L 377.332219,534.670008 L 378.724589,536.062378 L 381.509329,538.847118 L 385.686438,541.631857 L 392.648287,544.416597 L 396.825397,547.201337 L 402.394876,549.986076 L 405.179616,552.770816 L 410.749095,555.555556 L 416.318574,558.340295 L 420.495684,561.125035 L 423.280423,561.125035 L 426.065163,562.517405 L 428.849903,562.517405 L 433.027012,565.302144 L 437.204121,565.302144 L 442.773601,566.694514 L 446.95071,566.694514 L 452.520189,566.694514 L 459.482038,568.086884 L 463.659148,568.086884 L 469.228627,568.086884 L 473.405737,568.086884 L 477.582846,568.086884 L 478.975216,566.694514 L 491.506544,562.517405 L 499.860763,561.125035 L 505.430242,558.340295 L 510.999722,556.947925 L 513.784461,555.555556 L 516.569201,555.555556 L 517.961571,554.163186 L 519.35394,552.770816 L 524.92342,551.378446 L 526.315789,549.986076 L 530.492899,548.593706 L 533.277639,547.201337 L 534.670008,547.201337 L 537.454748,545.808967 L 540.239488,543.024227 L 544.416597,540.239488 L 549.986076,538.847118 L 552.770816,538.847118 L 555.555556,537.454748 L 558.340295,536.062378 L 562.517405,533.277639 L 568.086884,530.492899 L 573.656363,527.708159 L 577.833473,526.315789 L 583.402952,520.74631 L 588.972431,517.961571 L 594.54191,513.784461 L 600.11139,510.999722 L 602.896129,508.214982 L 605.680869,505.430242 L 611.250348,502.645503 L 614.035088,501.253133 L 615.427458,499.860763 L 618.212197,498.468393 L 619.604567,498.468393 L 622.389307,495.683654 L 626.566416,492.898914 L 627.958786,492.898914 L 630.743525,491.506544 L 633.528265,490.114174 L 636.313005,488.721805 L 639.097744,487.329435 L 641.882484,487.329435 L 644.667224,485.937065 L 646.059593,484.544695 L 648.844333,484.544695 L 651.629073,483.152325 L 653.021442,483.152325 L 653.021442,481.759955 L 654.413812,481.759955 L 654.413812,480.367586 L 654.413812,478.975216 L 654.413812,477.582846 L 654.413812,476.190476 L 655.806182,476.190476 L 657.198552,473.405737 L 658.590922,473.405737 L 658.590922,474.798106 L 672.51462,492.898914 L 683.653578,506.822612 L 686.438318,510.999722 L 690.615427,517.961571 L 693.400167,520.74631 L 696.184907,524.92342 L 698.969646,527.708159 L 700.362016,531.885269 L 704.539126,536.062378 L 707.323865,540.239488 L 710.108605,545.808967 L 712.893344,549.986076 L 715.678084,552.770816 L 717.070454,554.163186 L 719.855194,558.340295 L 722.639933,562.517405 L 725.424673,565.302144 L 728.209412,568.086884 L 729.601782,569.479254 L 730.994152,572.263993 L 740.740741,588.972431 L 744.91785,597.32665 L 749.09496,600.11139 L 751.879699,602.896129 L 754.664439,605.680869 L 757.449179,608.465608 L 760.233918,611.250348 L 763.018658,614.035088 L 765.803397,616.819827 L 768.588137,620.996937 L 769.980507,623.781676 L 772.765246,627.958786 L 775.549986,632.135895 L 775.549986,634.920635 L 776.942356,637.705375 L 778.334726,640.490114 L 779.727096,643.274854 L 781.119465,647.451963 L 783.904205,653.021442 L 785.296575,655.806182 L 785.296575,657.198552 L 786.688945,658.590922 L 797.827903,672.51462 L 808.966862,685.045948 L 814.536341,690.615427 L 817.32108,693.400167 L 820.10582,696.184907 L 822.89056,698.969646 L 827.067669,701.754386 L 829.852409,704.539126 L 832.637148,707.323865 L 836.814258,710.108605 L 840.991367,714.285714 L 845.168477,717.070454 L 847.953216,722.639933 L 850.737956,726.817043 L 853.522696,729.601782 L 854.915065,735.171261 L 857.699805,739.348371 L 857.699805,742.133111 L 857.699805,744.91785 L 859.092175,747.70259 L 859.092175,749.09496 L 859.092175,750.487329 L 859.092175,751.879699 L 860.484545,754.664439 L 861.876915,757.449179 L 864.661654,761.626288 L 867.446394,767.195767 L 868.838764,769.980507 L 868.838764,771.372877 L 871.623503,775.549986 L 874.408243,781.119465 L 877.192982,783.904205 L 879.977722,788.081314 L 882.762462,792.258424 L 885.547201,795.043163 L 886.939571,797.827903 L 888.331941,802.005013 L 889.724311,803.397382 L 891.116681,806.182122 L 895.29379,810.359231 L 895.29379,813.143971 L 895.29379,814.536341 L 895.29379,815.928711 L 895.29379,817.32108 L 896.68616,818.71345 L 896.68616,820.10582 L 895.29379,821.49819 L 889.724311,822.89056 L 884.154832,822.89056 L 877.192982,822.89056 L 873.015873,822.89056 L 871.623503,822.89056 L 867.446394,822.89056 L 864.661654,822.89056 L 857.699805,822.89056 L 852.130326,824.28293 L 846.560847,824.28293 L 843.776107,824.28293 L 842.383737,824.28293 L 840.991367,824.28293 L 827.067669,829.852409 L 815.928711,834.029518 L 807.574492,836.814258 L 799.220273,838.206628 L 792.258424,839.598997 L 783.904205,840.991367 L 778.334726,840.991367 L 771.372877,840.991367 L 765.803397,842.383737 L 758.841548,842.383737 L 751.879699,843.776107 L 743.52548,843.776107 L 736.563631,845.168477 L 729.601782,846.560847 L 724.032303,847.953216 L 721.247563,847.953216 L 714.285714,850.737956 L 711.500975,852.130326 L 705.931495,853.522696 L 698.969646,856.307435 L 693.400167,857.699805 L 687.830688,857.699805 L 680.868839,859.092175 L 673.90699,859.092175 L 666.945141,859.092175 L 661.375661,859.092175 L 658.590922,859.092175 L 657.198552,859.092175 L 651.629073,857.699805 L 643.274854,857.699805 L 639.097744,857.699805 L 636.313005,857.699805 L 634.920635,857.699805 L 633.528265,857.699805 L 619.604567,856.307435 L 609.857978,854.915065 L 593.149541,854.915065 L 586.187691,852.130326 L 575.048733,850.737956 L 572.263993,850.737956 L 569.479254,850.737956 L 548.593706,850.737956 L 537.454748,850.737956 L 529.100529,850.737956 L 519.35394,850.737956 L 512.392091,850.737956 L 506.822612,850.737956 L 502.645503,850.737956 L 495.683654,850.737956 L 490.114174,852.130326 L 484.544695,853.522696 L 477.582846,854.915065 L 470.620997,857.699805 L 465.051518,860.484545 L 458.089669,863.269284 L 452.520189,864.661654 L 446.95071,866.054024 L 442.773601,867.446394 L 439.988861,867.446394 L 438.596491,867.446394 L 433.027012,868.838764 L 424.672793,868.838764 L 417.710944,868.838764 L 413.533835,870.231133 L 412.141465,870.231133 L 407.964355,870.231133 L 399.610136,871.623503 L 394.040657,871.623503 L 391.255918,873.015873 L 388.471178,873.015873 L 384.294069,873.015873 L 374.54748,874.408243 L 368.978001,874.408243 L 364.800891,874.408243 L 362.016151,875.800613 L 355.054302,877.192982 L 346.700084,877.192982 L 339.738234,877.192982 L 334.168755,877.192982 L 327.206906,877.192982 L 323.029797,877.192982 L 321.637427,877.192982 L 318.852687,877.192982 L 292.397661,875.800613 L 275.689223,874.408243 L 267.335004,871.623503 L 258.980785,870.231133 L 250.626566,868.838764 L 243.664717,868.838764 L 239.487608,868.838764 L 233.918129,868.838764 L 229.741019,868.838764 L 225.56391,868.838764 L 224.17154,868.838764 L 219.994431,868.838764 L 211.640212,868.838764 L 206.070732,868.838764 L 201.893623,868.838764 L 199.108883,868.838764 L 192.147034,868.838764 L 185.185185,868.838764 L 178.223336,868.838764 L 175.438596,868.838764 L 171.261487,868.838764 L 164.299638,868.838764 L 154.553049,868.838764 L 144.806461,868.838764 L 135.059872,868.838764 L 128.098023,867.446394 L 122.528544,867.446394 L 115.566695,867.446394 L 107.212476,867.446394 L 101.642996,867.446394 L 96.073517,867.446394 L 93.288777,867.446394 L 91.896408,867.446394 L 89.111668,866.054024 L 82.149819,864.661654 L 79.365079,864.661654 " fill="#000000" stroke="#000000" stroke-width="2"/>
		</g>
		<g>
			<path d="M944.026734,510.999722L 944.026734,536.062378 L 944.026734,547.201337 L 944.026734,558.340295 L 942.634364,570.871624 L 942.634364,582.010582 L 942.634364,591.757171 L 942.634364,602.896129 L 942.634364,608.465608 L 942.634364,615.427458 L 942.634364,623.781676 L 941.241994,629.351156 L 941.241994,636.313005 L 939.849624,643.274854 L 939.849624,646.059593 L 939.849624,651.629073 L 938.457254,657.198552 L 938.457254,659.983292 L 938.457254,662.768031 L 938.457254,664.160401 L 938.457254,671.12225 L 938.457254,675.29936 L 938.457254,683.653578 L 938.457254,687.830688 L 938.457254,690.615427 L 938.457254,693.400167 L 938.457254,698.969646 L 938.457254,703.146756 L 938.457254,705.931495 L 938.457254,708.716235 L 938.457254,711.500975 L 938.457254,714.285714 L 938.457254,718.462824 L 938.457254,726.817043 L 938.457254,732.386522 L 938.457254,739.348371 L 939.849624,744.91785 L 939.849624,747.70259 L 939.849624,750.487329 L 941.241994,757.449179 L 941.241994,763.018658 L 941.241994,765.803397 L 941.241994,768.588137 L 941.241994,769.980507 L 941.241994,771.372877 L 941.241994,772.765246 L 941.241994,774.157616 L 939.849624,775.549986 L 938.457254,778.334726 L 937.064884,778.334726 L 935.672515,779.727096 L 932.887775,779.727096 L 930.103035,781.119465 L 927.318296,781.119465 L 925.925926,781.119465 L 924.533556,782.511835 L 923.141186,782.511835 L 921.748816,782.511835 L 918.964077,779.727096 L 914.786967,775.549986 L 912.002228,771.372877 L 909.217488,767.195767 L 906.432749,764.411028 L 905.040379,763.018658 L 902.255639,758.841548 L 899.470899,756.056809 L 896.68616,751.879699 L 895.29379,747.70259 L 892.50905,742.133111 L 889.724311,736.563631 L 888.331941,732.386522 L 886.939571,729.601782 L 885.547201,726.817043 L 882.762462,724.032303 L 879.977722,721.247563 L 878.585352,718.462824 L 875.800613,714.285714 L 873.015873,710.108605 L 873.015873,707.323865 L 871.623503,703.146756 L 870.231133,701.754386 L 868.838764,698.969646 L 867.446394,696.184907 L 866.054024,693.400167 L 863.269284,690.615427 L 859.092175,687.830688 L 857.699805,683.653578 L 853.522696,680.868839 L 852.130326,678.084099 L 850.737956,676.691729 L 847.953216,669.72988 L 842.383737,658.590922 L 831.244779,643.274854 L 822.89056,629.351156 L 818.71345,623.781676 L 814.536341,618.212197 L 810.359231,611.250348 L 807.574492,608.465608 L 804.789752,605.680869 L 802.005013,600.11139 L 796.435533,594.54191 L 790.866054,588.972431 L 786.688945,586.187691 L 783.904205,580.618212 L 779.727096,575.048733 L 776.942356,572.263993 L 774.157616,568.086884 L 768.588137,561.125035 L 764.411028,555.555556 L 760.233918,549.986076 L 756.056809,541.631857 L 751.879699,534.670008 L 749.09496,527.708159 L 744.91785,520.74631 L 742.133111,515.176831 L 739.348371,510.999722 L 736.563631,506.822612 L 732.386522,504.037872 L 729.601782,499.860763 L 728.209412,498.468393 L 726.817043,494.291284 L 722.639933,487.329435 L 719.855194,481.759955 L 715.678084,474.798106 L 712.893344,470.620997 L 708.716235,466.443887 L 705.931495,463.659148 L 704.539126,460.874408 L 701.754386,459.482038 L 698.969646,456.697299 L 696.184907,451.12782 L 692.007797,448.34308 L 692.007797,446.95071 L 690.615427,446.95071 L 689.223058,445.55834 L 686.438318,441.381231 L 683.653578,438.596491 L 682.261209,435.811752 L 682.261209,434.419382 L 683.653578,434.419382 L 687.830688,434.419382 L 690.615427,434.419382 L 692.007797,434.419382 L 693.400167,434.419382 L 697.577277,430.242272 L 700.362016,428.849903 L 703.146756,426.065163 L 708.716235,423.280423 L 715.678084,420.495684 L 718.462824,416.318574 L 721.247563,413.533835 L 724.032303,410.749095 L 725.424673,409.356725 L 726.817043,409.356725 L 728.209412,407.964355 L 730.994152,403.787246 L 735.171261,399.610136 L 737.956001,396.825397 L 740.740741,392.648287 L 743.52548,388.471178 L 744.91785,387.078808 L 746.31022,387.078808 L 758.841548,373.15511 L 768.588137,362.016151 L 771.372877,357.839042 L 776.942356,352.269563 L 782.511835,345.307714 L 786.688945,336.953495 L 789.473684,334.168755 L 790.866054,331.384016 L 793.650794,328.599276 L 799.220273,320.245057 L 804.789752,311.890838 L 808.966862,303.536619 L 813.143971,296.57477 L 815.928711,292.397661 L 818.71345,289.612921 L 820.10582,288.220551 L 822.89056,285.435812 L 825.675299,282.651072 L 828.460039,279.866332 L 829.852409,278.473963 L 832.637148,275.689223 L 838.206628,270.119744 L 843.776107,263.157895 L 849.345586,254.803676 L 853.522696,247.841827 L 857.699805,242.272348 L 863.269284,236.702868 L 868.838764,229.741019 L 873.015873,224.17154 L 877.192982,217.209691 L 881.370092,211.640212 L 886.939571,203.285993 L 891.116681,196.324144 L 893.90142,193.539404 L 893.90142,192.147034 L 900.863269,183.792815 L 900.863269,185.185185 L 900.863269,196.324144 L 900.863269,203.285993 L 900.863269,204.678363 L 900.863269,207.463102 L 900.863269,208.855472 L 903.648009,215.817321 L 905.040379,222.77917 L 906.432749,229.741019 L 909.217488,235.310498 L 912.002228,240.879978 L 913.394598,243.664717 L 917.571707,250.626566 L 917.571707,253.411306 L 918.964077,256.196046 L 920.356447,258.980785 L 920.356447,261.765525 L 920.356447,265.942634 L 921.748816,271.512114 L 921.748816,277.081593 L 921.748816,282.651072 L 921.748816,288.220551 L 921.748816,295.1824 L 921.748816,299.35951 L 921.748816,303.536619 L 921.748816,310.498468 L 923.141186,314.675578 L 923.141186,317.460317 L 923.141186,323.029797 L 923.141186,329.991646 L 924.533556,336.953495 L 924.533556,342.522974 L 924.533556,349.484823 L 925.925926,356.446672 L 927.318296,363.408521 L 928.710666,368.978001 L 930.103035,377.332219 L 931.495405,384.294069 L 932.887775,389.863548 L 934.280145,395.433027 L 935.672515,401.002506 L 937.064884,406.571986 L 937.064884,410.749095 L 938.457254,416.318574 L 939.849624,426.065163 L 939.849624,433.027012 L 939.849624,438.596491 L 941.241994,444.16597 L 941.241994,448.34308 L 941.241994,456.697299 L 941.241994,463.659148 L 941.241994,469.228627 L 941.241994,476.190476 L 941.241994,478.975216 L 941.241994,484.544695 L 941.241994,488.721805 L 941.241994,491.506544 L 941.241994,492.898914 L 941.241994,495.683654 L 941.241994,498.468393 L 941.241994,499.860763 L 941.241994,501.253133 L 941.241994,506.822612 L 941.241994,509.607352 " fill="#000000" stroke="#000000" stroke-width="2"/>
		</g>
	</g>
</g></g></svg>