<svg xmlns="http://www.w3.org/2000/svg" viewBox="0 0 1000 1000" width="1000" height="1000"><defs></defs><g>
<g>
	<g>
		<g>
			<path d="M329.637365,661.056554L 327.855542,659.274731 L 326.073718,657.492907 L 324.291895,657.492907 L 322.510071,655.711084 L 317.1646,652.147436 L 313.600953,648.583789 L 302.910011,641.456495 L 295.782717,637.892848 L 290.437246,634.3292 L 285.091775,630.765553 L 279.746305,627.201906 L 274.400834,625.420082 L 270.837187,623.638259 L 267.273539,621.856435 L 260.146245,618.292788 L 256.582598,616.510964 L 254.800774,614.729141 L 251.237127,614.729141 L 247.67348,614.729141 L 244.109833,614.729141 L 240.546186,614.729141 L 235.200715,616.510964 L 231.637068,618.292788 L 226.291597,620.074612 L 220.946126,621.856435 L 215.600655,623.638259 L 212.037008,625.420082 L 204.909714,627.201906 L 199.564243,628.98373 L 194.218772,630.765553 L 188.873301,634.3292 L 185.309654,637.892848 L 178.18236,641.456495 L 172.836889,646.801966 L 163.927771,653.92926 L 158.5823,657.492907 L 156.800476,659.274731 L 151.455006,664.620202 L 147.891359,668.183849 L 146.109535,671.747496 L 144.327711,675.311143 L 140.764064,687.783908 L 140.764064,693.129379 L 140.764064,698.47485 L 140.764064,702.038497 L 140.764064,707.383968 L 140.764064,712.729439 L 140.764064,719.856733 L 140.764064,723.42038 L 140.764064,730.547675 L 140.764064,735.893145 L 140.764064,741.238616 L 140.764064,748.365911 L 140.764064,753.711381 L 140.764064,760.838676 L 140.764064,766.184147 L 140.764064,771.529617 L 140.764064,778.656912 L 140.764064,784.002382 L 140.764064,789.347853 L 142.545888,794.693324 L 142.545888,800.038795 L 146.109535,805.384266 L 147.891359,808.947913 L 149.673182,812.51156 L 151.455006,817.857031 L 151.455006,819.638854 L 155.018653,821.420678 L 156.800476,824.984325 L 162.145947,826.766149 L 165.709594,828.547972 L 169.273242,828.547972 L 172.836889,828.547972 L 178.18236,828.547972 L 181.746007,828.547972 L 185.309654,828.547972 L 192.436948,828.547972 L 196.000596,828.547972 L 201.346066,828.547972 L 206.691537,828.547972 L 212.037008,828.547972 L 217.382479,828.547972 L 222.72795,828.547972 L 228.07342,828.547972 L 235.200715,828.547972 L 242.328009,828.547972 L 247.67348,828.547972 L 256.582598,828.547972 L 261.928069,828.547972 L 267.273539,828.547972 L 270.837187,828.547972 L 277.964481,826.766149 L 283.309952,824.984325 L 288.655423,824.984325 L 297.564541,824.984325 L 301.128188,824.984325 L 304.691835,823.202502 L 308.255482,823.202502 L 311.819129,821.420678 L 315.382777,821.420678 L 318.946424,819.638854 L 322.510071,819.638854 L 326.073718,817.857031 L 331.419189,816.075207 L 334.982836,814.293384 L 336.76466,814.293384 L 338.546483,812.51156 L 340.328307,810.729736 L 342.110131,810.729736 L 343.891954,808.947913 L 345.673778,808.947913 L 349.237425,807.166089 L 351.019249,805.384266 L 354.582896,801.820618 L 359.928367,800.038795 L 365.273837,796.475148 L 367.055661,796.475148 L 368.837484,794.693324 L 368.837484,792.9115 L 368.837484,785.784206 L 368.837484,778.656912 L 368.837484,775.093265 L 368.837484,771.529617 L 370.619308,766.184147 L 372.401132,762.620499 L 374.182955,759.056852 L 375.964779,757.275029 L 375.964779,755.493205 L 377.746602,753.711381 L 377.746602,751.929558 L 379.528426,748.365911 L 379.528426,746.584087 L 381.31025,744.802263 L 383.092073,741.238616 L 384.873897,737.674969 L 384.873897,735.893145 L 384.873897,732.329498 L 386.65572,728.765851 L 386.65572,725.202204 L 386.65572,721.638557 L 388.437544,718.074909 L 388.437544,714.511262 L 388.437544,710.947615 L 390.219368,707.383968 L 392.001191,702.038497 L 392.001191,698.47485 L 393.783015,694.911203 L 393.783015,693.129379 L 393.783015,687.783908 L 395.564838,686.002085 L 395.564838,680.656614 L 395.564838,677.092967 L 397.346662,669.965672 L 397.346662,666.402025 L 397.346662,664.620202 L 397.346662,661.056554 L 397.346662,650.365613 L 397.346662,637.892848 L 397.346662,627.201906 L 397.346662,618.292788 L 397.346662,612.947317 L 397.346662,605.820023 L 397.346662,598.692728 L 399.128486,591.565434 L 399.128486,588.001787 L 399.128486,584.43814 L 399.128486,582.656316 L 399.128486,580.874492 L 399.128486,577.310845 L 399.128486,573.747198 L 399.128486,570.183551 L 400.910309,566.619904 L 400.910309,561.274433 L 400.910309,559.492609 L 400.910309,554.147139 L 400.910309,552.365315 L 400.910309,550.583491 L 400.910309,548.801668 L 400.910309,547.019844 L 400.910309,545.238021 L 400.910309,543.456197 L 400.910309,541.674373 L 400.910309,538.110726 L 400.910309,536.328903 L 402.692133,534.547079 L 402.692133,532.765255 L 402.692133,530.983432 L 402.692133,529.201608 L 402.692133,525.637961 L 402.692133,523.856137 L 402.692133,518.510667 L 402.692133,513.165196 L 402.692133,509.601549 L 404.473956,506.037901 L 404.473956,502.474254 L 404.473956,500.692431 L 404.473956,498.910607 L 404.473956,497.128783 L 404.473956,495.34696 L 404.473956,491.783313 L 404.473956,484.656018 L 404.473956,482.874195 L 404.473956,481.092371 L 404.473956,479.310547 L 404.473956,477.528724 L 404.473956,473.965077 L 404.473956,468.619606 L 404.473956,463.274135 L 404.473956,461.492312 L 404.473956,459.710488 L 404.473956,457.928664 L 404.473956,456.146841 L 404.473956,454.365017 L 404.473956,452.583194 L 404.473956,450.80137 L 404.473956,449.019546 L 404.473956,447.237723 L 404.473956,441.892252 L 404.473956,434.764958 L 404.473956,432.983134 L 402.692133,429.419487 L 402.692133,427.637663 L 402.692133,425.85584 L 402.692133,424.074016 L 402.692133,422.292192 L 402.692133,420.510369 L 402.692133,418.728545 L 402.692133,416.946722 L 404.473956,415.164898 L 413.383074,409.819427 L 429.419487,406.25578 L 443.674076,402.692133 L 450.80137,399.128486 L 456.146841,397.346662 L 463.274135,395.564838 L 470.401429,393.783015 L 477.528724,392.001191 L 482.874195,390.219368 L 488.219665,388.437544 L 495.34696,384.873897 L 502.474254,383.092073 L 506.037901,381.31025 L 511.383372,377.746602 L 514.947019,377.746602 L 518.510667,374.182955 L 523.856137,372.401132 L 527.419785,370.619308 L 532.765255,368.837484 L 538.110726,368.837484 L 541.674373,367.055661 L 543.456197,367.055661 L 545.238021,367.055661 L 547.019844,367.055661 L 548.801668,367.055661 L 550.583491,365.273837 L 554.147139,365.273837 L 555.928962,365.273837 L 557.710786,363.492014 L 559.492609,363.492014 L 561.274433,363.492014 L 563.056257,361.71019 L 564.83808,361.71019 L 568.401727,361.71019 L 570.183551,361.71019 L 571.965375,361.71019 L 573.747198,359.928367 L 575.529022,359.928367 L 579.092669,358.146543 L 582.656316,358.146543 L 588.001787,356.364719 L 591.565434,356.364719 L 595.129081,354.582896 L 600.474552,354.582896 L 605.820023,354.582896 L 609.38367,352.801072 L 614.729141,351.019249 L 620.074612,351.019249 L 623.638259,349.237425 L 628.98373,349.237425 L 632.547377,349.237425 L 637.892848,347.455601 L 641.456495,347.455601 L 643.238318,347.455601 L 645.020142,347.455601 L 646.801966,347.455601 L 648.583789,347.455601 L 650.365613,345.673778 L 655.711084,343.891954 L 659.274731,342.110131 L 664.620202,340.328307 L 669.965672,338.546483 L 673.52932,338.546483 L 677.092967,338.546483 L 678.87479,336.76466 L 686.002085,334.982836 L 689.565732,333.201013 L 694.911203,331.419189 L 696.693026,329.637365 L 698.47485,329.637365 L 702.038497,327.855542 L 703.820321,326.073718 L 705.602144,324.291895 L 709.165791,320.728247 L 712.729439,318.946424 L 716.293086,318.946424 L 718.074909,318.946424 L 719.856733,318.946424 L 719.856733,320.728247 L 719.856733,324.291895 L 719.856733,334.982836 L 719.856733,347.455601 L 719.856733,352.801072 L 719.856733,361.71019 L 719.856733,370.619308 L 719.856733,381.31025 L 719.856733,390.219368 L 719.856733,400.910309 L 719.856733,406.25578 L 719.856733,408.037604 L 721.638557,409.819427 L 721.638557,411.601251 L 719.856733,418.728545 L 719.856733,432.983134 L 719.856733,447.237723 L 719.856733,454.365017 L 719.856733,459.710488 L 719.856733,468.619606 L 719.856733,477.528724 L 719.856733,484.656018 L 719.856733,491.783313 L 719.856733,498.910607 L 721.638557,507.819725 L 721.638557,516.728843 L 721.638557,525.637961 L 721.638557,530.983432 L 721.638557,538.110726 L 721.638557,547.019844 L 721.638557,554.147139 L 721.638557,559.492609 L 721.638557,564.83808 L 723.42038,573.747198 L 723.42038,580.874492 L 725.202204,588.001787 L 725.202204,593.347258 L 726.984027,602.256376 L 726.984027,609.38367 L 728.765851,612.947317 L 728.765851,618.292788 L 728.765851,621.856435 L 728.765851,623.638259 L 728.765851,627.201906 L 728.765851,630.765553 L 728.765851,637.892848 L 728.765851,641.456495 L 728.765851,646.801966 L 728.765851,650.365613 L 728.765851,652.147436 L 728.765851,655.711084 L 728.765851,661.056554 L 728.765851,664.620202 L 728.765851,669.965672 L 728.765851,673.52932 L 728.765851,677.092967 L 728.765851,678.87479 L 728.765851,680.656614 L 728.765851,682.438437 L 728.765851,684.220261 L 728.765851,686.002085 L 728.765851,687.783908 L 726.984027,687.783908 L 721.638557,682.438437 L 710.947615,677.092967 L 703.820321,671.747496 L 700.256673,668.183849 L 698.47485,666.402025 L 696.693026,664.620202 L 691.347555,662.838378 L 687.783908,659.274731 L 686.002085,659.274731 L 684.220261,657.492907 L 678.87479,653.92926 L 673.52932,652.147436 L 669.965672,652.147436 L 664.620202,652.147436 L 661.056554,652.147436 L 659.274731,652.147436 L 655.711084,652.147436 L 652.147436,652.147436 L 650.365613,650.365613 L 646.801966,652.147436 L 645.020142,652.147436 L 641.456495,655.711084 L 639.674671,657.492907 L 637.892848,661.056554 L 634.3292,662.838378 L 630.765553,666.402025 L 627.201906,669.965672 L 625.420082,675.311143 L 621.856435,678.87479 L 620.074612,682.438437 L 620.074612,684.220261 L 620.074612,686.002085 L 620.074612,689.565732 L 620.074612,693.129379 L 620.074612,696.693026 L 620.074612,700.256673 L 618.292788,705.602144 L 618.292788,710.947615 L 618.292788,716.293086 L 618.292788,723.42038 L 618.292788,726.984027 L 618.292788,732.329498 L 618.292788,737.674969 L 618.292788,743.02044 L 616.510964,748.365911 L 616.510964,753.711381 L 616.510964,759.056852 L 616.510964,762.620499 L 616.510964,769.747794 L 616.510964,775.093265 L 616.510964,778.656912 L 616.510964,784.002382 L 618.292788,789.347853 L 620.074612,794.693324 L 621.856435,800.038795 L 623.638259,805.384266 L 625.420082,810.729736 L 627.201906,812.51156 L 628.98373,816.075207 L 632.547377,819.638854 L 634.3292,821.420678 L 636.111024,824.984325 L 641.456495,826.766149 L 645.020142,828.547972 L 650.365613,828.547972 L 653.92926,828.547972 L 659.274731,828.547972 L 668.183849,828.547972 L 677.092967,828.547972 L 684.220261,828.547972 L 691.347555,828.547972 L 698.47485,830.329796 L 705.602144,830.329796 L 710.947615,830.329796 L 718.074909,828.547972 L 725.202204,828.547972 L 732.329498,826.766149 L 739.456793,824.984325 L 746.584087,824.984325 L 751.929558,823.202502 L 755.493205,823.202502 L 762.620499,821.420678 L 766.184147,821.420678 L 771.529617,819.638854 L 773.311441,819.638854 L 776.875088,817.857031 L 778.656912,817.857031 L 780.438735,817.857031 L 782.220559,817.857031 L 784.002382,817.857031 L 785.784206,817.857031 L 785.784206,816.075207 L 785.784206,805.384266 L 785.784206,794.693324 L 785.784206,791.129677 L 785.784206,789.347853 L 787.56603,784.002382 L 789.347853,778.656912 L 789.347853,775.093265 L 791.129677,771.529617 L 791.129677,767.96597 L 791.129677,762.620499 L 792.9115,759.056852 L 792.9115,751.929558 L 792.9115,743.02044 L 794.693324,735.893145 L 794.693324,730.547675 L 794.693324,726.984027 L 794.693324,721.638557 L 794.693324,714.511262 L 794.693324,709.165791 L 794.693324,702.038497 L 794.693324,694.911203 L 794.693324,687.783908 L 794.693324,680.656614 L 794.693324,675.311143 L 794.693324,673.52932 L 794.693324,671.747496 L 796.475148,661.056554 L 794.693324,627.201906 L 794.693324,600.474552 L 794.693324,591.565434 L 794.693324,584.43814 L 794.693324,571.965375 L 794.693324,559.492609 L 792.9115,548.801668 L 792.9115,539.89255 L 791.129677,534.547079 L 789.347853,522.074314 L 785.784206,504.256078 L 784.002382,490.001489 L 782.220559,473.965077 L 780.438735,465.055959 L 778.656912,450.80137 L 776.875088,443.674076 L 776.875088,438.328605 L 776.875088,434.764958 L 776.875088,429.419487 L 776.875088,425.85584 L 776.875088,420.510369 L 776.875088,415.164898 L 776.875088,411.601251 L 776.875088,406.25578 L 776.875088,400.910309 L 775.093265,392.001191 L 771.529617,384.873897 L 771.529617,379.528426 L 769.747794,370.619308 L 769.747794,359.928367 L 767.96597,352.801072 L 767.96597,345.673778 L 767.96597,340.328307 L 767.96597,336.76466 L 767.96597,331.419189 L 767.96597,326.073718 L 767.96597,320.728247 L 767.96597,313.600953 L 767.96597,306.473659 L 767.96597,299.346364 L 767.96597,294.000893 L 767.96597,286.873599 L 767.96597,283.309952 L 767.96597,277.964481 L 767.96597,276.182657 L 767.96597,274.400834 L 767.96597,272.61901 L 766.184147,270.837187 L 766.184147,269.055363 L 766.184147,267.273539 L 766.184147,265.491716 L 764.402323,254.800774 L 764.402323,247.67348 L 764.402323,245.891656 L 764.402323,244.109833 L 764.402323,236.982538 L 764.402323,231.637068 L 764.402323,226.291597 L 764.402323,224.509773 L 764.402323,220.946126 L 764.402323,219.164302 L 764.402323,217.382479 L 764.402323,213.818832 L 764.402323,210.255184 L 764.402323,206.691537 L 764.402323,204.909714 L 764.402323,203.12789 L 760.838676,203.12789 L 739.456793,208.473361 L 714.511262,215.600655 L 693.129379,222.72795 L 673.52932,228.07342 L 659.274731,231.637068 L 634.3292,236.982538 L 616.510964,240.546186 L 600.474552,242.328009 L 589.78361,244.109833 L 577.310845,247.67348 L 564.83808,249.455304 L 554.147139,253.018951 L 539.89255,256.582598 L 527.419785,258.364422 L 518.510667,261.928069 L 506.037901,265.491716 L 493.565136,269.055363 L 481.092371,272.61901 L 468.619606,276.182657 L 454.365017,279.746305 L 445.455899,283.309952 L 436.546781,286.873599 L 427.637663,290.437246 L 418.728545,292.21907 L 408.037604,295.782717 L 399.128486,297.564541 L 392.001191,299.346364 L 383.092073,302.910011 L 375.964779,304.691835 L 370.619308,304.691835 L 367.055661,304.691835 L 363.492014,304.691835 L 363.492014,306.473659 L 361.71019,308.255482 L 359.928367,308.255482 L 358.146543,308.255482 L 351.019249,311.819129 L 340.328307,313.600953 L 338.546483,313.600953 L 336.76466,313.600953 L 336.76466,315.382777 L 336.76466,320.728247 L 336.76466,331.419189 L 333.201013,336.76466 L 333.201013,345.673778 L 333.201013,351.019249 L 333.201013,359.928367 L 333.201013,377.746602 L 333.201013,397.346662 L 333.201013,413.383074 L 333.201013,422.292192 L 333.201013,429.419487 L 333.201013,431.20131 L 333.201013,436.546781 L 327.855542,457.928664 L 327.855542,475.7469 L 327.855542,486.437842 L 326.073718,498.910607 L 326.073718,509.601549 L 326.073718,518.510667 L 324.291895,530.983432 L 324.291895,539.89255 L 324.291895,548.801668 L 324.291895,559.492609 L 324.291895,570.183551 L 324.291895,582.656316 L 324.291895,593.347258 L 324.291895,600.474552 L 324.291895,607.601846 L 324.291895,614.729141 L 324.291895,621.856435 L 324.291895,628.98373 L 324.291895,632.547377 L 322.510071,636.111024 L 322.510071,639.674671 L 322.510071,641.456495 L 322.510071,643.238318 L 322.510071,645.020142 L 322.510071,646.801966 L 322.510071,648.583789 L 322.510071,653.92926 L 322.510071,657.492907 L 322.510071,659.274731 " transform="matrix(1,0,0,1,-5.391355228,-45.058379215)" fill="#000000" stroke="#000000" stroke-width="2"/>
		</g>
		<g>
			<path d="M323.400983,656.601995C323.400983,656.601995 330.528277,660.165643 330.528277,660.165643 " fill="none" stroke="#000000" stroke-width="2"/>
		</g>
	</g>
</g></g></svg>