<svg xmlns="http://www.w3.org/2000/svg" viewBox="0 0 40 40" width="40" height="40"><defs></defs><g>
<g>
	<g>
		<path d="M20,10.6875L 20.75,10.6875 L 21.375,10.6875 L 22,10.8125 L 22.5,10.9375 L 23,11.125 L 23.25,11.1875 L 23.4375,11.25 L 23.5625,11.375 L 23.6875,11.5 L 23.75,11.5625 L 23.75,11.6875 L 23.75,11.625 L 23.8125,11.4375 L 23.9375,11.25 L 24.125,11 L 24.5,10.5625 L 24.9375,10.1875 L 25.3125,9.875 L 25.8125,9.5 L 26.25,9.1875 L 26.8125,8.75 L 27.125,8.5 L 27.4375,8.3125 L 27.875,8 L 28.25,7.8125 L 28.5625,7.625 L 29,7.4375 L 29.5,7.3125 L 29.8125,7.3125 L 30,7.3125 L 30.25,7.25 L 30.375,7.25 L 30.375,7.3125 L 30.375,7.4375 L 30.25,7.8125 L 30.0625,8.25 L 29.9375,8.6875 L 29.875,8.9375 L 29.75,9.1875 L 29.75,9.4375 L 29.75,9.75 L 29.6875,10.375 L 29.625,10.625 L 29.625,11 L 29.625,11.4375 L 29.625,11.6875 L 29.5625,12.0625 L 29.5625,12.3125 L 29.5625,12.75 L 29.5625,13 L 29.5625,13.3125 L 29.5625,13.4375 L 29.625,13.8125 L 29.75,14.25 L 29.875,14.75 L 30.1875,15.4375 L 30.4375,15.9375 L 30.6875,16.5625 L 30.9375,17.125 L 31.1875,17.625 L 31.375,18.1875 L 31.6875,18.8125 L 31.875,19.3125 L 32.0625,19.75 L 32.25,20.25 L 32.3125,20.6875 L 32.4375,21.0625 L 32.4375,21.4375 L 32.5,22.0625 L 32.5,22.4375 L 32.5,22.75 L 32.5,23.0625 L 32.5,23.375 L 32.375,23.75 L 32.25,24.1875 L 32.0625,24.625 L 31.875,25.0625 L 31.375,25.75 L 30.875,26.3125 L 30.5,26.75 L 29.6875,27.375 L 28.9375,27.75 L 28.25,27.9375 L 27.5,28.125 L 26.75,28.1875 L 26.1875,28.1875 L 25.875,28.1875 L 25.6875,28.1875 L 25.625,28.1875 L 25.5,28.1875 L 25.25,28.1875 L 25.0625,28.1875 L 25,28.1875 L 24.9375,28.25 L 24.875,28.4375 L 24.875,28.9375 L 24.875,29.5625 L 24.8125,30.0625 L 25,30.625 L 25.1875,31.125 L 25.375,31.6875 L 25.5625,32.1875 L 25.6875,32.625 L 25.8125,33.125 L 26,33.6875 L 26.125,34.375 L 26.125,34.75 L 26.3125,35.1875 L 26.3125,35.5625 L 26.375,35.8125 L 26.4375,36.125 L 26.4375,36.25 L 26.5,36.3125 L 26.5625,36.5 L 26.625,36.6875 L 26.625,36.8125 L 26.6875,36.8125 L 26.875,36.8125 L 27.125,36.75 L 27.6875,36.6875 L 28.1875,36.6875 L 28.375,36.625 L 28.6875,36.625 L 29.0625,36.5625 L 29.625,36.375 L 30.5,36.1875 L 31.1875,36 L 31.8125,35.625 L 32.4375,35.1875 L 33,34.6875 L 33.625,34.125 L 34,33.625 L 34.3125,33.125 L 34.3125,33.0625 L 34.3125,32.875 L 34.625,31.875 L 34.6875,31.3125 L 34.875,30.75 L 35.0625,30.375 L 35.1875,29.9375 L 35.375,29.25 L 35.5,28.875 L 35.4375,27.375 L 35.1875,26.5625 L 34.9375,26.1875 L 34.9375,26.0625 L 34.9375,25.4375 L 34.9375,24.75 L 34.9375,24.25 L 35.0625,23.5625 L 35.8125,21.8125 L 36.375,20.125 L 36.375,19.9375 L 36.3125,19.75 L 36.0625,19.375 L 36,19.1875 L 36,18.5 L 36.125,17.5 L 36.125,16.875 L 36.125,16.125 L 36.0625,15.6875 L 35.75,14.5625 L 35.5625,13 L 35.5625,12.0625 L 35.5625,11.4375 L 35.4375,10.625 L 35.125,9.4375 L 34.875,8.4375 L 34.0625,6.5625 L 33.9375,6.375 L 33.9375,6.3125 L 33.9375,6.1875 L 33.875,6.125 L 33.6875,5.75 L 33.5,5.5625 L 32.9375,5.3125 L 32,5 L 31.375,4.875 L 30.5625,4.875 L 29.4375,4.8125 L 27.875,4.625 L 26.6875,4.5 L 25,4.125 L 24.625,4.125 L 24.125,4 L 23.375,3.875 L 22.125,3.75 L 20.875,3.625 L 20.6875,3.625 L 20.3125,3.5625 L 18.5625,3.5 L 17.1875,3.5625 L 16.125,3.625 L 15.125,3.8125 L 14.125,3.9375 L 13.3125,4 L 12.4375,4.125 L 11.6875,4.3125 L 10.5625,4.5625 L 9.625,4.8125 L 8.8125,5.125 L 7.875,5.375 L 7.4375,5.5625 L 6.8125,5.75 L 6.375,6 L 5.9375,6.25 L 5.4375,6.5625 L 4.875,6.9375 L 4.5625,7.1875 L 4.4375,7.3125 L 4.4375,7.375 L 4.3125,7.875 L 4.0625,8.5625 L 4.0625,9.4375 L 4.0625,10.1875 L 4.0625,11 L 4.0625,11.625 L 4.0625,12.0625 L 4.0625,12.8125 L 4,13.375 L 4,13.8125 L 4,14.0625 L 4,14.6875 L 4,14.875 L 4.0625,14.875 L 4.25,14.875 L 4.375,14.875 L 4.375,14.9375 L 4.375,15 L 4.375,15.0625 L 4.375,15.375 L 4.4375,15.8125 L 4.4375,15.9375 L 4.375,16 L 4.375,16.1875 L 4.375,16.3125 L 4.375,16.5625 L 4.3125,16.75 L 4.3125,16.9375 L 4.3125,17.5625 L 4.25,18 L 4.3125,18.625 L 4.375,19.25 L 4.4375,20 L 4.4375,20.25 L 4.4375,20.6875 L 4.4375,21.875 L 4.5,22.9375 L 4.625,24.25 L 4.625,24.8125 L 4.6875,25.625 L 4.75,26.1875 L 4.75,26.6875 L 4.75,26.875 L 4.75,27 L 4.75,27.1875 L 4.875,27.75 L 4.9375,28.1875 L 5.125,28.8125 L 5.375,29.5 L 5.8125,30.625 L 6.125,31.3125 L 6.5,31.9375 L 6.75,32.625 L 7,33.3125 L 7.125,33.625 L 7.25,33.8125 L 7.375,34 L 7.5,34.1875 L 7.6875,34.5 L 7.875,34.6875 L 8,34.875 L 8.25,35.25 L 8.625,35.8125 L 9.0625,36.25 L 9.5,36.5625 L 9.75,36.625 L 10.125,36.6875 L 10.8125,36.8125 L 11.4375,36.9375 L 11.875,36.9375 L 12.1875,36.9375 L 12.4375,36.9375 L 12.8125,36.9375 L 13,36.9375 L 13.25,36.8125 L 13.4375,36.75 L 13.625,36.6875 L 13.8125,36.6875 L 14,36.6875 L 14.125,36.625 L 14.1875,36.625 L 14.25,36.625 L 14.25,36.5625 L 14.3125,36.375 L 14.375,35.9375 L 14.4375,35.3125 L 14.5,35.125 L 14.5,35.0625 L 14.5,35 L 14.5,34.8125 L 14.5,34.25 L 14.5,33.6875 L 14.5,33.1875 L 14.4375,32.4375 L 14.4375,31.4375 L 14.3125,30.9375 L 14.25,30.5625 L 14.125,30.5 L 14.0625,30.5 L 13.75,30.4375 L 13.5625,30.5 L 13,30.5 L 12.3125,30.5 L 11.6875,30.5625 L 11.125,30.5 L 10.5625,30.3125 L 9.875,30.125 L 9.5,29.875 L 9.1875,29.6875 L 8.8125,29.25 L 8.3125,28.25 L 8.125,27.8125 L 7.8125,27.375 L 7.6875,27.25 L 7.5625,27.1875 L 7.3125,27 L 7,26.5625 L 6.6875,26.125 L 6.4375,25.375 L 6.25,24.75 L 6.1875,24.1875 L 6.25,23.9375 L 6.375,23.8125 L 6.75,23.625 L 7.25,23.4375 L 7.5625,23.375 L 7.875,23.375 L 8.25,23.5625 L 8.5625,23.875 L 8.6875,24.125 L 8.8125,24.5625 L 8.875,24.8125 L 9,25 L 9,25.1875 L 9.125,25.375 L 9.125,25.4375 L 9.1875,25.5 L 9.3125,25.625 L 9.625,25.875 L 10,26.1875 L 10.3125,26.375 L 10.4375,26.4375 L 10.5,26.4375 L 10.6875,26.5 L 10.875,26.5 L 10.9375,26.5 L 11.125,26.5 L 11.25,26.5 L 11.4375,26.5 L 11.5,26.5 L 11.5625,26.5 L 11.6875,26.6875 L 11.875,26.75 L 12.0625,26.875 L 12.25,26.875 L 12.375,26.9375 L 12.625,27 L 12.8125,27.0625 L 12.9375,27.125 L 13.0625,27.1875 L 13.25,27.25 L 13.4375,27.3125 L 13.625,27.3125 L 13.8125,27.3125 L 13.9375,27.3125 L 13.9375,27.25 L 14.0625,26.8125 L 14.4375,26.3125 L 14.75,25.75 L 14.875,25.5 L 14.875,25.3125 L 14.9375,24.8125 L 14.9375,24.5 L 14.9375,24.375 L 14.875,24.25 L 14.625,24 L 14.3125,23.8125 L 13.8125,23.375 L 13.375,23.0625 L 13.25,23 L 13.125,22.875 L 13.0625,22.8125 L 12.9375,22.75 L 12.875,22.75 L 12.3125,22.1875 L 11.9375,21.75 L 11.25,20.8125 L 10.3125,19.6875 L 9.9375,19.0625 L 9.4375,18.0625 L 9.1875,17.5625 L 8.875,16.875 L 8.625,16.3125 L 8.125,14.8125 L 8.0625,13.375 L 8.125,12.4375 L 8.25,11.875 L 8.5,11.5625 L 8.6875,11.375 L 8.8125,11.375 L 9,11.3125 L 9.375,11.1875 L 10.125,10.9375 L 10.625,10.8125 L 10.625,10.5625 L 10.375,9.5625 L 10.0625,7.9375 L 10,7.4375 L 10.0625,7.125 L 10.25,6.625 L 10.5,6.3125 L 10.8125,6.0625 L 11.3125,5.8125 L 11.5,5.5625 L 11.6875,5.5 L 11.875,5.5 L 11.9375,5.5 L 12.875,6.875 L 13.1875,7.25 L 13.5,7.6875 L 14,8.3125 L 14.3125,9.125 L 14.4375,9.625 L 14.5,9.875 L 14.5,10 L 14.5,10.0625 L 14.625,10.0625 L 15.5625,10 L 16.8125,10 L 17.375,10 L 18,10.125 L 18.5625,10.25 L 19.75,10.625 L 20.1875,10.75 L 20.4375,10.75 L 20.4375,10.8125 " transform="matrix(1.138229213,0,0,1.138229213,-2.978002242,-3.013571904)" fill="#000000" stroke="#000000"/>
	</g>
</g></g></svg>