<svg xmlns="http://www.w3.org/2000/svg" viewBox="0 0 40 40" width="40" height="40"><defs></defs><g>
<g>
	<g>
		<g>
			<path d="M19.81523,6.585723L 20.84994,6.622677 L 20.886894,6.622677 L 20.960802,6.622677 L 21.293388,6.622677 L 21.589019,6.622677 L 21.662927,6.622677 L 22.217236,6.622677 L 22.919361,6.585723 L 23.510623,6.659631 L 23.880163,6.696585 L 24.175794,6.696585 L 24.471426,6.733539 L 24.656195,6.733539 L 24.693149,6.733539 L 25.284412,6.770493 L 25.875675,6.770493 L 26.356076,6.807447 L 26.725615,6.881355 L 27.132109,6.918309 L 27.464694,6.918309 L 27.797279,6.918309 L 28.092911,6.918309 L 28.351588,6.918309 L 28.64722,6.955263 L 29.016759,7.066124 L 29.349344,7.140032 L 29.644976,7.250894 L 29.940607,7.361756 L 30.199285,7.472618 L 30.310147,7.509571 L 30.310147,7.546525 L 30.384054,7.583479 L 30.605778,7.768249 L 30.864456,7.989973 L 31.049225,8.285604 L 31.197041,8.544282 L 31.344857,8.766005 L 31.418765,8.876867 L 31.492672,8.987729 L 31.603534,9.172498 L 31.640488,9.357268 L 31.640488,9.431176 L 31.677442,9.542038 L 31.788304,9.874623 L 31.899166,10.281116 L 31.93612,10.687609 L 32.010027,11.094103 L 32.083935,11.389734 L 32.083935,11.574504 L 32.120889,11.796227 L 32.157843,12.054905 L 32.194797,12.38749 L 32.231751,12.683122 L 32.268705,12.941799 L 32.305659,13.274385 L 32.379567,13.570016 L 32.379567,13.680878 L 32.379567,13.79174 L 32.453475,14.272141 L 32.490429,14.752542 L 32.490429,15.159035 L 32.527382,15.565528 L 32.527382,15.86116 L 32.527382,16.119837 L 32.564336,16.452423 L 32.60129,16.7111 L 32.638244,17.080639 L 32.675198,17.376271 L 32.712152,17.634948 L 32.749106,17.856672 L 32.749106,18.11535 L 32.749106,18.374027 L 32.749106,18.78052 L 32.749106,19.15006 L 32.749106,19.445691 L 32.749106,19.81523 L 32.712152,20.073908 L 32.712152,20.332585 L 32.675198,20.628217 L 32.675198,20.739079 L 32.638244,20.812986 L 32.564336,21.182526 L 32.564336,21.589019 L 32.453475,22.06942 L 32.416521,22.512867 L 32.379567,22.845453 L 32.379567,23.178038 L 32.305659,23.547577 L 32.305659,23.843209 L 32.305659,24.212748 L 32.305659,24.582287 L 32.268705,24.914873 L 32.231751,25.321366 L 32.157843,25.690905 L 32.120889,26.023491 L 32.010027,26.356076 L 31.93612,26.688661 L 31.862212,27.021247 L 31.825258,27.353832 L 31.75135,27.760325 L 31.714396,28.019003 L 31.677442,28.27768 L 31.603534,28.573312 L 31.56658,28.831989 L 31.492672,29.090667 L 31.418765,29.386298 L 31.307903,29.644976 L 31.233995,29.829746 L 31.049225,30.051469 L 30.938363,30.236239 L 30.790548,30.457962 L 30.568824,30.679686 L 30.421008,30.938363 L 30.236239,31.123133 L 30.088423,31.270949 L 29.903653,31.455718 L 29.755838,31.640488 L 29.571068,31.788304 L 29.349344,31.93612 L 29.090667,32.083935 L 28.905897,32.268705 L 28.684174,32.416521 L 28.499404,32.527382 L 28.351588,32.638244 L 28.166819,32.712152 L 28.092911,32.675198 L 28.055957,32.675198 L 27.945095,32.712152 L 27.723371,32.78606 L 27.464694,32.859968 L 27.132109,32.933876 L 26.836477,32.97083 L 26.503892,33.007784 L 26.282168,33.007784 L 25.986537,33.044737 L 25.764813,33.044737 L 25.616997,33.044737 L 25.35832,33.081691 L 25.136596,33.081691 L 24.988781,33.081691 L 24.767057,33.118645 L 24.471426,33.192553 L 23.880163,33.266461 L 23.547577,33.303415 L 23.2889,33.340369 L 23.067176,33.377323 L 22.586775,33.414277 L 22.328098,33.414277 L 22.06942,33.414277 L 21.921604,33.451231 L 21.773789,33.451231 L 21.589019,33.488185 L 21.478157,33.525139 L 21.441203,33.525139 L 21.145572,33.525139 L 20.665171,33.525139 L 20.221724,33.525139 L 19.741322,33.525139 L 19.371783,33.525139 L 19.039198,33.525139 L 18.78052,33.525139 L 18.521843,33.525139 L 18.337073,33.599046 L 18.11535,33.599046 L 17.856672,33.636 L 17.561041,33.636 L 17.302363,33.636 L 16.858916,33.636 L 16.378515,33.636 L 15.898114,33.672954 L 15.602482,33.672954 L 15.343805,33.672954 L 15.011219,33.672954 L 14.604726,33.599046 L 14.309095,33.525139 L 14.013463,33.414277 L 13.643924,33.303415 L 13.274385,33.155599 L 13.015707,33.081691 L 12.793984,33.081691 L 12.646168,32.97083 L 12.239675,32.78606 L 11.907089,32.60129 L 11.648412,32.453475 L 11.35278,32.305659 L 11.057149,32.157843 L 10.798471,31.973074 L 10.539794,31.862212 L 10.244162,31.677442 L 9.985485,31.418765 L 9.763761,31.160087 L 9.652899,30.975317 L 9.615946,30.71664 L 9.542038,30.568824 L 9.505084,30.421008 L 9.394222,30.199285 L 9.28336,29.940607 L 9.135544,29.534114 L 8.987729,29.164575 L 8.839913,28.868943 L 8.692097,28.610266 L 8.692097,28.573312 L 8.581235,28.240727 L 8.322558,27.61251 L 8.211696,27.132109 L 8.06388,26.873431 L 8.026926,26.614754 L 7.989973,26.39303 L 7.953019,26.097399 L 7.916065,25.838721 L 7.916065,25.506136 L 7.879111,25.099642 L 7.879111,24.767057 L 7.879111,24.360564 L 7.805203,23.843209 L 7.768249,23.362808 L 7.768249,23.251946 L 7.768249,23.214992 L 7.694341,22.402005 L 7.620433,21.995512 L 7.583479,21.515111 L 7.546525,21.108618 L 7.509571,20.628217 L 7.472618,20.221724 L 7.472618,19.81523 L 7.472618,19.445691 L 7.472618,19.002244 L 7.472618,18.743566 L 7.472618,18.337073 L 7.472618,17.967534 L 7.472618,17.74581 L 7.39871,17.634948 L 7.324802,17.117593 L 7.287848,16.378515 L 7.250894,15.787252 L 7.250894,15.380759 L 7.250894,15.085127 L 7.250894,14.678634 L 7.250894,14.272141 L 7.250894,13.60697 L 7.287848,12.978753 L 7.324802,12.498352 L 7.361756,11.980997 L 7.39871,11.685366 L 7.435664,11.426688 L 7.435664,11.241918 L 7.472618,11.020195 L 7.583479,10.650656 L 7.731295,10.170254 L 7.879111,9.763761 L 8.06388,9.357268 L 8.174742,9.209452 L 8.211696,9.172498 L 8.396466,8.913821 L 8.581235,8.581235 L 8.692097,8.43342 L 8.839913,8.322558 L 9.061637,8.174742 L 9.46813,8.026926 L 9.837669,7.842157 L 10.170254,7.768249 L 10.31807,7.731295 L 10.539794,7.620433 L 10.835425,7.509571 L 11.168011,7.39871 L 11.53755,7.39871 L 11.574504,7.39871 L 11.648412,7.361756 L 12.276629,7.287848 L 12.867891,7.21394 L 13.385246,7.140032 L 13.828694,7.066124 L 14.235187,6.955263 L 14.604726,6.807447 L 15.048173,6.696585 L 15.49162,6.622677 L 15.898114,6.585723 L 16.341561,6.511815 L 16.7111,6.511815 L 17.080639,6.474861 L 17.376271,6.437907 L 17.671902,6.400954 L 17.93058,6.400954 L 18.226211,6.364 L 18.521843,6.364 L 18.743566,6.327046 L 18.928336,6.327046 L 19.039198,6.327046 L 19.15006,6.327046 L 19.260921,6.327046 L 19.371783,6.327046 L 19.519599,6.327046 L 19.556553,6.327046 L 19.593507,6.327046 L 19.630461,6.364 L 19.667415,6.364 L 19.704369,6.364 L 19.778276,6.437907 L 19.81523,6.437907 L 19.81523,6.474861 L 19.889138,6.511815 L 19.889138,6.548769 " fill="none" stroke="#000000"/>
		</g>
		<g>
			<path d="M30.275,8.25L 29.975,10.6 L 28.875,11.075 L 27.825,10.75 L 27.05,10.1 L 26.925,9.225 L 27.05,8.375 L 27.375,7.925 L 28.475,7.675 L 29.45,7.5 L 30.025,7.4 L 30.35,7.425 L 30.425,7.65 L 30.4,7.8 L 30.35,7.9 L 30.325,7.975 L 30.325,8 C30.325,8 30.275,8.25 30.275,8.25 Z" transform="matrix(0.912265188,0,0,0.912265188,0.545270038,3.563179313)" fill="#000000" stroke="#000000"/>
		</g>
		<g>
			<path d="M20.892313,16.776685L 21.269317,16.839519 L 21.709155,16.996604 L 22.148994,17.090855 L 22.525998,17.342191 L 22.997253,17.687778 L 23.594176,18.127616 L 23.876929,18.50462 L 24.128265,18.81879 L 24.379601,19.164377 L 24.662355,19.66705 L 24.788023,19.949803 L 25.070776,20.829479 L 25.13361,21.112232 L 25.165027,21.363568 L 25.165027,21.614904 L 25.165027,21.803406 L 25.165027,22.054743 L 25.165027,22.337496 L 25.13361,22.651666 L 25.102193,22.997253 L 25.070776,23.374257 L 25.039359,23.625593 L 24.976525,23.908346 L 24.882274,24.159682 L 24.756606,24.379601 L 24.662355,24.630938 L 24.568104,24.788023 L 24.536687,24.850857 L 24.379601,25.102193 L 24.191099,25.44778 L 23.97118,25.824784 L 23.814095,26.07612 L 23.594176,26.327456 L 23.374257,26.484541 L 23.122921,26.70446 L 22.745917,26.892962 L 22.274662,27.018631 L 21.709155,27.175716 L 21.269317,27.301384 L 20.955147,27.427052 L 20.672394,27.55272 L 20.421058,27.646971 L 20.106888,27.772639 L 19.761301,27.929724 L 19.070126,28.086809 L 18.693122,28.149643 L 18.378952,28.212477 L 18.001948,28.243894 L 17.719195,28.243894 L 17.436442,28.212477 L 17.153689,28.212477 L 17.122272,28.212477 L 17.059438,28.149643 L 16.839519,27.929724 L 16.588182,27.709805 L 16.336846,27.55272 L 16.116927,27.427052 L 15.991259,27.269967 L 15.77134,27.050048 L 15.677089,26.955797 L 15.520004,26.830128 L 15.331502,26.578792 L 15.111583,26.358873 L 14.923081,26.138954 L 14.734579,25.950452 L 14.546077,25.667699 L 14.357575,25.353529 L 14.231907,25.039359 L 14.137656,24.850857 L 14.106238,24.662355 L 14.106238,24.599521 L 14.074821,24.28535 L 14.043404,23.939763 L 14.011987,23.625593 L 13.98057,23.405674 L 13.98057,23.185755 L 13.98057,22.965836 L 13.98057,22.7145 L 13.949153,22.40033 L 13.949153,21.929075 L 13.98057,21.489236 L 14.011987,21.206483 L 14.074821,20.955147 L 14.20049,20.640977 L 14.326158,20.29539 L 14.420409,19.98122 L 14.640328,19.761301 L 14.797413,19.541382 L 14.954498,19.290046 L 15.143,19.038709 L 15.331502,18.787373 L 15.520004,18.567454 L 15.645672,18.347535 L 15.865591,18.19045 L 16.054093,17.970531 L 16.305429,17.750612 L 16.588182,17.499276 L 16.902353,17.279357 L 17.216523,17.059438 L 17.436442,16.965187 L 17.656361,16.839519 L 17.844863,16.745268 L 18.064782,16.682433 L 18.253284,16.651016 L 18.378952,16.619599 L 18.567454,16.619599 L 18.724539,16.588182 L 18.850207,16.556765 L 19.007292,16.525348 L 19.195794,16.462514 L 19.35288,16.462514 L 19.447131,16.462514 L 19.572799,16.462514 L 19.635633,16.462514 L 19.698467,16.462514 L 19.729884,16.462514 L 19.761301,16.462514 L 19.792718,16.431097 L 19.855552,16.431097 L 19.98122,16.493931 L 20.075471,16.493931 L 20.106888,16.493931 L 20.138305,16.525348 L 20.169722,16.556765 L 20.201139,16.556765 L 20.232556,16.556765 L 20.263973,16.556765 L 20.29539,16.556765 L 20.326807,16.556765 L 20.326807,16.588182 L 20.358224,16.619599 L 20.421058,16.619599 L 20.452475,16.651016 M20.29539,16.713851L 20.483892,16.745268 L 20.672394,16.776685 L 20.798062,16.776685 L 20.829479,16.776685 L 20.829479,16.808102 L 20.860896,16.808102 L 20.892313,16.808102 L 20.92373,16.808102 " transform="matrix(0.82465457,0,0,0.82465457,3.429246374,3.916777786)" fill="none" stroke="#000000"/>
		</g>
	</g>
</g></g></svg>