<svg xmlns="http://www.w3.org/2000/svg" viewBox="0 0 40 40" width="40" height="40"><defs></defs><g>
<g>
	<g>
		<g transform="matrix(0.047505944,0,0,0.047505944,-5.653209962,-5.653209962)">
			<path d="M218.380485,186.218533C218.380485,186.218533 223.74081,175.497883 223.74081,175.497883 C223.74081,175.497883 221.060647,172.81772 221.060647,172.81772 C221.060647,172.81772 218.380485,172.81772 218.380485,172.81772 C218.380485,172.81772 215.700322,172.81772 215.700322,172.81772 C215.700322,172.81772 213.020159,172.81772 213.020159,172.81772 C213.020159,172.81772 210.339997,172.81772 210.339997,172.81772 C210.339997,172.81772 207.659834,172.81772 207.659834,172.81772 C207.659834,172.81772 204.979671,172.81772 204.979671,172.81772 C204.979671,172.81772 199.619346,172.81772 199.619346,172.81772 C199.619346,172.81772 196.939184,172.81772 196.939184,172.81772 C196.939184,172.81772 194.259021,172.81772 194.259021,172.81772 C194.259021,172.81772 188.898696,172.81772 188.898696,172.81772 C188.898696,172.81772 183.53837,172.81772 183.53837,172.81772 C183.53837,172.81772 178.178045,172.81772 178.178045,172.81772 C178.178045,172.81772 172.81772,172.81772 172.81772,172.81772 C172.81772,172.81772 167.457395,178.178045 167.457395,178.178045 C167.457395,178.178045 164.777232,183.53837 164.777232,183.53837 C164.777232,183.53837 159.416907,183.53837 159.416907,183.53837 C159.416907,183.53837 154.056582,183.53837 154.056582,183.53837 C154.056582,183.53837 148.696256,183.53837 148.696256,183.53837 C148.696256,183.53837 143.335931,183.53837 143.335931,183.53837 C143.335931,183.53837 140.655768,183.53837 140.655768,183.53837 C140.655768,183.53837 135.295443,183.53837 135.295443,183.53837 C135.295443,183.53837 132.61528,183.53837 132.61528,183.53837 C132.61528,183.53837 129.935118,183.53837 129.935118,183.53837 C129.935118,183.53837 129.935118,188.898696 129.935118,188.898696 C129.935118,188.898696 129.935118,194.259021 129.935118,194.259021 C129.935118,194.259021 129.935118,196.939184 129.935118,196.939184 C129.935118,196.939184 129.935118,204.979671 129.935118,204.979671 C129.935118,204.979671 129.935118,210.339997 129.935118,210.339997 C129.935118,210.339997 129.935118,223.74081 129.935118,223.74081 C129.935118,223.74081 129.935118,253.222599 129.935118,253.222599 C129.935118,253.222599 127.254955,296.105201 127.254955,296.105201 C127.254955,296.105201 127.254955,336.30764 127.254955,336.30764 C127.254955,336.30764 127.254955,371.149754 127.254955,371.149754 C127.254955,371.149754 127.254955,405.991869 127.254955,405.991869 C127.254955,405.991869 127.254955,435.473657 127.254955,435.473657 C127.254955,435.473657 127.254955,456.914959 127.254955,456.914959 C127.254955,456.914959 127.254955,475.676097 127.254955,475.676097 C127.254955,475.676097 127.254955,513.198374 127.254955,513.198374 C127.254955,513.198374 127.254955,545.360325 127.254955,545.360325 C127.254955,545.360325 129.935118,580.202439 129.935118,580.202439 C129.935118,580.202439 132.61528,617.724716 132.61528,617.724716 C132.61528,617.724716 135.295443,644.526343 135.295443,644.526343 C135.295443,644.526343 135.295443,655.246993 135.295443,655.246993 C135.295443,655.246993 137.975606,655.246993 137.975606,655.246993 C137.975606,655.246993 143.335931,684.728782 143.335931,684.728782 C143.335931,684.728782 143.335931,716.890733 143.335931,716.890733 C143.335931,716.890733 143.335931,735.651872 143.335931,735.651872 C143.335931,735.651872 143.335931,754.41301 143.335931,754.41301 C143.335931,754.41301 143.335931,770.493986 143.335931,770.493986 C143.335931,770.493986 143.335931,778.534474 143.335931,778.534474 C143.335931,778.534474 143.335931,810.696425 143.335931,810.696425 C143.335931,810.696425 148.696256,861.619515 148.696256,861.619515 C148.696256,861.619515 154.056582,917.902931 154.056582,917.902931 C154.056582,917.902931 156.736744,933.983906 156.736744,933.983906 C156.736744,933.983906 162.097069,933.983906 162.097069,933.983906 C162.097069,933.983906 172.81772,931.303744 172.81772,931.303744 C172.81772,931.303744 183.53837,925.943418 183.53837,925.943418 C183.53837,925.943418 188.898696,925.943418 188.898696,925.943418 C188.898696,925.943418 191.578858,925.943418 191.578858,925.943418 C191.578858,925.943418 196.939184,925.943418 196.939184,925.943418 C196.939184,925.943418 210.339997,925.943418 210.339997,925.943418 C210.339997,925.943418 229.101135,925.943418 229.101135,925.943418 C229.101135,925.943418 242.501948,925.943418 242.501948,925.943418 C242.501948,925.943418 258.582924,925.943418 258.582924,925.943418 C258.582924,925.943418 280.024225,925.943418 280.024225,925.943418 C280.024225,925.943418 304.145689,925.943418 304.145689,925.943418 C304.145689,925.943418 325.58699,925.943418 325.58699,925.943418 C325.58699,925.943418 347.028291,925.943418 347.028291,925.943418 C347.028291,925.943418 376.51008,928.623581 376.51008,928.623581 C376.51008,928.623581 416.712519,931.303744 416.712519,931.303744 C416.712519,931.303744 446.194308,931.303744 446.194308,931.303744 C446.194308,931.303744 464.955446,931.303744 464.955446,931.303744 C464.955446,931.303744 502.477723,931.303744 502.477723,931.303744 C502.477723,931.303744 531.959512,931.303744 531.959512,931.303744 C531.959512,931.303744 585.562765,936.664069 585.562765,936.664069 C585.562765,936.664069 633.805692,939.344232 633.805692,939.344232 C633.805692,939.344232 684.728782,939.344232 684.728782,939.344232 C684.728782,939.344232 749.052685,942.024394 749.052685,942.024394 C749.052685,942.024394 781.214637,942.024394 781.214637,942.024394 C781.214637,942.024394 858.939353,936.664069 858.939353,936.664069 C858.939353,936.664069 915.222768,925.943418 915.222768,925.943418 C915.222768,925.943418 942.024394,925.943418 942.024394,925.943418 C942.024394,925.943418 952.745045,923.263256 952.745045,923.263256 C952.745045,923.263256 952.745045,920.583093 952.745045,920.583093 C952.745045,920.583093 950.064882,915.222768 950.064882,915.222768 C950.064882,915.222768 947.38472,901.821955 947.38472,901.821955 C947.38472,901.821955 947.38472,883.060816 947.38472,883.060816 C947.38472,883.060816 947.38472,875.020329 947.38472,875.020329 C947.38472,875.020329 947.38472,869.660003 947.38472,869.660003 C947.38472,869.660003 947.38472,864.299678 947.38472,864.299678 C947.38472,864.299678 947.38472,848.218702 947.38472,848.218702 C947.38472,848.218702 947.38472,832.137726 947.38472,832.137726 C947.38472,832.137726 947.38472,824.097239 947.38472,824.097239 C947.38472,824.097239 947.38472,818.736913 947.38472,818.736913 C947.38472,818.736913 947.38472,808.016263 947.38472,808.016263 C947.38472,808.016263 942.024394,789.255124 942.024394,789.255124 C942.024394,789.255124 942.024394,770.493986 942.024394,770.493986 C942.024394,770.493986 939.344232,746.372522 939.344232,746.372522 C939.344232,746.372522 933.983906,714.210571 933.983906,714.210571 C933.983906,714.210571 928.623581,679.368457 928.623581,679.368457 C928.623581,679.368457 928.623581,660.607318 928.623581,660.607318 C928.623581,660.607318 928.623581,641.84618 928.623581,641.84618 C928.623581,641.84618 928.623581,628.445367 928.623581,628.445367 C928.623581,628.445367 928.623581,612.364391 928.623581,612.364391 C928.623581,612.364391 928.623581,604.323903 928.623581,604.323903 C928.623581,604.323903 928.623581,598.963578 928.623581,598.963578 C928.623581,598.963578 928.623581,585.562765 928.623581,585.562765 C928.623581,585.562765 928.623581,545.360325 928.623581,545.360325 C928.623581,545.360325 925.943418,499.797561 925.943418,499.797561 C925.943418,499.797561 931.303744,454.234796 931.303744,454.234796 C931.303744,454.234796 936.664069,446.194308 936.664069,446.194308 C936.664069,446.194308 933.983906,438.15382 933.983906,438.15382 C933.983906,438.15382 928.623581,416.712519 928.623581,416.712519 C928.623581,416.712519 917.902931,379.190242 917.902931,379.190242 C917.902931,379.190242 907.18228,328.267152 907.18228,328.267152 C907.18228,328.267152 896.46163,282.704388 896.46163,282.704388 C896.46163,282.704388 888.421142,258.582924 888.421142,258.582924 C888.421142,258.582924 883.060816,231.781298 883.060816,231.781298 C883.060816,231.781298 877.700491,207.659834 877.700491,207.659834 C877.700491,207.659834 869.660003,186.218533 869.660003,186.218533 C869.660003,186.218533 869.660003,170.137557 869.660003,170.137557 C869.660003,170.137557 866.979841,159.416907 866.979841,159.416907 C866.979841,159.416907 858.939353,154.056582 858.939353,154.056582 C858.939353,154.056582 845.53854,146.016094 845.53854,146.016094 C845.53854,146.016094 832.137726,143.335931 832.137726,143.335931 C832.137726,143.335931 810.696425,140.655768 810.696425,140.655768 C810.696425,140.655768 789.255124,137.975606 789.255124,137.975606 C789.255124,137.975606 757.093173,137.975606 757.093173,137.975606 C757.093173,137.975606 714.210571,140.655768 714.210571,140.655768 C714.210571,140.655768 679.368457,143.335931 679.368457,143.335931 C679.368457,143.335931 628.445367,143.335931 628.445367,143.335931 C628.445367,143.335931 566.801626,143.335931 566.801626,143.335931 C566.801626,143.335931 505.157886,148.696256 505.157886,148.696256 C505.157886,148.696256 499.797561,148.696256 499.797561,148.696256 C499.797561,148.696256 475.676097,148.696256 475.676097,148.696256 C475.676097,148.696256 443.514145,151.376419 443.514145,151.376419 C443.514145,151.376419 400.631543,156.736744 400.631543,156.736744 C400.631543,156.736744 352.388616,164.777232 352.388616,164.777232 C352.388616,164.777232 218.380485,186.218533 218.380485,186.218533 L 218.380485,186.218533 ZM321.566746,253.182257C321.566746,253.182257 357.723421,254.758178 357.723421,254.758178 C357.723421,254.758178 376.634481,273.669238 376.634481,273.669238 C376.634481,273.669238 392.393698,297.308063 392.393698,297.308063 C392.393698,297.308063 392.393698,327.250575 392.393698,327.250575 C392.393698,327.250575 379.786324,358.769008 379.786324,358.769008 C379.786324,358.769008 356.980222,388.71152 356.980222,388.71152 C356.980222,388.71152 321.566746,401.318893 321.566746,401.318893 C321.566746,401.318893 289.958789,401.318893 289.958789,401.318893 C289.958789,401.318893 267.895886,401.318893 267.895886,401.318893 C267.895886,401.318893 231.781298,385.559677 231.781298,385.559677 C231.781298,385.559677 215.890471,361.920852 215.890471,361.920852 C215.890471,361.920852 215.890471,327.250575 215.890471,327.250575 C215.890471,327.250575 215.890471,294.15622 215.890471,294.15622 C215.890471,294.15622 224.400448,274.614791 224.400448,274.614791 C224.400448,274.614791 237.63819,259.485943 237.63819,259.485943 C237.63819,259.485943 264.113674,246.248201 264.113674,246.248201 C264.113674,246.248201 293.110633,246.248201 293.110633,246.248201 C293.110633,246.248201 321.566746,253.182257 321.566746,253.182257 L 321.566746,253.182257 ZM237.141623,464.955446C237.141623,464.955446 231.781298,454.234796 231.781298,454.234796 C231.781298,454.234796 234.46146,454.234796 234.46146,454.234796 C234.46146,454.234796 237.141623,454.234796 237.141623,454.234796 C237.141623,454.234796 242.501948,454.234796 242.501948,454.234796 C242.501948,454.234796 250.542436,454.234796 250.542436,454.234796 C250.542436,454.234796 253.222599,454.234796 253.222599,454.234796 C253.222599,454.234796 255.902761,454.234796 255.902761,454.234796 C255.902761,454.234796 258.582924,454.234796 258.582924,454.234796 C258.582924,454.234796 261.263087,454.234796 261.263087,454.234796 C261.263087,454.234796 266.623412,454.234796 266.623412,454.234796 C266.623412,454.234796 282.704388,454.234796 282.704388,454.234796 C282.704388,454.234796 298.785363,454.234796 298.785363,454.234796 C298.785363,454.234796 306.825851,454.234796 306.825851,454.234796 C306.825851,454.234796 312.186177,454.234796 312.186177,454.234796 C312.186177,454.234796 320.226664,454.234796 320.226664,454.234796 C320.226664,454.234796 330.947315,459.595121 330.947315,459.595121 C330.947315,459.595121 347.028291,462.275284 347.028291,462.275284 C347.028291,462.275284 357.748941,470.315772 357.748941,470.315772 C357.748941,470.315772 365.789429,475.676097 365.789429,475.676097 C365.789429,475.676097 379.190242,481.036422 379.190242,481.036422 C379.190242,481.036422 392.591055,486.396747 392.591055,486.396747 C392.591055,486.396747 392.591055,489.07691 392.591055,489.07691 C392.591055,489.07691 397.951381,491.757073 397.951381,491.757073 C397.951381,491.757073 397.951381,494.437235 397.951381,494.437235 C397.951381,494.437235 397.951381,499.797561 397.951381,499.797561 C397.951381,499.797561 400.631543,515.878536 400.631543,515.878536 C400.631543,515.878536 400.631543,531.959512 400.631543,531.959512 C400.631543,531.959512 405.991869,542.680163 405.991869,542.680163 C405.991869,542.680163 405.991869,548.040488 405.991869,548.040488 C405.991869,548.040488 405.991869,558.761138 405.991869,558.761138 C405.991869,558.761138 411.352194,574.842114 411.352194,574.842114 C411.352194,574.842114 411.352194,590.92309 411.352194,590.92309 C411.352194,590.92309 411.352194,598.963578 411.352194,598.963578 C411.352194,598.963578 411.352194,620.404879 411.352194,620.404879 C411.352194,620.404879 411.352194,631.125529 411.352194,631.125529 C411.352194,631.125529 411.352194,639.166017 411.352194,639.166017 C411.352194,639.166017 411.352194,660.607318 411.352194,660.607318 C411.352194,660.607318 411.352194,676.688294 411.352194,676.688294 C411.352194,676.688294 411.352194,692.76927 411.352194,692.76927 C411.352194,692.76927 405.991869,719.570896 405.991869,719.570896 C405.991869,719.570896 405.991869,732.971709 405.991869,732.971709 C405.991869,732.971709 405.991869,749.052685 405.991869,749.052685 C405.991869,749.052685 403.311706,759.773336 403.311706,759.773336 C403.311706,759.773336 403.311706,789.255124 403.311706,789.255124 C403.311706,789.255124 400.631543,824.097239 400.631543,824.097239 C400.631543,824.097239 400.631543,837.498052 400.631543,837.498052 C400.631543,837.498052 400.631543,845.53854 400.631543,845.53854 C400.631543,845.53854 397.951381,845.53854 397.951381,845.53854 C397.951381,845.53854 392.591055,845.53854 392.591055,845.53854 C392.591055,845.53854 373.829917,845.53854 373.829917,845.53854 C373.829917,845.53854 360.429104,845.53854 360.429104,845.53854 C360.429104,845.53854 344.348128,845.53854 344.348128,845.53854 C344.348128,845.53854 333.627478,845.53854 333.627478,845.53854 C333.627478,845.53854 317.546502,845.53854 317.546502,845.53854 C317.546502,845.53854 301.465526,845.53854 301.465526,845.53854 C301.465526,845.53854 285.38455,845.53854 285.38455,845.53854 C285.38455,845.53854 271.983737,845.53854 271.983737,845.53854 C271.983737,845.53854 261.263087,845.53854 261.263087,845.53854 C261.263087,845.53854 255.902761,845.53854 255.902761,845.53854 C255.902761,845.53854 255.902761,842.858377 255.902761,842.858377 C255.902761,842.858377 255.902761,834.817889 255.902761,834.817889 C255.902761,834.817889 255.902761,824.097239 255.902761,824.097239 C255.902761,824.097239 255.902761,802.655938 255.902761,802.655938 C255.902761,802.655938 255.902761,789.255124 255.902761,789.255124 C255.902761,789.255124 255.902761,770.493986 255.902761,770.493986 C255.902761,770.493986 255.902761,746.372522 255.902761,746.372522 C255.902761,746.372522 255.902761,716.890733 255.902761,716.890733 C255.902761,716.890733 255.902761,695.449432 255.902761,695.449432 C255.902761,695.449432 253.222599,665.967644 253.222599,665.967644 C253.222599,665.967644 245.182111,639.166017 245.182111,639.166017 C245.182111,639.166017 239.821786,620.404879 239.821786,620.404879 C239.821786,620.404879 237.141623,593.603253 237.141623,593.603253 C237.141623,593.603253 237.141623,577.522277 237.141623,577.522277 C237.141623,577.522277 237.141623,561.441301 237.141623,561.441301 C237.141623,561.441301 237.141623,531.959512 237.141623,531.959512 C237.141623,531.959512 237.141623,507.838048 237.141623,507.838048 C237.141623,507.838048 237.141623,464.955446 237.141623,464.955446 L 237.141623,464.955446 ZM475.676097,483.716585C475.676097,483.716585 481.036422,489.07691 481.036422,489.07691 C481.036422,489.07691 481.036422,486.396747 481.036422,486.396747 C481.036422,486.396747 481.036422,483.716585 481.036422,483.716585 C481.036422,483.716585 481.036422,481.036422 481.036422,481.036422 C481.036422,481.036422 481.036422,478.35626 481.036422,478.35626 C481.036422,478.35626 481.036422,475.676097 481.036422,475.676097 C481.036422,475.676097 481.036422,472.995934 481.036422,472.995934 C481.036422,472.995934 481.036422,470.315772 481.036422,470.315772 C481.036422,470.315772 481.036422,462.275284 481.036422,462.275284 C481.036422,462.275284 481.036422,459.595121 481.036422,459.595121 C481.036422,459.595121 481.036422,456.914959 481.036422,456.914959 C481.036422,456.914959 483.716585,454.234796 483.716585,454.234796 C483.716585,454.234796 483.716585,451.554633 483.716585,451.554633 C483.716585,451.554633 489.07691,448.874471 489.07691,448.874471 C489.07691,448.874471 497.117398,443.514145 497.117398,443.514145 C497.117398,443.514145 505.157886,438.15382 505.157886,438.15382 C505.157886,438.15382 507.838048,438.15382 507.838048,438.15382 C507.838048,438.15382 513.198374,438.15382 513.198374,438.15382 C513.198374,438.15382 521.238862,438.15382 521.238862,438.15382 C521.238862,438.15382 550.720651,451.554633 550.720651,451.554633 C550.720651,451.554633 561.441301,462.275284 561.441301,462.275284 C561.441301,462.275284 566.801626,464.955446 566.801626,464.955446 C566.801626,464.955446 566.801626,470.315772 566.801626,470.315772 C566.801626,470.315772 566.801626,475.676097 566.801626,475.676097 C566.801626,475.676097 566.801626,483.716585 566.801626,483.716585 C566.801626,483.716585 569.481789,489.07691 569.481789,489.07691 C569.481789,489.07691 572.161952,502.477723 572.161952,502.477723 C572.161952,502.477723 572.161952,505.157886 572.161952,505.157886 C572.161952,505.157886 574.842114,505.157886 574.842114,505.157886 C574.842114,505.157886 574.842114,502.477723 574.842114,502.477723 C574.842114,502.477723 577.522277,497.117398 577.522277,497.117398 C577.522277,497.117398 580.202439,494.437235 580.202439,494.437235 C580.202439,494.437235 582.882602,491.757073 582.882602,491.757073 C582.882602,491.757073 585.562765,486.396747 585.562765,486.396747 C585.562765,486.396747 588.242927,483.716585 588.242927,483.716585 C588.242927,483.716585 590.92309,481.036422 590.92309,481.036422 C590.92309,481.036422 590.92309,478.35626 590.92309,478.35626 C590.92309,478.35626 593.603253,478.35626 593.603253,478.35626 C593.603253,478.35626 596.283415,475.676097 596.283415,475.676097 C596.283415,475.676097 607.004066,472.995934 607.004066,472.995934 C607.004066,472.995934 620.404879,467.635609 620.404879,467.635609 C620.404879,467.635609 641.84618,462.275284 641.84618,462.275284 C641.84618,462.275284 671.327969,454.234796 671.327969,454.234796 C671.327969,454.234796 695.449432,454.234796 695.449432,454.234796 C695.449432,454.234796 714.210571,454.234796 714.210571,454.234796 C714.210571,454.234796 730.291547,459.595121 730.291547,459.595121 C730.291547,459.595121 757.093173,470.315772 757.093173,470.315772 C757.093173,470.315772 791.935287,483.716585 791.935287,483.716585 C791.935287,483.716585 816.056751,497.117398 816.056751,497.117398 C816.056751,497.117398 826.777401,502.477723 826.777401,502.477723 C826.777401,502.477723 834.817889,510.518211 834.817889,510.518211 C834.817889,510.518211 837.498052,510.518211 837.498052,510.518211 C837.498052,510.518211 837.498052,513.198374 837.498052,513.198374 C837.498052,513.198374 837.498052,518.558699 837.498052,518.558699 C837.498052,518.558699 840.178214,531.959512 840.178214,531.959512 C840.178214,531.959512 840.178214,542.680163 840.178214,542.680163 C840.178214,542.680163 840.178214,548.040488 840.178214,548.040488 C840.178214,548.040488 840.178214,556.080976 840.178214,556.080976 C840.178214,556.080976 842.858377,572.161952 842.858377,572.161952 C842.858377,572.161952 842.858377,609.684228 842.858377,609.684228 C842.858377,609.684228 842.858377,633.805692 842.858377,633.805692 C842.858377,633.805692 842.858377,655.246993 842.858377,655.246993 C842.858377,655.246993 842.858377,671.327969 842.858377,671.327969 C842.858377,671.327969 842.858377,692.76927 842.858377,692.76927 C842.858377,692.76927 842.858377,716.890733 842.858377,716.890733 C842.858377,716.890733 842.858377,741.012197 842.858377,741.012197 C842.858377,741.012197 845.53854,759.773336 845.53854,759.773336 C845.53854,759.773336 848.218702,775.854311 848.218702,775.854311 C848.218702,775.854311 850.898865,789.255124 850.898865,789.255124 C850.898865,789.255124 850.898865,805.3361 850.898865,805.3361 C850.898865,805.3361 853.579028,821.417076 853.579028,821.417076 C853.579028,821.417076 853.579028,834.817889 853.579028,834.817889 C853.579028,834.817889 853.579028,837.498052 853.579028,837.498052 C853.579028,837.498052 845.53854,834.817889 845.53854,834.817889 C845.53854,834.817889 829.457564,834.817889 829.457564,834.817889 C829.457564,834.817889 810.696425,829.457564 810.696425,829.457564 C810.696425,829.457564 799.975775,829.457564 799.975775,829.457564 C799.975775,829.457564 786.574962,829.457564 786.574962,829.457564 C786.574962,829.457564 783.894799,829.457564 783.894799,829.457564 C783.894799,829.457564 781.214637,829.457564 781.214637,829.457564 C781.214637,829.457564 781.214637,826.777401 781.214637,826.777401 C781.214637,826.777401 781.214637,821.417076 781.214637,821.417076 C781.214637,821.417076 781.214637,810.696425 781.214637,810.696425 C781.214637,810.696425 781.214637,786.574962 781.214637,786.574962 C781.214637,786.574962 770.493986,730.291547 770.493986,730.291547 C770.493986,730.291547 762.453498,703.48992 762.453498,703.48992 C762.453498,703.48992 754.41301,674.008131 754.41301,674.008131 C754.41301,674.008131 743.69236,652.56683 743.69236,652.56683 C743.69236,652.56683 727.611384,625.765204 727.611384,625.765204 C727.611384,625.765204 708.850246,596.283415 708.850246,596.283415 C708.850246,596.283415 692.76927,577.522277 692.76927,577.522277 C692.76927,577.522277 679.368457,564.121464 679.368457,564.121464 C679.368457,564.121464 665.967644,550.720651 665.967644,550.720651 C665.967644,550.720651 647.206505,540 647.206505,540 C647.206505,540 631.125529,537.319837 631.125529,537.319837 C631.125529,537.319837 615.044554,537.319837 615.044554,537.319837 C615.044554,537.319837 609.684228,540 609.684228,540 C609.684228,540 601.64374,548.040488 601.64374,548.040488 C601.64374,548.040488 593.603253,561.441301 593.603253,561.441301 C593.603253,561.441301 588.242927,574.842114 588.242927,574.842114 C588.242927,574.842114 585.562765,590.92309 585.562765,590.92309 C585.562765,590.92309 580.202439,612.364391 580.202439,612.364391 C580.202439,612.364391 580.202439,628.445367 580.202439,628.445367 C580.202439,628.445367 577.522277,652.56683 577.522277,652.56683 C577.522277,652.56683 574.842114,674.008131 574.842114,674.008131 C574.842114,674.008131 572.161952,690.089107 572.161952,690.089107 C572.161952,690.089107 572.161952,700.809758 572.161952,700.809758 C572.161952,700.809758 572.161952,708.850246 572.161952,708.850246 C572.161952,708.850246 572.161952,722.251059 572.161952,722.251059 C572.161952,722.251059 572.161952,738.332035 572.161952,738.332035 C572.161952,738.332035 572.161952,762.453498 572.161952,762.453498 C572.161952,762.453498 574.842114,781.214637 574.842114,781.214637 C574.842114,781.214637 574.842114,789.255124 574.842114,789.255124 C574.842114,789.255124 577.522277,794.61545 577.522277,794.61545 C577.522277,794.61545 577.522277,802.655938 577.522277,802.655938 C577.522277,802.655938 577.522277,808.016263 577.522277,808.016263 C577.522277,808.016263 577.522277,816.056751 577.522277,816.056751 C577.522277,816.056751 577.522277,826.777401 577.522277,826.777401 C577.522277,826.777401 574.842114,837.498052 574.842114,837.498052 C574.842114,837.498052 574.842114,842.858377 574.842114,842.858377 C574.842114,842.858377 572.161952,842.858377 572.161952,842.858377 C572.161952,842.858377 566.801626,842.858377 566.801626,842.858377 C566.801626,842.858377 558.761138,842.858377 558.761138,842.858377 C558.761138,842.858377 542.680163,842.858377 542.680163,842.858377 C542.680163,842.858377 531.959512,842.858377 531.959512,842.858377 C531.959512,842.858377 518.558699,842.858377 518.558699,842.858377 C518.558699,842.858377 515.878536,842.858377 515.878536,842.858377 C515.878536,842.858377 513.198374,842.858377 513.198374,842.858377 C513.198374,842.858377 513.198374,840.178214 513.198374,840.178214 C513.198374,840.178214 513.198374,837.498052 513.198374,837.498052 C513.198374,837.498052 513.198374,826.777401 513.198374,826.777401 C513.198374,826.777401 513.198374,805.3361 513.198374,805.3361 C513.198374,805.3361 510.518211,773.174149 510.518211,773.174149 C510.518211,773.174149 507.838048,743.69236 507.838048,743.69236 C507.838048,743.69236 505.157886,714.210571 505.157886,714.210571 C505.157886,714.210571 499.797561,687.408945 499.797561,687.408945 C499.797561,687.408945 497.117398,660.607318 497.117398,660.607318 C497.117398,660.607318 489.07691,633.805692 489.07691,633.805692 C489.07691,633.805692 486.396747,604.323903 486.396747,604.323903 C486.396747,604.323903 481.036422,577.522277 481.036422,577.522277 C481.036422,577.522277 481.036422,545.360325 481.036422,545.360325 C481.036422,545.360325 478.35626,518.558699 478.35626,518.558699 C478.35626,518.558699 478.35626,499.797561 478.35626,499.797561 C478.35626,499.797561 475.676097,483.716585 475.676097,483.716585 L 475.676097,483.716585 Z" fill="#000000"/>
		</g>
	</g>
</g></g></svg>