<svg xmlns="http://www.w3.org/2000/svg" viewBox="0 0 100 100" width="100" height="100"><defs></defs><g>
<g>
	<g>
		<path d="M49.9875,3.094737C75.950426,3.094737 97.040132,24.184443 97.040132,50.147368 C97.040132,76.110294 75.950426,97.2 49.9875,97.2 C24.024574,97.2 2.934868,76.110294 2.934868,50.147368 C2.934868,24.184443 24.024574,3.094737 49.9875,3.094737 Z" transform="matrix(1,0,0,1,0,0)" fill="none" stroke="#000000"/>
	</g>
	<g>
		<path d="M16.09375,85.15625L 16.71875,84.6875 L 17.1875,84.53125 L 17.5,84.53125 L 17.96875,84.0625 L 18.59375,83.59375 L 18.90625,83.59375 L 19.21875,83.28125 L 19.84375,82.8125 L 20.3125,82.5 L 20.46875,82.5 L 21.09375,82.03125 L 22.03125,81.40625 L 22.34375,81.40625 L 22.65625,81.25 L 23.125,80.78125 L 23.4375,80.625 L 24.375,80.3125 L 24.84375,80 L 25.625,79.53125 L 26.40625,79.375 L 26.875,79.375 L 27.34375,79.0625 L 28.4375,78.75 L 29.375,78.59375 L 29.84375,78.59375 L 30.46875,78.28125 L 30.9375,77.96875 L 31.25,77.8125 L 31.71875,77.65625 L 32.1875,77.1875 L 32.65625,76.875 L 32.8125,76.71875 L 33.28125,76.09375 L 33.59375,75.625 L 33.90625,75.46875 L 34.0625,75.46875 L 34.21875,75.3125 L 34.53125,74.84375 L 34.6875,74.53125 L 34.6875,74.375 L 34.6875,74.21875 L 34.6875,74.0625 L 34.84375,73.75 L 34.84375,73.59375 L 34.84375,72.96875 L 35,72.34375 L 35.15625,72.03125 L 35.15625,71.875 L 35.15625,71.71875 L 35.15625,71.5625 L 35.15625,71.40625 L 35.15625,71.25 L 35.15625,71.09375 " transform="matrix(0.941052632,0,0,0.941052632,2.934868421,3.094736842)" fill="none" stroke="#000000"/>
	</g>
	<g>
		<path d="M80.9375,87.5L 80.15625,87.03125 L 78.90625,86.25 L 76.71875,85.3125 L 75.625,84.84375 L 75.15625,84.53125 L 74.84375,84.53125 L 74.0625,84.375 L 73.28125,84.0625 L 72.65625,83.59375 L 71.71875,83.28125 L 70.78125,82.8125 L 69.84375,82.5 L 69.21875,82.03125 L 68.4375,81.71875 L 67.96875,81.5625 L 67.34375,81.25 L 66.40625,80.9375 L 66.09375,80.78125 L 65.625,80.46875 L 64.84375,80.15625 L 64.0625,79.84375 L 63.75,79.53125 L 63.59375,79.375 L 63.4375,79.21875 L 62.96875,78.75 L 62.5,78.125 L 62.03125,77.34375 L 61.5625,76.5625 L 61.25,76.25 L 61.09375,76.09375 L 61.09375,75.9375 L 61.09375,75.78125 L 60.625,75.15625 L 60.3125,74.375 L 60.3125,73.90625 L 60.3125,73.75 L 60.3125,73.59375 L 60.3125,73.4375 L 60.3125,72.96875 L 60,72.34375 L 59.84375,71.40625 L 59.84375,71.09375 L 59.84375,70.78125 L 59.6875,70.46875 L 59.53125,70 L 59.375,69.6875 L 59.375,69.375 L 59.375,69.21875 L 59.375,69.0625 L 59.375,68.90625 L 59.375,68.59375 L 59.375,68.4375 L 59.375,68.28125 L 59.53125,68.125 L 59.53125,67.96875 L 59.53125,67.8125 L 59.6875,67.8125 " transform="matrix(0.941052632,0,0,0.941052632,2.934868421,3.094736842)" fill="none" stroke="#000000"/>
	</g>
	<g>
		<path d="M35.15625,70.9375L 35.46875,70.9375 L 35.78125,70.9375 L 36.40625,70.78125 L 37.03125,70.78125 L 37.5,70.78125 L 38.125,70.78125 L 39.21875,70.46875 L 40,70.46875 L 40.15625,70.46875 L 40.78125,70.3125 L 42.96875,70.3125 L 44.0625,70.3125 L 44.84375,70.3125 L 45.3125,70.3125 L 46.09375,70.15625 L 46.5625,70.15625 L 47.1875,69.84375 L 47.96875,69.6875 L 48.75,69.6875 L 49.6875,69.53125 L 50.46875,69.21875 L 51.40625,69.21875 L 51.875,69.0625 L 52.65625,69.0625 L 53.28125,68.90625 L 54.0625,68.90625 L 54.84375,68.59375 L 55.625,68.4375 L 55.9375,68.28125 L 56.71875,68.125 L 57.65625,67.8125 L 58.28125,67.8125 L 58.59375,67.8125 L 58.90625,67.8125 L 59.0625,67.8125 L 59.21875,67.8125 L 59.53125,67.65625 L 60.3125,67.34375 L 60.78125,67.03125 L 61.40625,66.5625 L 61.875,66.40625 L 62.1875,66.25 L 62.34375,65.9375 L 62.96875,65.46875 L 63.4375,65 L 64.0625,64.6875 L 64.6875,64.21875 L 65,63.90625 L 65.46875,63.59375 L 65.9375,63.125 L 66.25,62.8125 L 66.71875,62.65625 L 67.03125,62.34375 L 67.5,62.03125 L 67.8125,61.875 L 67.96875,61.875 L 68.4375,61.40625 L 68.90625,60.9375 L 69.375,60.46875 L 69.6875,60.15625 L 70.15625,59.6875 L 70.9375,58.90625 L 71.40625,58.28125 L 71.875,57.65625 L 72.34375,57.03125 L 72.8125,56.40625 L 73.28125,56.09375 L 73.90625,55 L 74.375,54.375 L 74.6875,53.90625 L 75.15625,53.125 L 75.625,52.1875 L 76.09375,51.40625 L 76.40625,51.09375 L 76.71875,50.46875 L 77.03125,49.84375 L 77.34375,49.21875 L 77.5,48.4375 L 77.5,47.65625 L 77.5,46.875 L 77.5,45.625 L 77.5,45 L 77.5,44.6875 L 77.5,44.375 L 77.5,42.65625 L 77.5,41.09375 L 77.5,39.84375 L 77.5,39.21875 L 77.5,38.75 L 77.5,37.96875 L 77.5,37.03125 L 77.5,36.25 L 77.34375,35.46875 L 77.1875,34.53125 L 77.1875,33.90625 L 77.03125,33.4375 L 76.875,32.5 L 76.71875,31.71875 L 76.5625,31.25 L 76.40625,30.78125 L 76.09375,30.15625 L 75.625,29.21875 L 75.3125,28.125 L 74.84375,27.03125 L 74.21875,25.78125 L 73.75,24.53125 L 73.125,23.59375 L 72.8125,23.125 L 72.65625,22.96875 L 72.5,22.8125 L 71.25,21.40625 L 70.46875,20.625 L 70,20.15625 L 69.6875,19.6875 L 69.21875,19.21875 L 68.59375,18.75 L 68.125,18.125 L 67.5,17.5 L 66.875,16.875 L 66.09375,16.25 L 65.46875,15.625 L 64.84375,15 L 64.0625,14.21875 L 62.96875,13.4375 L 62.1875,12.8125 L 61.71875,12.34375 L 61.40625,12.03125 L 61.09375,12.03125 L 60.78125,12.03125 L 59.84375,11.875 L 59.21875,11.875 L 58.4375,11.71875 L 57.8125,11.71875 L 56.875,11.71875 L 56.09375,11.71875 L 55.15625,11.40625 L 54.21875,11.40625 L 53.28125,11.25 L 52.65625,11.25 L 51.71875,10.9375 L 50.625,10.625 L 49.84375,10.46875 L 49.0625,10.3125 L 48.59375,10.3125 L 48.4375,10.3125 L 48.125,10.3125 L 46.5625,10.3125 L 45.625,10.3125 L 44.6875,10.3125 L 43.75,10.3125 L 42.8125,10.3125 L 41.71875,10.3125 L 40.625,10.3125 L 39.53125,10.46875 L 38.4375,10.78125 L 37.34375,11.09375 L 36.5625,11.40625 L 35.625,11.71875 L 34.84375,12.1875 L 33.90625,12.65625 L 33.125,12.96875 L 32.65625,13.4375 L 32.34375,13.75 L 32.03125,14.21875 L 31.5625,14.6875 L 31.25,15.46875 L 30.78125,16.40625 L 30.3125,17.34375 L 30,17.8125 L 29.6875,18.59375 L 29.21875,19.6875 L 29.21875,20.15625 L 29.0625,20.3125 L 28.59375,21.40625 L 27.03125,24.53125 L 26.40625,25.625 L 25.9375,26.71875 L 25.46875,27.5 L 25.15625,28.59375 L 24.6875,29.84375 L 24.375,31.09375 L 23.90625,32.03125 L 23.90625,32.8125 L 23.75,33.4375 L 23.59375,34.6875 L 23.28125,36.09375 L 23.125,37.1875 L 23.125,37.96875 L 23.125,39.375 L 22.96875,40.46875 L 22.65625,41.40625 L 22.65625,41.71875 L 22.5,43.75 L 22.5,45.3125 L 22.5,46.5625 L 22.5,47.34375 L 22.5,48.125 L 22.5,49.0625 L 22.5,49.6875 L 22.5,50.15625 L 22.5,50.625 L 22.5,51.5625 L 22.5,52.1875 L 22.5,52.65625 L 22.5,53.75 L 22.5,54.53125 L 22.5,55.46875 L 22.65625,56.25 L 22.96875,57.34375 L 23.125,57.96875 L 23.4375,59.0625 L 23.75,60.3125 L 23.90625,60.9375 L 24.21875,61.71875 L 24.53125,62.8125 L 25,63.75 L 25.15625,64.53125 L 25.15625,64.84375 L 25.46875,65 L 26.09375,65.625 L 26.71875,66.09375 L 27.1875,66.71875 L 27.65625,67.1875 L 27.8125,67.34375 L 28.125,67.5 L 28.59375,68.125 L 28.90625,68.125 L 29.0625,68.4375 L 29.53125,68.75 L 30,68.90625 L 30.3125,68.90625 L 31.25,69.21875 L 31.875,69.53125 L 32.34375,69.53125 L 32.5,69.53125 L 33.125,69.84375 L 33.90625,70 L 34.21875,70 L 34.375,70 L 34.53125,70 L 34.6875,70 L 34.6875,70.15625 L 34.84375,70.15625 L 34.84375,70.3125 L 35.15625,70.625 L 35.625,70.9375 L 35.78125,70.9375 " transform="matrix(0.941052632,0,0,0.941052632,2.934868421,3.094736842)" fill="none" stroke="#000000"/>
	</g>
	<g>
		<path d="M40.46875,52.34375L 40.9375,52.8125 L 41.25,53.125 L 41.71875,53.28125 L 42.03125,53.59375 L 42.1875,53.59375 L 42.5,53.75 L 42.96875,53.75 L 43.28125,53.75 L 43.75,53.75 L 44.0625,53.75 L 44.53125,53.75 L 45,53.75 L 45.78125,53.75 L 46.25,53.75 L 46.40625,53.75 L 46.40625,53.90625 L 46.5625,53.90625 L 48.4375,53.90625 L 49.375,53.90625 L 50.46875,53.90625 L 51.09375,53.90625 L 51.5625,53.90625 L 52.03125,53.4375 L 52.65625,53.28125 L 53.125,52.96875 L 53.75,52.8125 L 54.0625,52.8125 L 54.21875,52.8125 L 54.375,52.8125 L 54.53125,52.65625 L 54.84375,52.5 L 55,52.5 L 55.15625,52.5 L 55.46875,52.1875 L 55.9375,52.03125 L 56.09375,52.03125 " transform="matrix(0.941052632,0,0,0.941052632,2.934868421,3.094736842)" fill="none" stroke="#000000"/>
	</g>
	<g>
		<path d="M39.53125,31.71875L 39.6875,31.71875 L 40,31.875 L 40.15625,32.03125 L 40.46875,32.34375 L 40.625,32.5 L 40.625,32.65625 L 40.625,32.8125 L 40.625,32.96875 L 40.625,33.125 L 40.46875,33.28125 L 40.3125,33.28125 L 40,33.28125 L 39.53125,33.28125 L 39.21875,33.28125 L 38.90625,33.28125 L 38.75,33.28125 L 38.59375,33.28125 " transform="matrix(0.941052632,0,0,0.941052632,2.934868421,3.094736842)" fill="none" stroke="#000000"/>
	</g>
	<g>
		<path d="M63.125,35.46875L 63.59375,35.3125 L 64.0625,35.3125 L 64.53125,35.3125 L 65.15625,35.46875 L 65.625,35.625 L 65.9375,35.625 L 66.09375,35.78125 L 66.25,35.78125 L 66.5625,35.9375 " transform="matrix(0.941052632,0,0,0.941052632,2.934868421,3.094736842)" fill="none" stroke="#000000"/>
	</g>
</g></g></svg>